<svg width="59" height="68" viewBox="0 0 59 68" fill="none" xmlns="http://www.w3.org/2000/svg">
<circle cx="29.1724" cy="33.9048" r="29.1724" fill="url(#paint0_linear_529_8459)"/>
<circle cx="29.1724" cy="33.9048" r="29.1724" fill="black" fill-opacity="0.1"/>
<path d="M15.8927 34.89C15.8927 28.17 18.7127 24.42 23.7227 24.42C28.7327 24.42 31.5827 28.17 31.5827 34.89C31.5827 41.58 28.7927 45.3 23.7227 45.3C18.6527 45.3 15.8927 41.58 15.8927 34.89ZM20.1827 34.89C20.1827 39.24 21.3827 41.58 23.7227 41.58C26.0327 41.58 27.2927 39.24 27.2927 34.89C27.2927 30.51 26.0327 28.14 23.7227 28.14C21.4427 28.14 20.1827 30.51 20.1827 34.89ZM41.2861 45H37.1161V28.32H33.2761V24.72H41.2861V45Z" fill="white"/>
<defs>
<linearGradient id="paint0_linear_529_8459" x1="29.1724" y1="4.73242" x2="29.1724" y2="63.0772" gradientUnits="userSpaceOnUse">
<stop stop-color="#F06941"/>
<stop offset="1" stop-color="#DD4C21"/>
</linearGradient>
</defs>
</svg>
