<svg width="59" height="68" viewBox="0 0 59 68" fill="none" xmlns="http://www.w3.org/2000/svg">
<circle cx="29.1724" cy="33.9048" r="29.1724" fill="url(#paint0_linear_529_8465)"/>
<circle cx="29.1724" cy="33.9048" r="29.1724" fill="black" fill-opacity="0.05"/>
<path d="M12.8019 34.89C12.8019 28.17 15.6219 24.42 20.6319 24.42C25.6419 24.42 28.4919 28.17 28.4919 34.89C28.4919 41.58 25.7019 45.3 20.6319 45.3C15.5619 45.3 12.8019 41.58 12.8019 34.89ZM17.0919 34.89C17.0919 39.24 18.2919 41.58 20.6319 41.58C22.9419 41.58 24.2019 39.24 24.2019 34.89C24.2019 30.51 22.9419 28.14 20.6319 28.14C18.3519 28.14 17.0919 30.51 17.0919 34.89ZM45.4496 41.28V45H31.2896V42.63L37.4396 36.33C39.7796 33.93 40.7696 32.67 40.7696 30.9C40.7696 29.25 39.6596 28.14 37.8896 28.14C35.9396 28.14 34.7396 29.37 34.7396 31.35H30.6896C30.6896 27.3 33.7496 24.42 38.0996 24.42C42.1496 24.42 45.1196 26.97 45.1196 30.39C45.1196 32.85 44.2196 34.41 40.6796 37.98L37.6196 41.28H45.4496Z" fill="white"/>
<defs>
<linearGradient id="paint0_linear_529_8465" x1="29.1724" y1="4.73242" x2="29.1724" y2="63.0772" gradientUnits="userSpaceOnUse">
<stop stop-color="#FEB300"/>
<stop offset="1" stop-color="#FFA901"/>
</linearGradient>
</defs>
</svg>
