<svg width="161" height="68" viewBox="0 0 161 68" fill="none" xmlns="http://www.w3.org/2000/svg">
<g clip-path="url(#clip0_232_361)">
<path d="M154.244 6.07467L4.21582 14.9092L7.06484 63.2916L157.093 54.4571L154.244 6.07467Z" fill="white" stroke="black" stroke-width="1.55466" stroke-miterlimit="10"/>
<path d="M7.37263 11.2326L0.808594 11.6191L1.19512 18.1832L7.75915 17.7966L7.37263 11.2326Z" fill="white" stroke="black" stroke-width="1.52521" stroke-miterlimit="10"/>
<path d="M10.2174 59.5461L3.65332 59.9326L4.03985 66.4966L10.6039 66.1101L10.2174 59.5461Z" fill="white" stroke="black" stroke-width="1.52521" stroke-miterlimit="10"/>
<path d="M156.295 1.57807L149.73 1.9646L150.117 8.52863L156.681 8.14211L156.295 1.57807Z" fill="white" stroke="black" stroke-width="1.52521" stroke-miterlimit="10"/>
<path d="M159.139 49.8915L152.575 50.2781L152.962 56.8421L159.526 56.4556L159.139 49.8915Z" fill="white" stroke="black" stroke-width="1.52521" stroke-miterlimit="10"/>
<path d="M66.6195 42.7637L66.7581 44.8815L56.475 45.5548L56.3856 44.1899L60.9994 38.4997C62.7479 36.3293 63.4049 35.1755 63.311 33.7401C63.2077 32.1635 62.0294 31.13 60.4057 31.2363C58.6409 31.3518 57.5398 32.5819 57.6553 34.3467L55.3257 34.4993C55.1332 31.5579 57.2064 29.2952 60.3596 29.0888C63.3246 28.8946 65.6158 30.6825 65.7868 33.2944C65.9054 35.1063 65.3062 36.4217 62.876 39.3694L59.9131 43.2028L66.6195 42.7637ZM68.4321 36.8078C68.087 31.5368 69.9887 28.4583 73.7537 28.2118C77.5187 27.9653 79.8291 30.768 80.1742 36.039C80.5193 41.31 78.6381 44.34 74.826 44.5896C71.0139 44.8391 68.7772 42.0788 68.4321 36.8078ZM70.8794 36.6476C71.1367 40.5773 72.4503 42.5946 74.6858 42.4482C76.9213 42.3018 77.9858 40.1525 77.727 36.1993C77.4666 32.2225 76.1294 30.2068 73.8939 30.3531C71.7055 30.4964 70.619 32.6708 70.8794 36.6476ZM93.207 41.0229L93.3457 43.1407L83.0625 43.814L82.9732 42.4491L87.587 36.7589C89.3354 34.5884 89.9925 33.4347 89.8985 31.9993C89.7953 30.4227 88.6169 29.3892 86.9933 29.4955C85.2284 29.611 84.1273 30.8411 84.2429 32.6059L81.9133 32.7585C81.7207 29.8171 83.794 27.5544 86.9472 27.348C89.9121 27.1538 92.2033 28.9417 92.3743 31.5536C92.493 33.3655 91.8938 34.6809 89.4636 37.6286L86.5006 41.462L93.207 41.0229ZM100.968 42.8543C97.6733 43.07 95.2409 41.2914 95.034 38.4928L97.3636 38.3402C97.5702 40.0518 98.9133 41.0746 100.843 40.9483C102.843 40.8173 103.996 39.6548 103.883 37.937C103.774 36.2663 102.316 35.2983 100.128 35.4415L98.4807 35.5494L98.3559 33.6434L99.8854 33.5432C101.674 33.4261 102.783 32.3137 102.681 30.7606C102.582 29.2546 101.457 28.3121 99.857 28.4169C98.2333 28.5232 97.2187 29.6295 97.2544 31.2577L94.9483 31.4087C94.8479 28.7921 96.932 26.6942 99.8263 26.5047C102.885 26.3044 104.978 27.9398 105.141 30.4342C105.243 31.9872 104.406 33.2945 102.81 34.1788C104.941 34.6065 106.231 35.8927 106.351 37.7281C106.536 40.5519 104.356 42.6324 100.968 42.8543Z" fill="black"/>
</g>
<defs>
<clipPath id="clip0_232_361">
<rect width="160.336" height="66.5396" fill="white" transform="translate(0 0.763672)"/>
</clipPath>
</defs>
</svg>
