<svg width="161" height="68" viewBox="0 0 161 68" fill="none" xmlns="http://www.w3.org/2000/svg">
<g clip-path="url(#clip0_745_5207)">
<path d="M154.244 6.07565L4.21582 14.9102L7.06484 63.2925L157.093 54.458L154.244 6.07565Z" fill="white" stroke="black" stroke-width="1.55466" stroke-miterlimit="10"/>
<path d="M7.37214 11.2326L0.808105 11.6191L1.19463 18.1832L7.75866 17.7966L7.37214 11.2326Z" fill="white" stroke="black" stroke-width="1.52521" stroke-miterlimit="10"/>
<path d="M10.2169 59.5451L3.65283 59.9316L4.03936 66.4957L10.6034 66.1091L10.2169 59.5451Z" fill="white" stroke="black" stroke-width="1.52521" stroke-miterlimit="10"/>
<path d="M156.295 1.57832L149.731 1.96484L150.117 8.52888L156.682 8.14235L156.295 1.57832Z" fill="white" stroke="black" stroke-width="1.52521" stroke-miterlimit="10"/>
<path d="M159.14 49.8908L152.576 50.2773L152.963 56.8414L159.527 56.4549L159.14 49.8908Z" fill="white" stroke="black" stroke-width="1.52521" stroke-miterlimit="10"/>
<path d="M31.3238 44.4543L31.4624 46.5721L21.1793 47.2454L21.0899 45.8806L25.7037 40.1903C27.4522 38.0199 28.1092 36.8661 28.0152 35.4307C27.912 33.8541 26.7336 32.8206 25.11 32.9269C23.3451 33.0424 22.2441 34.2725 22.3596 36.0374L20.03 36.1899C19.8374 33.2485 21.9107 30.9858 25.0639 30.7794C28.0288 30.5853 30.3201 32.3731 30.4911 34.985C30.6097 36.797 30.0105 38.1123 27.5803 41.06L24.6173 44.8934L31.3238 44.4543ZM33.1364 38.4985C32.7913 33.2275 34.693 30.1489 38.458 29.9024C42.223 29.6559 44.5334 32.4586 44.8785 37.7296C45.2236 43.0007 43.3424 46.0306 39.5303 46.2802C35.7182 46.5298 33.4815 43.7695 33.1364 38.4985ZM35.5836 38.3382C35.8409 42.2679 37.1546 44.2852 39.3901 44.1388C41.6256 43.9925 42.6901 41.8431 42.4312 37.8899C42.1709 33.9131 40.8336 31.8974 38.5982 32.0438C36.4098 32.187 35.3233 34.3614 35.5836 38.3382ZM57.9113 42.7135L58.05 44.8313L47.7668 45.5046L47.6775 44.1398L52.2913 38.4495C54.0397 36.2791 54.6968 35.1253 54.6028 33.6899C54.4996 32.1133 53.3212 31.0798 51.6975 31.1861C49.9327 31.3016 48.8316 32.5317 48.9472 34.2965L46.6176 34.4491C46.425 31.5077 48.4983 29.245 51.6515 29.0386C54.6164 28.8445 56.9076 30.6323 57.0786 33.2442C57.1973 35.0561 56.5981 36.3715 54.1679 39.3192L51.2049 43.1526L57.9113 42.7135ZM71.1773 40.4506L69.0125 40.5923L69.242 44.0985L66.8654 44.2541L66.6358 40.7479L58.9881 41.2487L58.8788 39.5779L66.3651 28.3115L68.2005 28.1914L68.8769 38.5216L71.0418 38.3798L71.1773 40.4506ZM61.5116 39.0038L66.5002 38.6772L66.0596 31.9472L61.5116 39.0038ZM79.8097 37.9712L72.4914 38.4503L72.3512 36.309L79.6695 35.8298L79.8097 37.9712ZM91.186 40.5348L91.3246 42.6526L81.0415 43.3259L80.9521 41.9611L85.5659 36.2709C87.3144 34.1004 87.9714 32.9467 87.8775 31.5113C87.7742 29.9347 86.5959 28.9011 84.9722 29.0074C83.2074 29.123 82.1063 30.3531 82.2218 32.1179L79.8922 32.2704C79.6997 29.329 81.7729 27.0664 84.9261 26.8599C87.8911 26.6658 90.1823 28.4536 90.3533 31.0656C90.4719 32.8775 89.8727 34.1929 87.4425 37.1406L84.4796 40.9739L91.186 40.5348ZM92.9986 34.579C92.6535 29.308 94.5552 26.2295 98.3202 25.983C102.085 25.7364 104.396 28.5392 104.741 33.8102C105.086 39.0812 103.205 42.1111 99.3925 42.3607C95.5804 42.6103 93.3437 39.85 92.9986 34.579ZM95.4459 34.4188C95.7032 38.3485 97.0168 40.3657 99.2523 40.2194C101.488 40.073 102.552 37.9237 102.293 33.9704C102.033 29.9936 100.696 27.9779 98.4604 28.1243C96.272 28.2676 95.1855 30.442 95.4459 34.4188ZM117.774 38.794L117.912 40.9118L107.629 41.5851L107.54 40.2203L112.153 34.5301C113.902 32.3596 114.559 31.2059 114.465 29.7705C114.362 28.1939 113.183 27.1603 111.56 27.2666C109.795 27.3822 108.694 28.6122 108.809 30.3771L106.48 30.5296C106.287 27.5882 108.36 25.3256 111.514 25.1191C114.479 24.925 116.77 26.7128 116.941 29.3248C117.059 31.1367 116.46 32.4521 114.03 35.3998L111.067 39.2331L117.774 38.794ZM131.04 36.5311L128.875 36.6729L129.104 40.179L126.728 40.3346L126.498 36.8285L118.85 37.3292L118.741 35.6585L126.227 24.3921L128.063 24.2719L128.739 34.6021L130.904 34.4604L131.04 36.5311ZM121.374 35.0844L126.362 34.7577L125.922 28.0278L121.374 35.0844Z" fill="black"/>
</g>
<defs>
<clipPath id="clip0_745_5207">
<rect width="160.336" height="66.5396" fill="white" transform="translate(0 0.763672)"/>
</clipPath>
</defs>
</svg>
