<svg width="59" height="68" viewBox="0 0 59 68" fill="none" xmlns="http://www.w3.org/2000/svg">
<circle cx="29.1724" cy="34.0005" r="29.1724" fill="url(#paint0_linear_529_8472)"/>
<path d="M12.5089 34.9857C12.5089 28.2657 15.3289 24.5157 20.3389 24.5157C25.3489 24.5157 28.1989 28.2657 28.1989 34.9857C28.1989 41.6757 25.4089 45.3957 20.3389 45.3957C15.2689 45.3957 12.5089 41.6757 12.5089 34.9857ZM16.7989 34.9857C16.7989 39.3357 17.9989 41.6757 20.3389 41.6757C22.6489 41.6757 23.9089 39.3357 23.9089 34.9857C23.9089 30.6057 22.6489 28.2357 20.3389 28.2357C18.0589 28.2357 16.7989 30.6057 16.7989 34.9857ZM38.0466 45.3657C33.6666 45.3657 30.5766 42.7857 30.5466 39.1257H34.5966C34.7166 40.9557 36.0366 42.0657 38.1066 42.0657C40.2666 42.0657 41.5266 40.9857 41.5266 39.1857C41.5266 37.4157 40.0566 36.3657 37.5666 36.3657H35.3766V33.0657H37.3266C39.3666 33.0657 40.5966 32.0457 40.5966 30.3957C40.5966 28.8057 39.5466 27.8157 37.8066 27.8157C36.0966 27.8157 35.0166 28.8957 34.9866 30.6657H30.9366C30.9666 27.1557 34.0266 24.5157 38.0166 24.5157C42.2766 24.5157 44.8866 26.8257 44.8866 30.0957C44.8866 31.9557 43.8066 33.4257 41.8566 34.4457C44.3766 35.2557 45.8166 36.8757 45.8166 39.0657C45.8166 42.8157 42.6966 45.3657 38.0466 45.3657Z" fill="white"/>
<defs>
<linearGradient id="paint0_linear_529_8472" x1="29.1724" y1="4.82812" x2="29.1724" y2="63.173" gradientUnits="userSpaceOnUse">
<stop stop-color="#56DA8A"/>
<stop offset="1" stop-color="#7BE257"/>
</linearGradient>
</defs>
</svg>
