<svg width="59" height="68" viewBox="0 0 59 68" fill="none" xmlns="http://www.w3.org/2000/svg">
<circle cx="29.1726" cy="34.0005" r="29.1724" fill="url(#paint0_linear_529_8478)"/>
<path d="M12.2452 34.9857C12.2452 28.2657 15.0652 24.5157 20.0752 24.5157C25.0852 24.5157 27.9352 28.2657 27.9352 34.9857C27.9352 41.6757 25.1452 45.3957 20.0752 45.3957C15.0052 45.3957 12.2452 41.6757 12.2452 34.9857ZM16.5352 34.9857C16.5352 39.3357 17.7352 41.6757 20.0752 41.6757C22.3852 41.6757 23.6452 39.3357 23.6452 34.9857C23.6452 30.6057 22.3852 28.2357 20.0752 28.2357C17.7952 28.2357 16.5352 30.6057 16.5352 34.9857ZM46.363 41.1057H43.513V45.0957H39.373V41.1057H29.743V38.0157L40.213 24.8157H43.513V37.4757H46.363V41.1057ZM34.303 37.4757H39.373V30.7857L34.303 37.4757Z" fill="white"/>
<defs>
<linearGradient id="paint0_linear_529_8478" x1="29.1726" y1="4.82812" x2="29.1726" y2="63.173" gradientUnits="userSpaceOnUse">
<stop stop-color="#56ADE7"/>
<stop offset="1" stop-color="#4791C3"/>
</linearGradient>
</defs>
</svg>
