<svg width="366" height="447" viewBox="0 0 366 447" fill="none" xmlns="http://www.w3.org/2000/svg">
<g clip-path="url(#clip0_529_11419)">
<path d="M0 130.208C0 84.6566 0 61.8811 8.8648 44.483C16.6625 29.1791 29.1049 16.7367 44.4088 8.93902C61.8069 0.0742188 84.5824 0.0742188 130.133 0.0742188H235.867C281.418 0.0742188 304.193 0.0742188 321.591 8.93902C336.895 16.7367 349.337 29.1791 357.135 44.483C366 61.8811 366 84.6566 366 130.208V235.941C366 281.492 366 304.267 357.135 321.665C349.337 336.969 336.895 349.412 321.591 357.209C304.193 366.074 281.418 366.074 235.867 366.074H130.133C84.5824 366.074 61.8069 366.074 44.4088 357.209C29.1049 349.412 16.6625 336.969 8.8648 321.665C0 304.267 0 281.492 0 235.941V130.208Z" fill="url(#paint0_linear_529_11419)"/>
<path d="M119.559 108.895V123.055C123.639 122.815 126.199 119.775 126.199 116.335C126.199 112.655 123.639 109.935 119.559 108.895ZM116.279 97.6953V84.9753C112.359 85.2153 109.959 87.8553 109.959 90.9753C109.959 94.1753 112.199 97.1353 116.279 97.6953ZM119.559 134.095H116.279V130.975C104.439 129.935 99.4794 125.135 99.4794 113.775H109.079C109.959 120.655 111.639 122.415 116.279 123.055V107.615C105.719 104.815 100.439 100.975 100.439 92.3353C100.439 84.0153 107.159 77.2153 116.279 77.0553V73.5353H119.559V77.0553C129.319 77.3753 134.599 82.6553 135.079 92.5753H125.639C125.159 86.8153 123.159 85.2153 119.559 84.9753V98.7353C133.879 103.455 135.959 107.215 135.959 115.055C135.959 124.335 129.479 130.495 119.559 130.975V134.095ZM162.709 129.695H152.309V92.9753H141.429V85.7753C150.549 85.7753 153.589 82.7353 154.229 76.5753H162.709V129.695ZM181.741 129.695H170.621V118.895H181.741V129.695ZM204.963 123.135C210.003 123.135 212.483 117.695 212.483 103.215C212.483 88.4953 210.003 83.1353 204.963 83.1353C199.923 83.1353 197.363 88.4153 197.363 103.055C197.363 117.855 199.923 123.135 204.963 123.135ZM204.643 131.535C193.203 131.535 186.563 122.895 186.563 102.895C186.563 82.9753 193.203 74.8153 204.643 74.8153C216.083 74.8153 223.043 82.9753 223.043 102.735C223.043 122.495 216.083 131.535 204.643 131.535ZM248.182 123.135C253.222 123.135 255.702 117.695 255.702 103.215C255.702 88.4953 253.222 83.1353 248.182 83.1353C243.142 83.1353 240.582 88.4153 240.582 103.055C240.582 117.855 243.142 123.135 248.182 123.135ZM247.862 131.535C236.422 131.535 229.782 122.895 229.782 102.895C229.782 82.9753 236.422 74.8153 247.862 74.8153C259.302 74.8153 266.262 82.9753 266.262 102.735C266.262 122.495 259.302 131.535 247.862 131.535Z" fill="white"/>
<path d="M187.048 167.266L187.048 203.261C187.048 203.694 187.176 204.118 187.417 204.478C187.657 204.838 187.999 205.119 188.4 205.285C188.8 205.45 189.24 205.494 189.665 205.409C190.09 205.324 190.48 205.115 190.786 204.809L200.852 194.742C201.243 194.328 201.456 193.778 201.448 193.208C201.439 192.639 201.209 192.095 200.807 191.693C200.404 191.29 199.861 191.06 199.291 191.051C198.722 191.042 198.172 191.256 197.757 191.646L191.429 197.974L191.429 167.266C191.414 166.695 191.177 166.152 190.768 165.753C190.359 165.355 189.81 165.131 189.239 165.131C188.668 165.131 188.119 165.355 187.71 165.753C187.301 166.152 187.064 166.695 187.05 167.266L187.048 167.266Z" fill="white"/>
<path d="M175.309 161.344L165.242 171.411C165.029 171.611 164.857 171.853 164.739 172.121C164.621 172.39 164.557 172.679 164.553 172.972C164.548 173.265 164.602 173.557 164.713 173.828C164.823 174.1 164.986 174.347 165.194 174.555C165.401 174.762 165.648 174.926 165.919 175.036C166.191 175.146 166.482 175.201 166.776 175.196C167.069 175.192 167.358 175.129 167.626 175.01C167.895 174.892 168.137 174.721 168.338 174.507L174.666 168.179L174.666 198.887C174.681 199.458 174.918 200.001 175.327 200.4C175.736 200.798 176.284 201.021 176.856 201.021C177.427 201.021 177.975 200.798 178.384 200.4C178.793 200.001 179.03 199.458 179.045 198.887L179.045 162.885C179.045 162.451 178.917 162.028 178.676 161.668C178.436 161.307 178.094 161.027 177.694 160.861C177.293 160.695 176.853 160.652 176.428 160.737C176.003 160.822 175.613 161.03 175.307 161.337L175.309 161.344Z" fill="white"/>
<path d="M95.5781 300.117V293.438C81.7891 292.344 73.3516 282.227 73.3516 266.328V266.25C73.3516 250.273 81.75 240.195 95.5781 239.102V232.422H99.7578V239.062C110.812 239.688 119.055 246.523 120.891 256.68L121.086 257.383H111.281L111.125 256.836C109.484 251.406 105.5 248.008 99.7578 247.5V285.039C105.383 284.57 109.367 281.406 111.086 275.82L111.281 275.156H121.125L120.852 276.016C119.094 286.172 110.891 292.891 99.7578 293.477V300.117H95.5781ZM83.4297 266.289C83.4297 276.758 88 283.672 95.5781 284.922V247.617C88 248.867 83.4297 255.781 83.4297 266.25V266.289ZM148.405 294.453H138.005V257.733H127.125V250.533C136.245 250.533 139.285 247.493 139.925 241.333H148.405V294.453ZM169.197 270.613V263.333C178.157 263.333 179.997 259.973 179.997 256.053C179.997 250.773 177.917 247.893 173.117 247.893C169.117 247.893 166.077 251.093 166.077 256.613H156.397C156.397 246.453 163.437 239.573 173.517 239.573C182.717 239.573 189.997 245.493 189.997 254.053C189.997 258.853 187.917 263.573 183.757 265.973C188.797 268.053 191.677 272.373 191.677 279.093C191.677 289.733 184.077 296.293 172.957 296.293C161.917 296.293 155.517 289.653 155.517 278.853H165.517C165.517 285.013 168.237 287.733 173.437 287.733C177.757 287.733 181.037 284.533 181.037 278.933C181.037 272.693 177.837 270.613 169.197 270.613ZM207.999 294.453H196.879V283.653H207.999V294.453ZM226.962 270.613V263.333C235.922 263.333 237.762 259.973 237.762 256.053C237.762 250.773 235.682 247.893 230.882 247.893C226.882 247.893 223.842 251.093 223.842 256.613H214.162C214.162 246.453 221.202 239.573 231.282 239.573C240.482 239.573 247.762 245.493 247.762 254.053C247.762 258.853 245.682 263.573 241.522 265.973C246.562 268.053 249.442 272.373 249.442 279.093C249.442 289.733 241.842 296.293 230.722 296.293C219.682 296.293 213.282 289.653 213.282 278.853H223.282C223.282 285.013 226.002 287.733 231.202 287.733C235.522 287.733 238.802 284.533 238.802 278.933C238.802 272.693 235.602 270.613 226.962 270.613ZM274.283 287.893C279.323 287.893 281.803 282.453 281.803 267.973C281.803 253.253 279.323 247.893 274.283 247.893C269.243 247.893 266.683 253.173 266.683 267.813C266.683 282.613 269.243 287.893 274.283 287.893ZM273.963 296.293C262.523 296.293 255.883 287.653 255.883 267.653C255.883 247.733 262.523 239.573 273.963 239.573C285.403 239.573 292.363 247.733 292.363 267.493C292.363 287.253 285.403 296.293 273.963 296.293Z" fill="black"/>
</g>
<path d="M14.1908 423.999C14.1908 424.316 13.4575 424.683 11.9908 425.099C12.1242 426.833 12.1908 428.308 12.1908 429.524C12.1908 431.624 11.9242 432.674 11.3908 432.674C11.1075 432.674 10.8825 432.499 10.7158 432.149C10.5492 431.799 10.4158 431.191 10.3158 430.324C10.1992 428.724 10.0742 427.158 9.94082 425.624C9.19082 425.824 8.50749 426.008 7.89082 426.174C7.27415 426.324 6.34082 426.574 5.09082 426.924C3.62415 430.758 2.75749 432.674 2.49082 432.674C2.22415 432.674 1.93249 432.516 1.61582 432.199C1.31582 431.866 1.16582 431.516 1.16582 431.149C1.16582 430.983 1.64082 429.799 2.59082 427.599H2.41582C2.08249 427.599 1.78249 427.491 1.51582 427.274C1.26582 427.058 1.14082 426.791 1.14082 426.474C1.14082 426.141 1.96582 425.708 3.61582 425.174C3.88249 424.574 4.09915 424.033 4.26582 423.549C4.64915 422.599 5.18249 421.299 5.86582 419.649C6.54915 417.999 6.98249 416.949 7.16582 416.499C7.34915 416.033 7.66582 415.641 8.11582 415.324C8.58249 414.991 9.03249 414.824 9.46582 414.824C9.98249 414.824 10.4408 415.649 10.8408 417.299C11.2575 418.949 11.5908 420.991 11.8408 423.424C12.3075 423.374 12.7158 423.349 13.0658 423.349C13.8158 423.349 14.1908 423.566 14.1908 423.999ZM6.01582 424.524C7.19915 424.208 8.44915 423.941 9.76582 423.724C9.46582 420.874 9.17415 418.733 8.89082 417.299C8.14082 419.016 7.18249 421.424 6.01582 424.524ZM24.2508 420.224C24.9674 420.224 25.5841 420.683 26.1008 421.599C26.6341 422.516 26.9008 423.466 26.9008 424.449C26.9008 425.416 26.6174 426.391 26.0508 427.374C25.4841 428.341 24.7841 429.208 23.9508 429.974C23.1174 430.741 22.1924 431.383 21.1758 431.899C20.1758 432.399 19.2508 432.649 18.4008 432.649C18.0674 432.649 17.7508 432.608 17.4508 432.524C17.3841 432.808 17.2674 433.316 17.1008 434.049C16.9341 434.783 16.7924 435.391 16.6758 435.874C16.5591 436.358 16.4258 436.874 16.2758 437.424C15.9758 438.558 15.7091 439.124 15.4758 439.124C15.2424 439.124 15.0008 438.941 14.7508 438.574C14.4841 438.224 14.3508 437.908 14.3508 437.624C14.3508 437.341 14.6174 436.124 15.1508 433.974C16.7508 427.491 17.5508 423.124 17.5508 420.874C17.5508 420.374 17.7341 420.124 18.1008 420.124C18.4008 420.124 18.7591 420.349 19.1758 420.799C19.6091 421.233 19.8258 421.716 19.8258 422.249C19.8258 422.516 19.7924 422.808 19.7258 423.124C21.2091 421.191 22.7174 420.224 24.2508 420.224ZM18.1508 430.699C19.0341 430.699 19.9841 430.399 21.0008 429.799C22.0341 429.199 22.9091 428.408 23.6258 427.424C24.3591 426.424 24.7258 425.433 24.7258 424.449C24.7258 423.066 24.4008 422.374 23.7508 422.374C23.1008 422.374 22.2174 422.933 21.1008 424.049C20.0008 425.166 19.1258 426.616 18.4758 428.399L17.9008 430.699H18.1508ZM36.1893 420.224C36.9059 420.224 37.5226 420.683 38.0393 421.599C38.5726 422.516 38.8393 423.466 38.8393 424.449C38.8393 425.416 38.5559 426.391 37.9893 427.374C37.4226 428.341 36.7226 429.208 35.8893 429.974C35.0559 430.741 34.1309 431.383 33.1143 431.899C32.1143 432.399 31.1893 432.649 30.3393 432.649C30.0059 432.649 29.6893 432.608 29.3893 432.524C29.3226 432.808 29.2059 433.316 29.0393 434.049C28.8726 434.783 28.7309 435.391 28.6143 435.874C28.4976 436.358 28.3643 436.874 28.2143 437.424C27.9143 438.558 27.6476 439.124 27.4143 439.124C27.1809 439.124 26.9393 438.941 26.6893 438.574C26.4226 438.224 26.2893 437.908 26.2893 437.624C26.2893 437.341 26.5559 436.124 27.0893 433.974C28.6893 427.491 29.4893 423.124 29.4893 420.874C29.4893 420.374 29.6726 420.124 30.0393 420.124C30.3393 420.124 30.6976 420.349 31.1143 420.799C31.5476 421.233 31.7643 421.716 31.7643 422.249C31.7643 422.516 31.7309 422.808 31.6643 423.124C33.1476 421.191 34.6559 420.224 36.1893 420.224ZM30.0893 430.699C30.9726 430.699 31.9226 430.399 32.9393 429.799C33.9726 429.199 34.8476 428.408 35.5643 427.424C36.2976 426.424 36.6643 425.433 36.6643 424.449C36.6643 423.066 36.3393 422.374 35.6893 422.374C35.0393 422.374 34.1559 422.933 33.0393 424.049C31.9393 425.166 31.0643 426.616 30.4143 428.399L29.8393 430.699H30.0893ZM52.1869 432.599C51.9869 432.599 51.7202 432.399 51.3869 431.999C51.0702 431.599 50.9119 431.233 50.9119 430.899C50.9119 430.566 51.4036 428.241 52.3869 423.924C53.3869 419.591 53.8952 416.908 53.9119 415.874C53.9119 415.591 53.9452 415.399 54.0119 415.299C54.0952 415.183 54.2536 415.124 54.4869 415.124C54.7369 415.124 55.0536 415.383 55.4369 415.899C55.8369 416.416 56.0369 416.974 56.0369 417.574C56.0369 418.158 55.4369 420.891 54.2369 425.774C54.1202 426.224 53.9619 426.874 53.7619 427.724C53.5619 428.558 53.4036 429.199 53.2869 429.649C53.1702 430.099 53.0452 430.591 52.9119 431.124C52.6286 432.108 52.3869 432.599 52.1869 432.599ZM61.7512 432.699C60.7845 432.699 59.8762 432.324 59.0262 431.574C58.1762 430.808 57.7512 429.908 57.7512 428.874C57.7512 427.824 58.1012 426.616 58.8012 425.249C59.5012 423.883 60.4012 422.716 61.5012 421.749C62.6178 420.783 63.7012 420.299 64.7512 420.299C65.4345 420.299 66.0345 420.608 66.5512 421.224C67.0678 421.841 67.3262 422.383 67.3262 422.849C67.3262 422.983 67.2845 423.099 67.2012 423.199C67.1178 423.283 66.9928 423.324 66.8262 423.324C66.6762 423.324 66.4012 423.174 66.0012 422.874C65.6012 422.574 65.2428 422.424 64.9262 422.424C64.0262 422.424 62.9762 423.216 61.7762 424.799C60.5762 426.383 59.9762 427.766 59.9762 428.949C59.9762 429.466 60.1345 429.874 60.4512 430.174C60.7845 430.474 61.3095 430.624 62.0262 430.624C62.7595 430.624 63.4262 430.541 64.0262 430.374C64.6428 430.191 65.1178 430.016 65.4512 429.849C65.7845 429.666 66.0428 429.574 66.2262 429.574C66.5428 429.574 66.7012 429.733 66.7012 430.049C66.7012 430.533 66.1178 431.099 64.9512 431.749C63.8012 432.383 62.7345 432.699 61.7512 432.699ZM76.409 424.549C76.409 423.983 76.3173 423.449 76.134 422.949C75.9507 422.433 75.684 422.058 75.334 421.824C74.184 422.141 73.1923 423.033 72.359 424.499C71.5423 425.949 71.134 427.316 71.134 428.599C71.134 429.883 71.4507 430.683 72.084 430.999C73.284 430.766 74.3007 429.949 75.134 428.549C75.984 427.133 76.409 425.799 76.409 424.549ZM69.834 424.774C70.4173 423.474 71.1757 422.408 72.109 421.574C73.059 420.724 74.0257 420.299 75.009 420.299C76.009 420.299 76.8423 420.724 77.509 421.574C78.1757 422.408 78.509 423.433 78.509 424.649C78.509 425.849 78.2173 427.083 77.634 428.349C77.0507 429.599 76.2423 430.641 75.209 431.474C74.1923 432.291 73.109 432.699 71.959 432.699C71.109 432.699 70.4007 432.308 69.834 431.524C69.2673 430.741 68.984 429.749 68.984 428.549C68.984 427.333 69.2673 426.074 69.834 424.774ZM82.6371 428.349C84.2371 425.633 85.5371 423.616 86.5371 422.299C87.5538 420.966 88.3788 420.299 89.0121 420.299C89.6621 420.299 90.2704 420.641 90.8371 421.324C91.4204 422.008 91.7121 422.733 91.7121 423.499C91.7121 424.699 91.4371 426.166 90.8871 427.899C89.8871 431.099 88.9871 432.699 88.1871 432.699C87.8204 432.699 87.6371 432.449 87.6371 431.949C87.6371 431.599 87.8121 430.891 88.1621 429.824C88.5288 428.741 88.8621 427.683 89.1621 426.649C89.4788 425.599 89.6371 424.816 89.6371 424.299C89.6371 423.766 89.5538 423.374 89.3871 423.124C89.2371 422.874 89.0788 422.749 88.9121 422.749C88.7621 422.749 88.6038 422.799 88.4371 422.899C88.2704 422.999 88.0788 423.166 87.8621 423.399C87.6621 423.633 87.4704 423.866 87.2871 424.099C87.1038 424.316 86.8704 424.633 86.5871 425.049C86.3204 425.466 86.0954 425.824 85.9121 426.124C85.7288 426.408 85.4621 426.824 85.1121 427.374C84.7621 427.924 84.4954 428.341 84.3121 428.624C84.1288 428.908 83.8871 429.291 83.5871 429.774C83.2871 430.258 83.0454 430.633 82.8621 430.899C82.6954 431.166 82.5038 431.458 82.2871 431.774C81.8704 432.391 81.5371 432.699 81.2871 432.699C81.0538 432.699 80.7788 432.516 80.4621 432.149C80.1454 431.766 79.9871 431.433 79.9871 431.149C79.9871 431.066 80.0454 430.841 80.1621 430.474C80.4788 429.508 80.8288 428.316 81.2121 426.899C81.5954 425.466 81.8038 423.841 81.8371 422.024C81.8871 420.808 82.0621 420.199 82.3621 420.199C82.7288 420.199 83.0954 420.391 83.4621 420.774C83.8288 421.158 84.0121 421.583 84.0121 422.049C84.0121 422.499 83.8704 423.383 83.5871 424.699C83.3204 425.999 83.0038 427.216 82.6371 428.349ZM106.551 415.049C108.118 415.049 109.785 415.458 111.551 416.274C113.335 417.091 114.868 418.224 116.151 419.674C117.435 421.108 118.076 422.599 118.076 424.149C118.076 425.166 117.368 426.366 115.951 427.749C114.551 429.116 112.926 430.291 111.076 431.274C109.226 432.241 107.693 432.724 106.476 432.724C106.16 432.724 105.793 432.458 105.376 431.924C104.976 431.374 104.776 430.824 104.776 430.274C104.776 429.708 105.26 427.691 106.226 424.224C107.193 420.758 107.718 418.474 107.801 417.374C107.268 417.158 106.843 416.874 106.526 416.524C106.21 416.174 106.051 415.841 106.051 415.524C106.051 415.208 106.218 415.049 106.551 415.049ZM115.776 423.874C115.776 422.841 115.16 421.724 113.926 420.524C112.693 419.308 111.26 418.433 109.626 417.899C109.71 418.199 109.751 418.558 109.751 418.974C109.751 419.374 109.601 420.133 109.301 421.249C109.018 422.366 108.493 424.233 107.726 426.849C107.41 427.949 107.151 429.158 106.951 430.474C108.101 430.324 109.385 429.824 110.801 428.974C112.235 428.108 113.418 427.183 114.351 426.199C115.301 425.216 115.776 424.441 115.776 423.874ZM122.865 416.749C122.865 416.416 122.998 416.099 123.265 415.799C123.531 415.499 123.798 415.349 124.065 415.349C124.348 415.349 124.681 415.691 125.065 416.374C125.448 417.041 125.64 417.599 125.64 418.049C125.64 418.216 125.565 418.366 125.415 418.499C125.265 418.633 125.106 418.699 124.94 418.699C124.54 418.699 124.09 418.458 123.59 417.974C123.106 417.491 122.865 417.083 122.865 416.749ZM122.74 420.299C123.056 420.299 123.356 420.491 123.64 420.874C123.923 421.258 124.065 421.633 124.065 421.999C124.065 422.366 123.823 423.466 123.34 425.299C122.856 427.116 122.248 429.158 121.515 431.424C121.231 432.258 120.873 432.674 120.44 432.674C120.206 432.674 120.006 432.583 119.84 432.399C119.673 432.199 119.59 431.983 119.59 431.749C119.59 431.499 119.648 431.116 119.765 430.599C119.898 430.066 120.081 429.366 120.315 428.499C120.565 427.616 120.756 426.899 120.89 426.349C121.04 425.799 121.19 425.183 121.34 424.499C121.49 423.799 121.606 423.241 121.69 422.824C121.79 422.391 121.898 421.958 122.015 421.524C122.248 420.708 122.49 420.299 122.74 420.299ZM132.772 420.299C133.338 420.299 133.872 420.616 134.372 421.249C134.872 421.866 135.122 422.408 135.122 422.874C135.122 423.158 134.988 423.299 134.722 423.299C134.538 423.299 134.255 423.158 133.872 422.874C133.488 422.574 133.097 422.424 132.697 422.424C132.297 422.424 131.663 422.658 130.797 423.124C129.947 423.591 129.522 424.083 129.522 424.599C129.522 424.983 130.288 425.641 131.822 426.574C132.405 426.941 132.93 427.416 133.397 427.999C133.88 428.566 134.122 429.183 134.122 429.849C134.122 430.499 133.663 431.141 132.747 431.774C131.847 432.391 130.788 432.699 129.572 432.699C128.372 432.699 127.305 432.408 126.372 431.824C125.455 431.241 124.997 430.691 124.997 430.174C124.997 429.958 125.047 429.791 125.147 429.674C125.263 429.541 125.405 429.474 125.572 429.474C125.738 429.474 125.972 429.583 126.272 429.799C127.172 430.449 128.105 430.774 129.072 430.774C130.055 430.774 130.763 430.666 131.197 430.449C131.63 430.216 131.847 429.916 131.847 429.549C131.847 429.166 131.605 428.766 131.122 428.349C130.638 427.916 130.105 427.533 129.522 427.199C128.955 426.866 128.43 426.458 127.947 425.974C127.463 425.491 127.222 424.999 127.222 424.499C127.222 423.616 127.913 422.699 129.297 421.749C130.697 420.783 131.855 420.299 132.772 420.299ZM144.441 420.224C145.158 420.224 145.775 420.683 146.291 421.599C146.825 422.516 147.091 423.466 147.091 424.449C147.091 425.416 146.808 426.391 146.241 427.374C145.675 428.341 144.975 429.208 144.141 429.974C143.308 430.741 142.383 431.383 141.366 431.899C140.366 432.399 139.441 432.649 138.591 432.649C138.258 432.649 137.941 432.608 137.641 432.524C137.575 432.808 137.458 433.316 137.291 434.049C137.125 434.783 136.983 435.391 136.866 435.874C136.75 436.358 136.616 436.874 136.466 437.424C136.166 438.558 135.9 439.124 135.666 439.124C135.433 439.124 135.191 438.941 134.941 438.574C134.675 438.224 134.541 437.908 134.541 437.624C134.541 437.341 134.808 436.124 135.341 433.974C136.941 427.491 137.741 423.124 137.741 420.874C137.741 420.374 137.925 420.124 138.291 420.124C138.591 420.124 138.95 420.349 139.366 420.799C139.8 421.233 140.016 421.716 140.016 422.249C140.016 422.516 139.983 422.808 139.916 423.124C141.4 421.191 142.908 420.224 144.441 420.224ZM138.341 430.699C139.225 430.699 140.175 430.399 141.191 429.799C142.225 429.199 143.1 428.408 143.816 427.424C144.55 426.424 144.916 425.433 144.916 424.449C144.916 423.066 144.591 422.374 143.941 422.374C143.291 422.374 142.408 422.933 141.291 424.049C140.191 425.166 139.316 426.616 138.666 428.399L138.091 430.699H138.341ZM153.13 415.399C153.13 418.533 152.48 422.599 151.18 427.599C150.346 430.999 149.763 432.699 149.43 432.699C149.196 432.699 148.921 432.516 148.605 432.149C148.305 431.783 148.155 431.499 148.155 431.299C148.155 431.099 148.396 430.066 148.88 428.199C149.363 426.333 149.846 424.041 150.33 421.324C150.813 418.591 151.055 416.133 151.055 413.949C151.055 413.716 151.088 413.549 151.155 413.449C151.221 413.349 151.363 413.299 151.58 413.299C151.796 413.299 152.105 413.541 152.505 414.024C152.921 414.491 153.13 414.949 153.13 415.399ZM160.983 420.299C161.733 420.299 162.424 420.683 163.058 421.449C163.691 422.199 164.008 422.883 164.008 423.499C164.008 424.099 163.799 424.716 163.383 425.349C163.583 425.599 163.683 425.816 163.683 425.999C163.683 426.466 163.574 427.266 163.358 428.399C163.158 429.533 163.033 430.274 162.983 430.624C162.949 430.974 162.916 431.258 162.883 431.474C162.849 431.674 162.808 431.874 162.758 432.074C162.691 432.491 162.541 432.699 162.308 432.699C162.008 432.699 161.758 432.441 161.558 431.924C161.374 431.391 161.266 430.708 161.233 429.874C159.749 431.758 158.374 432.699 157.108 432.699C156.341 432.699 155.583 432.374 154.833 431.724C154.099 431.058 153.733 430.374 153.733 429.674C153.733 428.674 154.099 427.441 154.833 425.974C155.566 424.491 156.516 423.174 157.683 422.024C158.849 420.874 159.949 420.299 160.983 420.299ZM162.133 424.699C162.133 423.149 161.824 422.374 161.208 422.374C160.558 422.374 159.799 422.841 158.933 423.774C158.066 424.691 157.333 425.733 156.733 426.899C156.133 428.066 155.833 428.991 155.833 429.674C155.833 429.958 155.949 430.191 156.183 430.374C156.416 430.541 156.691 430.624 157.008 430.624C157.791 430.624 158.674 430.099 159.658 429.049C160.641 427.983 161.324 426.691 161.708 425.174C161.758 424.924 161.899 424.774 162.133 424.724V424.699ZM175.826 420.299C176.093 420.299 176.376 420.499 176.676 420.899C176.993 421.283 177.151 421.716 177.151 422.199C177.151 422.533 176.81 423.666 176.126 425.599C175.443 427.533 174.976 428.849 174.726 429.549C174.493 430.233 174.168 431.149 173.751 432.299C173.351 433.433 172.96 434.541 172.576 435.624C171.743 438.008 170.493 439.199 168.826 439.199C167.876 439.199 166.968 438.908 166.101 438.324C165.235 437.758 164.801 437.166 164.801 436.549C164.801 436.316 164.91 436.058 165.126 435.774C165.326 435.491 165.501 435.349 165.651 435.349C165.801 435.349 166.043 435.533 166.376 435.899C167.343 436.999 168.168 437.549 168.851 437.549C169.368 437.549 169.835 437.091 170.251 436.174C170.668 435.274 171.06 434.249 171.426 433.099C171.81 431.966 172.018 431.341 172.051 431.224C172.101 431.108 172.151 430.958 172.201 430.774C172.268 430.591 172.326 430.424 172.376 430.274C171.193 431.891 170.026 432.699 168.876 432.699C168.176 432.699 167.526 432.374 166.926 431.724C166.343 431.074 166.051 430.308 166.051 429.424C166.051 428.541 166.268 427.349 166.701 425.849C167.135 424.349 167.643 423.049 168.226 421.949C168.81 420.849 169.285 420.299 169.651 420.299C169.951 420.299 170.226 420.441 170.476 420.724C170.743 420.991 170.876 421.266 170.876 421.549C170.876 421.833 170.66 422.424 170.226 423.324C168.876 426.091 168.201 428.241 168.201 429.774C168.201 430.041 168.285 430.266 168.451 430.449C168.618 430.616 168.818 430.699 169.051 430.699C169.651 430.699 170.368 430.166 171.201 429.099C172.035 428.033 172.801 426.766 173.501 425.299C174.085 424.066 174.693 422.491 175.326 420.574C175.393 420.391 175.56 420.299 175.826 420.299ZM180.97 416.749C180.97 416.416 181.103 416.099 181.37 415.799C181.637 415.499 181.903 415.349 182.17 415.349C182.453 415.349 182.787 415.691 183.17 416.374C183.553 417.041 183.745 417.599 183.745 418.049C183.745 418.216 183.67 418.366 183.52 418.499C183.37 418.633 183.212 418.699 183.045 418.699C182.645 418.699 182.195 418.458 181.695 417.974C181.212 417.491 180.97 417.083 180.97 416.749ZM180.845 420.299C181.162 420.299 181.462 420.491 181.745 420.874C182.028 421.258 182.17 421.633 182.17 421.999C182.17 422.366 181.928 423.466 181.445 425.299C180.962 427.116 180.353 429.158 179.62 431.424C179.337 432.258 178.978 432.674 178.545 432.674C178.312 432.674 178.112 432.583 177.945 432.399C177.778 432.199 177.695 431.983 177.695 431.749C177.695 431.499 177.753 431.116 177.87 430.599C178.003 430.066 178.187 429.366 178.42 428.499C178.67 427.616 178.862 426.899 178.995 426.349C179.145 425.799 179.295 425.183 179.445 424.499C179.595 423.799 179.712 423.241 179.795 422.824C179.895 422.391 180.003 421.958 180.12 421.524C180.353 420.708 180.595 420.299 180.845 420.299ZM186.177 428.349C187.777 425.633 189.077 423.616 190.077 422.299C191.094 420.966 191.919 420.299 192.552 420.299C193.202 420.299 193.81 420.641 194.377 421.324C194.96 422.008 195.252 422.733 195.252 423.499C195.252 424.699 194.977 426.166 194.427 427.899C193.427 431.099 192.527 432.699 191.727 432.699C191.36 432.699 191.177 432.449 191.177 431.949C191.177 431.599 191.352 430.891 191.702 429.824C192.069 428.741 192.402 427.683 192.702 426.649C193.019 425.599 193.177 424.816 193.177 424.299C193.177 423.766 193.094 423.374 192.927 423.124C192.777 422.874 192.619 422.749 192.452 422.749C192.302 422.749 192.144 422.799 191.977 422.899C191.81 422.999 191.619 423.166 191.402 423.399C191.202 423.633 191.01 423.866 190.827 424.099C190.644 424.316 190.41 424.633 190.127 425.049C189.86 425.466 189.635 425.824 189.452 426.124C189.269 426.408 189.002 426.824 188.652 427.374C188.302 427.924 188.035 428.341 187.852 428.624C187.669 428.908 187.427 429.291 187.127 429.774C186.827 430.258 186.585 430.633 186.402 430.899C186.235 431.166 186.044 431.458 185.827 431.774C185.41 432.391 185.077 432.699 184.827 432.699C184.594 432.699 184.319 432.516 184.002 432.149C183.685 431.766 183.527 431.433 183.527 431.149C183.527 431.066 183.585 430.841 183.702 430.474C184.019 429.508 184.369 428.316 184.752 426.899C185.135 425.466 185.344 423.841 185.377 422.024C185.427 420.808 185.602 420.199 185.902 420.199C186.269 420.199 186.635 420.391 187.002 420.774C187.369 421.158 187.552 421.583 187.552 422.049C187.552 422.499 187.41 423.383 187.127 424.699C186.86 425.999 186.544 427.216 186.177 428.349ZM206.957 425.949C206.957 426.616 206.666 427.374 206.082 428.224C205.632 429.241 205.149 430.708 204.632 432.624C204.116 434.524 203.682 435.883 203.332 436.699C202.632 438.399 201.557 439.249 200.107 439.249C198.924 439.249 197.924 438.924 197.107 438.274C196.307 437.641 195.907 437.008 195.907 436.374C195.907 436.108 195.991 435.841 196.157 435.574C196.307 435.308 196.466 435.174 196.632 435.174C196.816 435.174 197.016 435.299 197.232 435.549C197.449 435.799 197.649 436.066 197.832 436.349C198.032 436.649 198.324 436.924 198.707 437.174C199.107 437.424 199.491 437.549 199.857 437.549C200.224 437.549 200.499 437.491 200.682 437.374C200.866 437.274 201.041 437.099 201.207 436.849C201.374 436.616 201.516 436.374 201.632 436.124C201.749 435.891 201.874 435.549 202.007 435.099C202.157 434.666 202.274 434.291 202.357 433.974C202.441 433.658 202.557 433.216 202.707 432.649C202.857 432.066 202.982 431.599 203.082 431.249C201.782 432.216 200.724 432.699 199.907 432.699C199.091 432.699 198.382 432.374 197.782 431.724C197.182 431.058 196.882 430.291 196.882 429.424C196.882 428.541 197.207 427.374 197.857 425.924C198.524 424.474 199.416 423.174 200.532 422.024C201.649 420.874 202.741 420.299 203.807 420.299C204.491 420.299 205.066 420.558 205.532 421.074C206.299 421.924 206.682 423.133 206.682 424.699C206.682 424.899 206.674 425.041 206.657 425.124C206.857 425.408 206.957 425.683 206.957 425.949ZM198.907 429.674C198.907 429.958 198.999 430.191 199.182 430.374C199.366 430.541 199.599 430.624 199.882 430.624C200.716 430.624 201.699 430.133 202.832 429.149C203.966 428.149 204.766 426.991 205.232 425.674C205.166 425.458 205.107 425.124 205.057 424.674C205.007 424.224 204.957 423.866 204.907 423.599C204.857 423.333 204.749 423.066 204.582 422.799C204.416 422.516 204.199 422.374 203.932 422.374C203.282 422.374 202.549 422.841 201.732 423.774C200.916 424.708 200.241 425.749 199.707 426.899C199.174 428.049 198.907 428.974 198.907 429.674ZM229.932 415.124C230.365 415.124 230.807 415.399 231.257 415.949C231.723 416.499 231.957 416.958 231.957 417.324C231.957 417.674 231.89 417.849 231.757 417.849C231.64 417.849 231.407 417.791 231.057 417.674C230.707 417.541 230.39 417.474 230.107 417.474C229.457 417.474 228.665 417.808 227.732 418.474C226.815 419.141 225.94 419.966 225.107 420.949C224.29 421.933 223.59 423.058 223.007 424.324C222.423 425.574 222.132 426.658 222.132 427.574C222.132 428.491 222.365 429.166 222.832 429.599C223.315 430.016 223.94 430.224 224.707 430.224C225.473 430.224 226.265 430.116 227.082 429.899C227.898 429.666 228.565 429.408 229.082 429.124C230.415 428.408 231.148 428.049 231.282 428.049C231.565 428.049 231.707 428.241 231.707 428.624C231.707 428.991 231.323 429.491 230.557 430.124C229.79 430.741 228.84 431.299 227.707 431.799C226.573 432.299 225.557 432.549 224.657 432.549C223.49 432.549 222.39 432.049 221.357 431.049C220.323 430.033 219.807 428.916 219.807 427.699C219.807 426.133 220.315 424.366 221.332 422.399C222.365 420.416 223.682 418.708 225.282 417.274C226.898 415.841 228.448 415.124 229.932 415.124ZM242.772 420.999C242.839 420.733 242.906 420.549 242.972 420.449C243.039 420.349 243.181 420.299 243.397 420.299C243.631 420.299 243.906 420.516 244.222 420.949C244.556 421.383 244.722 421.799 244.722 422.199C244.722 422.416 244.356 423.699 243.622 426.049C242.889 428.399 242.322 430.266 241.922 431.649C241.722 432.349 241.439 432.699 241.072 432.699C240.856 432.699 240.672 432.608 240.522 432.424C240.372 432.241 240.297 431.908 240.297 431.424C240.297 430.941 240.489 430.066 240.872 428.799C240.172 429.933 239.414 430.866 238.597 431.599C237.781 432.333 237.031 432.699 236.347 432.699C235.681 432.699 235.047 432.383 234.447 431.749C233.847 431.116 233.547 430.466 233.547 429.799C233.547 428.216 234.006 426.241 234.922 423.874C235.856 421.491 236.631 420.299 237.247 420.299C237.547 420.299 237.806 420.441 238.022 420.724C238.256 420.991 238.372 421.299 238.372 421.649C238.372 421.799 238.147 422.341 237.697 423.274C237.247 424.191 236.797 425.274 236.347 426.524C235.897 427.758 235.672 428.841 235.672 429.774C235.672 430.041 235.756 430.266 235.922 430.449C236.089 430.616 236.289 430.699 236.522 430.699C237.156 430.699 237.906 430.141 238.772 429.024C239.656 427.908 240.456 426.608 241.172 425.124C241.889 423.641 242.422 422.266 242.772 420.999ZM247.459 423.349L247.384 421.474C247.384 420.691 247.567 420.299 247.934 420.299C248.25 420.299 248.55 420.508 248.834 420.924C249.134 421.324 249.284 421.808 249.284 422.374C249.284 422.924 249.267 423.341 249.234 423.624C250.684 421.424 252.059 420.324 253.359 420.324C254.175 420.324 254.584 420.524 254.584 420.924C254.584 421.124 254.492 421.308 254.309 421.474C254.125 421.641 253.834 421.833 253.434 422.049C252.55 422.433 251.8 423.024 251.184 423.824C250.584 424.608 250.092 425.499 249.709 426.499C249.325 427.499 249.017 428.341 248.784 429.024C248.567 429.708 248.4 430.241 248.284 430.624C248.167 431.008 248.034 431.383 247.884 431.749C247.617 432.416 247.309 432.749 246.959 432.749C246.675 432.749 246.442 432.591 246.259 432.274C246.092 431.941 246.009 431.624 246.009 431.324C246.009 431.008 246.15 430.391 246.434 429.474C247.117 427.374 247.459 425.333 247.459 423.349ZM255.735 423.349L255.66 421.474C255.66 420.691 255.843 420.299 256.21 420.299C256.527 420.299 256.827 420.508 257.11 420.924C257.41 421.324 257.56 421.808 257.56 422.374C257.56 422.924 257.543 423.341 257.51 423.624C258.96 421.424 260.335 420.324 261.635 420.324C262.452 420.324 262.86 420.524 262.86 420.924C262.86 421.124 262.768 421.308 262.585 421.474C262.402 421.641 262.11 421.833 261.71 422.049C260.827 422.433 260.077 423.024 259.46 423.824C258.86 424.608 258.368 425.499 257.985 426.499C257.602 427.499 257.293 428.341 257.06 429.024C256.843 429.708 256.677 430.241 256.56 430.624C256.443 431.008 256.31 431.383 256.16 431.749C255.893 432.416 255.585 432.749 255.235 432.749C254.952 432.749 254.718 432.591 254.535 432.274C254.368 431.941 254.285 431.624 254.285 431.324C254.285 431.008 254.427 430.391 254.71 429.474C255.393 427.374 255.735 425.333 255.735 423.349ZM272.486 424.449C272.486 425.333 272.003 426.058 271.036 426.624C270.086 427.174 269.003 427.449 267.786 427.449C266.586 427.449 265.495 427.316 264.511 427.049C264.278 427.783 264.161 428.441 264.161 429.024C264.161 429.591 264.336 430.033 264.686 430.349C265.053 430.666 265.645 430.824 266.461 430.824C267.295 430.824 268.145 430.683 269.011 430.399C269.895 430.099 270.378 429.949 270.461 429.949C270.895 429.949 271.111 430.116 271.111 430.449C271.111 430.899 270.603 431.391 269.586 431.924C268.57 432.441 267.578 432.699 266.611 432.699C265.311 432.699 264.253 432.316 263.436 431.549C262.62 430.766 262.211 429.783 262.211 428.599C262.211 427.416 262.528 426.183 263.161 424.899C263.795 423.599 264.611 422.508 265.611 421.624C266.611 420.741 267.603 420.299 268.586 420.299C269.57 420.299 270.461 420.766 271.261 421.699C272.078 422.633 272.486 423.549 272.486 424.449ZM268.711 422.274C268.095 422.274 267.453 422.599 266.786 423.249C266.12 423.883 265.553 424.674 265.086 425.624C265.753 425.774 266.511 425.849 267.361 425.849C268.211 425.849 268.953 425.716 269.586 425.449C270.22 425.166 270.536 424.799 270.536 424.349C270.536 423.899 270.328 423.441 269.911 422.974C269.511 422.508 269.111 422.274 268.711 422.274ZM276.216 428.349C277.816 425.633 279.116 423.616 280.116 422.299C281.133 420.966 281.958 420.299 282.591 420.299C283.241 420.299 283.85 420.641 284.416 421.324C285 422.008 285.291 422.733 285.291 423.499C285.291 424.699 285.016 426.166 284.466 427.899C283.466 431.099 282.566 432.699 281.766 432.699C281.4 432.699 281.216 432.449 281.216 431.949C281.216 431.599 281.391 430.891 281.741 429.824C282.108 428.741 282.441 427.683 282.741 426.649C283.058 425.599 283.216 424.816 283.216 424.299C283.216 423.766 283.133 423.374 282.966 423.124C282.816 422.874 282.658 422.749 282.491 422.749C282.341 422.749 282.183 422.799 282.016 422.899C281.85 422.999 281.658 423.166 281.441 423.399C281.241 423.633 281.05 423.866 280.866 424.099C280.683 424.316 280.45 424.633 280.166 425.049C279.9 425.466 279.675 425.824 279.491 426.124C279.308 426.408 279.041 426.824 278.691 427.374C278.341 427.924 278.075 428.341 277.891 428.624C277.708 428.908 277.466 429.291 277.166 429.774C276.866 430.258 276.625 430.633 276.441 430.899C276.275 431.166 276.083 431.458 275.866 431.774C275.45 432.391 275.116 432.699 274.866 432.699C274.633 432.699 274.358 432.516 274.041 432.149C273.725 431.766 273.566 431.433 273.566 431.149C273.566 431.066 273.625 430.841 273.741 430.474C274.058 429.508 274.408 428.316 274.791 426.899C275.175 425.466 275.383 423.841 275.416 422.024C275.466 420.808 275.641 420.199 275.941 420.199C276.308 420.199 276.675 420.391 277.041 420.774C277.408 421.158 277.591 421.583 277.591 422.049C277.591 422.499 277.45 423.383 277.166 424.699C276.9 425.999 276.583 427.216 276.216 428.349ZM289.896 430.199C289.896 430.516 290.08 430.674 290.446 430.674C291.08 430.674 291.846 430.499 292.746 430.149C293.663 429.783 294.171 429.599 294.271 429.599C294.571 429.599 294.721 429.758 294.721 430.074C294.721 430.558 294.221 431.116 293.221 431.749C292.238 432.383 291.338 432.699 290.521 432.699C289.721 432.699 289.055 432.483 288.521 432.049C287.988 431.599 287.721 431.141 287.721 430.674C287.721 430.208 287.821 429.616 288.021 428.899C288.221 428.166 288.505 427.208 288.871 426.024C289.255 424.824 289.555 423.833 289.771 423.049C288.988 423.233 288.463 423.324 288.196 423.324C287.93 423.324 287.663 423.191 287.396 422.924C287.146 422.641 287.021 422.374 287.021 422.124C287.021 421.724 288.105 421.341 290.271 420.974C290.571 419.591 290.721 418.366 290.721 417.299C290.721 416.799 290.888 416.549 291.221 416.549C291.505 416.549 291.855 416.733 292.271 417.099C292.688 417.449 292.896 417.849 292.896 418.299C292.896 418.749 292.755 419.541 292.471 420.674C293.421 420.591 294.18 420.549 294.746 420.549C295.746 420.549 296.246 420.766 296.246 421.199C296.246 421.449 295.971 421.658 295.421 421.824C294.888 421.991 293.755 422.249 292.021 422.599C291.671 423.916 291.23 425.424 290.696 427.124C290.163 428.808 289.896 429.833 289.896 430.199ZM308.523 432.674C308.273 432.674 307.99 432.491 307.673 432.124C307.357 431.758 307.198 431.391 307.198 431.024C307.198 430.641 307.657 428.833 308.573 425.599C309.49 422.366 310.015 419.908 310.148 418.224C309.932 418.091 309.74 417.883 309.573 417.599C309.407 417.316 309.323 417.066 309.323 416.849C309.323 416.466 309.89 416.074 311.023 415.674C312.157 415.258 313.407 415.049 314.773 415.049C316.157 415.049 317.348 415.383 318.348 416.049C319.365 416.699 319.873 417.624 319.873 418.824C319.873 419.641 319.64 420.408 319.173 421.124C318.723 421.824 318.165 422.399 317.498 422.849C316.848 423.299 316.198 423.699 315.548 424.049C314.898 424.399 314.34 424.691 313.873 424.924C313.423 425.141 313.198 425.299 313.198 425.399C313.198 425.766 313.482 426.241 314.048 426.824C314.632 427.408 315.04 427.808 315.273 428.024C315.507 428.241 315.815 428.533 316.198 428.899C316.582 429.249 316.94 429.566 317.273 429.849C317.623 430.133 317.898 430.366 318.098 430.549C318.315 430.733 318.532 430.924 318.748 431.124C319.165 431.508 319.373 431.816 319.373 432.049C319.373 432.449 319.098 432.649 318.548 432.649C317.548 432.649 316.123 431.783 314.273 430.049C312.423 428.299 311.29 426.816 310.873 425.599C310.09 428.199 309.64 429.708 309.523 430.124C309.407 430.524 309.273 430.941 309.123 431.374C308.857 432.241 308.657 432.674 308.523 432.674ZM312.298 418.899C312.298 419.983 311.948 421.774 311.248 424.274C311.532 424.058 312.073 423.741 312.873 423.324C313.673 422.891 314.39 422.499 315.023 422.149C315.673 421.783 316.265 421.299 316.798 420.699C317.332 420.099 317.598 419.474 317.598 418.824C317.598 417.791 316.698 417.274 314.898 417.274C314.082 417.274 313.132 417.483 312.048 417.899C312.215 418.266 312.298 418.599 312.298 418.899ZM328.048 420.299C328.798 420.299 329.49 420.683 330.123 421.449C330.756 422.199 331.073 422.883 331.073 423.499C331.073 424.099 330.865 424.716 330.448 425.349C330.648 425.599 330.748 425.816 330.748 425.999C330.748 426.466 330.64 427.266 330.423 428.399C330.223 429.533 330.098 430.274 330.048 430.624C330.015 430.974 329.981 431.258 329.948 431.474C329.915 431.674 329.873 431.874 329.823 432.074C329.756 432.491 329.606 432.699 329.373 432.699C329.073 432.699 328.823 432.441 328.623 431.924C328.44 431.391 328.331 430.708 328.298 429.874C326.815 431.758 325.44 432.699 324.173 432.699C323.406 432.699 322.648 432.374 321.898 431.724C321.165 431.058 320.798 430.374 320.798 429.674C320.798 428.674 321.165 427.441 321.898 425.974C322.631 424.491 323.581 423.174 324.748 422.024C325.915 420.874 327.015 420.299 328.048 420.299ZM329.198 424.699C329.198 423.149 328.89 422.374 328.273 422.374C327.623 422.374 326.865 422.841 325.998 423.774C325.131 424.691 324.398 425.733 323.798 426.899C323.198 428.066 322.898 428.991 322.898 429.674C322.898 429.958 323.015 430.191 323.248 430.374C323.481 430.541 323.756 430.624 324.073 430.624C324.856 430.624 325.74 430.099 326.723 429.049C327.706 427.983 328.39 426.691 328.773 425.174C328.823 424.924 328.965 424.774 329.198 424.724V424.699ZM335.917 430.199C335.917 430.516 336.1 430.674 336.467 430.674C337.1 430.674 337.867 430.499 338.767 430.149C339.683 429.783 340.192 429.599 340.292 429.599C340.592 429.599 340.742 429.758 340.742 430.074C340.742 430.558 340.242 431.116 339.242 431.749C338.258 432.383 337.358 432.699 336.542 432.699C335.742 432.699 335.075 432.483 334.542 432.049C334.008 431.599 333.742 431.141 333.742 430.674C333.742 430.208 333.842 429.616 334.042 428.899C334.242 428.166 334.525 427.208 334.892 426.024C335.275 424.824 335.575 423.833 335.792 423.049C335.008 423.233 334.483 423.324 334.217 423.324C333.95 423.324 333.683 423.191 333.417 422.924C333.167 422.641 333.042 422.374 333.042 422.124C333.042 421.724 334.125 421.341 336.292 420.974C336.592 419.591 336.742 418.366 336.742 417.299C336.742 416.799 336.908 416.549 337.242 416.549C337.525 416.549 337.875 416.733 338.292 417.099C338.708 417.449 338.917 417.849 338.917 418.299C338.917 418.749 338.775 419.541 338.492 420.674C339.442 420.591 340.2 420.549 340.767 420.549C341.767 420.549 342.267 420.766 342.267 421.199C342.267 421.449 341.992 421.658 341.442 421.824C340.908 421.991 339.775 422.249 338.042 422.599C337.692 423.916 337.25 425.424 336.717 427.124C336.183 428.808 335.917 429.833 335.917 430.199ZM352.76 424.449C352.76 425.333 352.276 426.058 351.31 426.624C350.36 427.174 349.276 427.449 348.06 427.449C346.86 427.449 345.768 427.316 344.785 427.049C344.551 427.783 344.435 428.441 344.435 429.024C344.435 429.591 344.61 430.033 344.96 430.349C345.326 430.666 345.918 430.824 346.735 430.824C347.568 430.824 348.418 430.683 349.285 430.399C350.168 430.099 350.651 429.949 350.735 429.949C351.168 429.949 351.385 430.116 351.385 430.449C351.385 430.899 350.876 431.391 349.86 431.924C348.843 432.441 347.851 432.699 346.885 432.699C345.585 432.699 344.526 432.316 343.71 431.549C342.893 430.766 342.485 429.783 342.485 428.599C342.485 427.416 342.801 426.183 343.435 424.899C344.068 423.599 344.885 422.508 345.885 421.624C346.885 420.741 347.876 420.299 348.86 420.299C349.843 420.299 350.735 420.766 351.535 421.699C352.351 422.633 352.76 423.549 352.76 424.449ZM348.985 422.274C348.368 422.274 347.726 422.599 347.06 423.249C346.393 423.883 345.826 424.674 345.36 425.624C346.026 425.774 346.785 425.849 347.635 425.849C348.485 425.849 349.226 425.716 349.86 425.449C350.493 425.166 350.81 424.799 350.81 424.349C350.81 423.899 350.601 423.441 350.185 422.974C349.785 422.508 349.385 422.274 348.985 422.274ZM361.19 420.299C361.756 420.299 362.29 420.616 362.79 421.249C363.29 421.866 363.54 422.408 363.54 422.874C363.54 423.158 363.406 423.299 363.14 423.299C362.956 423.299 362.673 423.158 362.29 422.874C361.906 422.574 361.515 422.424 361.115 422.424C360.715 422.424 360.081 422.658 359.215 423.124C358.365 423.591 357.94 424.083 357.94 424.599C357.94 424.983 358.706 425.641 360.24 426.574C360.823 426.941 361.348 427.416 361.815 427.999C362.298 428.566 362.54 429.183 362.54 429.849C362.54 430.499 362.081 431.141 361.165 431.774C360.265 432.391 359.206 432.699 357.99 432.699C356.79 432.699 355.723 432.408 354.79 431.824C353.873 431.241 353.415 430.691 353.415 430.174C353.415 429.958 353.465 429.791 353.565 429.674C353.681 429.541 353.823 429.474 353.99 429.474C354.156 429.474 354.39 429.583 354.69 429.799C355.59 430.449 356.523 430.774 357.49 430.774C358.473 430.774 359.181 430.666 359.615 430.449C360.048 430.216 360.265 429.916 360.265 429.549C360.265 429.166 360.023 428.766 359.54 428.349C359.056 427.916 358.523 427.533 357.94 427.199C357.373 426.866 356.848 426.458 356.365 425.974C355.881 425.491 355.64 424.999 355.64 424.499C355.64 423.616 356.331 422.699 357.715 421.749C359.115 420.783 360.273 420.299 361.19 420.299Z" fill="black"/>
<defs>
<linearGradient id="paint0_linear_529_11419" x1="183" y1="0.0742187" x2="183" y2="366.074" gradientUnits="userSpaceOnUse">
<stop stop-color="#5AD270"/>
<stop offset="1" stop-color="#48C25D"/>
</linearGradient>
<clipPath id="clip0_529_11419">
<rect y="0.0742188" width="366" height="366" fill="white"/>
</clipPath>
</defs>
</svg>
