<svg width="92" height="152" viewBox="0 0 92 152" fill="none" xmlns="http://www.w3.org/2000/svg">
<g id="OBJECTS_2" clip-path="url(#clip0_745_4902)">
<path id="Vector" d="M85.9674 137.334C85.8499 137.438 85.9413 138.692 85.9282 138.875C85.8107 140.193 85.4451 141.512 84.9098 142.727C83.1079 146.826 78.8121 149.817 74.5425 150.861C68.8235 152.258 64.6844 148.263 62.3994 143.445C62.3994 143.445 76.7361 145.351 85.9804 137.334H85.9674Z" fill="black"/>
<path id="Vector_2" d="M78.8908 104.98C80.6405 103.008 74.7256 87.1309 76.8931 82.2345C81.2541 72.3373 88.1483 65.2604 90.0415 54.1097C96.2567 17.7066 56.511 -10.9928 23.7378 6.64726C3.94332 17.2888 -3.15972 39.4727 4.06083 60.2856C7.5993 70.4571 14.1017 79.6231 22.5235 86.3214C33.2956 94.8868 43.7804 99.4307 49.9825 112.879C49.9825 112.879 67.7401 117.58 78.8778 104.98H78.8908Z" fill="#E7B33E" stroke="black" stroke-width="2.61141" stroke-miterlimit="10" stroke-linecap="round"/>
<path id="Vector_3" d="M73.8638 109.314C70.1818 104.953 69.0588 98.4372 68.5235 92.9663C67.6879 84.5445 68.5757 76.0966 68.8108 67.6748C69.098 57.2944 68.876 43.7151 58.3651 38.1136C56.9158 37.3433 55.2445 36.7687 53.6515 37.1343C51.236 37.6958 49.7736 40.1766 49.0816 42.553C47.4233 48.272 48.3895 54.6308 52.5156 59.0832C53.7038 60.3759 55.584 61.5119 57.1247 60.6631C58.4304 59.932 58.6915 58.1693 58.6132 56.6677C58.1693 48.3895 51.5493 40.8295 43.3887 39.3149C40.7512 38.8187 37.8133 38.9754 35.685 40.6075C33.2433 42.4747 32.4338 45.8042 32.4991 48.8726C32.5774 53.077 34.1835 57.5425 36.377 61.081C36.8993 61.9297 37.513 62.7784 38.3878 63.2746C39.2626 63.7707 40.4639 63.8099 41.1951 63.1179C41.8741 62.4911 41.9655 61.4596 41.9263 60.5326C41.7174 54.6438 37.9439 49.1077 32.5905 46.666C26.9498 44.0807 20.0035 46.3526 20.2516 53.4034C20.3299 55.5578 21.0872 57.647 22.0796 59.5664C26.767 68.7585 35.8025 74.9737 42.0569 83.0168C49.2644 92.2743 54.8919 102.615 58.7438 113.701" stroke="black" stroke-width="2.42861" stroke-miterlimit="10" stroke-linecap="round"/>
<g id="Group">
<path id="Vector_4" d="M24.8869 14.2715C24.8869 14.2715 5.19682 26.741 7.72989 46.9272" stroke="black" stroke-width="1.30571" stroke-miterlimit="10" stroke-linecap="round"/>
<path id="Vector_5" d="M8.9834 52.6074C8.9834 52.6074 10.8375 61.7735 14.1018 67.388" stroke="black" stroke-width="1.30571" stroke-miterlimit="10" stroke-linecap="round"/>
</g>
<path id="Vector_6" d="M78.8906 104.979C78.8906 104.979 86.5551 104.326 84.936 111.847C84.936 111.847 84.936 114.054 83.7217 115.464C83.7217 115.464 87.0251 115.634 87.6127 118.924C87.6127 118.924 88.9445 122.371 86.3201 125.113C86.4767 124.943 88.2003 126.889 88.2917 127.033C89.519 128.743 89.8455 130.767 89.049 132.739C86.777 138.392 81.0581 141.395 75.4044 142.688C72.5318 143.341 69.594 143.68 66.6561 143.641C64.0317 143.602 60.0231 143.72 58.0646 141.696C56.4716 140.064 55.2443 135.024 57.9471 133.77C56.9286 134.24 53.1682 131.433 52.9593 130.31C52.6067 128.443 53.0768 126.523 56.1974 125.936C52.8418 126.576 49.7081 124.539 48.3893 121.483C47.6581 119.786 46.2871 111.691 49.9953 112.853C49.9953 112.853 66.8389 118.141 78.8906 104.953V104.979Z" fill="#B8EBFF" stroke="black" stroke-width="2.61141" stroke-miterlimit="10"/>
<path id="Vector_7" d="M80.8624 116.611C80.8624 116.611 71.9967 124.589 56.1846 125.947" stroke="black" stroke-width="1.30571" stroke-miterlimit="10" stroke-linecap="round"/>
<path id="Vector_8" d="M84.6227 126.236C84.6227 126.236 72.0226 136.786 57.9341 133.796" stroke="black" stroke-width="1.30571" stroke-miterlimit="10" stroke-linecap="round"/>
<g id="Group_2">
<path id="Vector_9" d="M59.8013 117.357C60.3236 119.812 61.9426 122.006 64.1362 123.207" stroke="black" stroke-width="1.30571" stroke-miterlimit="10" stroke-linecap="round"/>
<path id="Vector_10" d="M55.1138 117.463C55.8711 119.865 57.0984 122.137 58.7045 124.083C58.6 123.965 58.4955 123.861 58.3911 123.743" stroke="black" stroke-width="1.30571" stroke-miterlimit="10" stroke-linecap="round"/>
<path id="Vector_11" d="M51.9409 119.264C52.5154 120.935 53.3641 122.502 54.4609 123.886" stroke="black" stroke-width="1.30571" stroke-miterlimit="10" stroke-linecap="round"/>
<path id="Vector_12" d="M60.7412 127.75C61.2113 129.709 62.4647 131.471 64.1752 132.555C64.0055 132.424 63.8227 132.294 63.6529 132.163" stroke="black" stroke-width="1.30571" stroke-miterlimit="10" stroke-linecap="round"/>
<path id="Vector_13" d="M62.5171 136.76C63.4703 139.201 65.2852 141.291 67.5702 142.557" stroke="black" stroke-width="1.30571" stroke-miterlimit="10" stroke-linecap="round"/>
<path id="Vector_14" d="M57.4121 136.055C58.1172 138.222 59.5273 140.155 61.3815 141.486" stroke="black" stroke-width="1.30571" stroke-miterlimit="10" stroke-linecap="round"/>
<path id="Vector_15" d="M56.041 128.221C56.8767 130.088 58.0518 131.811 59.475 133.274" stroke="black" stroke-width="1.30571" stroke-miterlimit="10" stroke-linecap="round"/>
</g>
</g>
<defs>
<clipPath id="clip0_745_4902">
<rect width="92" height="151.148" fill="white"/>
</clipPath>
</defs>
</svg>
