<svg width="165" height="152" viewBox="0 0 165 152" fill="none" xmlns="http://www.w3.org/2000/svg">
<g clip-path="url(#clip0_745_4926)">
<path d="M6.73276 82.8558C6.73276 82.8558 5.86566 78.2643 38.9356 86.6376C38.9356 86.6376 61.2138 92.9162 60.8325 96.5048L54.883 107.944C54.883 107.944 10.4832 96.3794 10.5198 95.7056C10.5564 95.0318 6.72754 82.8506 6.72754 82.8506L6.73276 82.8558Z" fill="black" stroke="black" stroke-width="1.24319" stroke-miterlimit="10"/>
<path d="M10.9014 73.5534L1.51478 136.538C1.51478 136.538 0.140998 140.284 6.24204 144.17C6.24204 144.17 11.5334 148.537 20.4708 150.428C20.4708 150.428 33.1848 153.018 39.0195 148.375L62.2484 86.7689C62.2484 86.7689 24.4982 68.9985 10.9014 73.5534Z" fill="white" stroke="black" stroke-width="1.24319" stroke-miterlimit="10"/>
<path d="M5.78762 70.6001C5.78762 70.6001 20.7059 83.7215 38.9307 86.6415C38.9307 86.6415 60.7075 91.1546 67.6443 85.4296C67.6443 85.4296 68.4957 81.8567 68.5009 81.8254C69.1173 79.2398 68.2241 77.0564 65.9362 75.7661C54.0318 69.0644 40.1687 64.7393 26.6973 62.6291C22.3931 61.9552 18.021 61.5844 13.6594 61.7672C13.6594 61.7672 9.20901 61.5426 8.37325 64.3998L6.85321 68.3122C6.85321 68.3122 5.53689 69.7121 5.78762 70.6001Z" fill="black" stroke="black" stroke-width="1.24319" stroke-miterlimit="10"/>
<path d="M8.87451 65.2461C8.87451 65.2461 14.636 77.0721 40.1215 81.8934C40.1215 81.8934 61.7154 85.9155 68.1508 80.4047" stroke="white" stroke-width="0.621596" stroke-miterlimit="10" stroke-linecap="round"/>
<path d="M8.79639 69.5293C8.79639 69.5293 15.4093 76.4557 29.2777 81.4598" stroke="white" stroke-width="0.621596" stroke-miterlimit="10" stroke-linecap="round"/>
<path d="M36.8516 83.4121C36.8516 83.4121 47.2777 85.4963 53.969 85.444" stroke="white" stroke-width="0.621596" stroke-miterlimit="10" stroke-linecap="round"/>
<path d="M55.8809 85.1269C55.8809 85.1269 64.416 85.3776 68.1404 82.4473" stroke="white" stroke-width="0.621596" stroke-miterlimit="10" stroke-linecap="round"/>
<path d="M12.5206 63.4232C13.3041 63.1255 14.3749 63.1725 15.1898 63.1307C17.9792 62.9844 20.8051 63.1568 23.5787 63.4807C37.8702 65.1522 51.7909 70.2556 64.6511 76.5603C65.2414 76.8476 65.8525 77.1558 66.2286 77.6938C68.5531 81.0316 58.315 80.9063 56.8785 80.9376C51.0178 81.0734 45.1936 80.0235 39.5156 78.6445C32.1453 76.8528 24.9995 74.3873 18.3761 70.6421C16.48 69.5661 14.6309 68.4012 12.8549 67.1476C11.3401 66.0768 10.1178 64.3321 12.5206 63.418V63.4232Z" stroke="white" stroke-width="0.621596" stroke-miterlimit="10" stroke-linecap="round"/>
<path d="M8.10681 83.3455C8.10681 83.3455 11.1834 93.15 41.4275 97.1094C41.4275 97.1094 58.3516 98.7339 60.8328 96.5087C60.8328 96.5087 61.6999 96.3206 60.4567 100.097L48.0352 134.039C48.0352 134.039 47.2778 136.986 44.7078 137.414C44.7078 137.414 32.1401 141.687 12.7662 133.152C12.7662 133.152 1.15956 128.388 0.637207 124.569C0.637207 124.569 1.06031 123.415 0.830476 120.114C0.773018 119.278 6.73303 82.8544 6.73303 82.8544C6.73303 82.8544 7.37552 82.4731 8.10681 83.3455Z" fill="#EB9E00" stroke="black" stroke-width="1.24319" stroke-miterlimit="10"/>
<path d="M11.6172 90.9258C11.6172 90.9258 20.0113 97.0477 41.0255 100.271" stroke="black" stroke-width="0.621596" stroke-miterlimit="10" stroke-linecap="round"/>
<path d="M44.6143 100.647C44.6143 100.647 54.6695 102.418 58.796 99.6543" stroke="black" stroke-width="0.621596" stroke-miterlimit="10" stroke-linecap="round"/>
<path d="M63.9409 77.2714C57.0876 81.445 39.218 77.2244 39.218 77.2244C20.6328 73.0508 13.4453 64.9909 13.4453 64.9909L16.7988 56.1528L16.9503 55.7506C17.739 52.6792 32.3074 54.1783 32.3074 54.1783C49.2733 56.2886 62.588 64.2231 62.588 64.2231C66.2914 66.8923 65.5497 68.8616 65.4348 69.1175C65.4243 69.1384 65.4191 69.1489 65.4191 69.1489L63.9409 77.2714Z" fill="black" stroke="black" stroke-width="1.24319" stroke-miterlimit="10"/>
<path d="M65.4348 69.1227C60.3053 71.2748 50.5426 71.1599 39.9076 68.4228C28.8181 65.5655 19.9329 60.6763 16.7988 56.1528L16.9503 55.7506C17.7391 52.6792 32.3074 54.1783 32.3074 54.1783C49.2733 56.2886 62.588 64.2231 62.588 64.2231C66.2915 66.8923 65.5497 68.8616 65.4348 69.1175V69.1227Z" fill="black" stroke="black" stroke-width="1.24319" stroke-miterlimit="10"/>
<path d="M22.0065 55.9907C22.0065 55.9907 25.6838 53.2484 42.54 57.3854C42.54 57.3854 60.979 62.1335 61.7155 66.8295C61.7155 66.8295 63.2198 68.548 55.51 66.6675L22.3773 58.1376C22.3773 58.1376 20.0999 57.0406 22.0065 55.9959V55.9907Z" stroke="white" stroke-width="0.621596" stroke-miterlimit="10"/>
<path d="M46.4945 66.7403C47.022 67.0275 47.3459 67.341 47.2884 67.6439C47.2258 67.973 46.8235 68.0931 46.4892 68.1193C45.246 68.229 41.7881 68.0357 41.4224 66.4059C41.1613 65.2359 44.8229 65.8366 46.4945 66.7403Z" fill="white"/>
<path d="M16.7988 56.1543C16.7988 56.1543 18.8517 63.2635 45.2564 69.375C45.2564 69.375 61.6896 72.9948 64.8289 69.6361" stroke="white" stroke-width="0.621596" stroke-miterlimit="10" stroke-linecap="round"/>
<path d="M38.8942 38.5601C38.1786 39.3175 37.16 39.9287 36.5697 40.9316C36.0578 41.8091 35.8019 42.8016 35.7444 43.8097C35.4937 48.093 37.8547 51.8382 40.3411 55.1082C41.4119 56.5185 42.42 58.1587 42.979 59.8981C43.5849 61.7942 43.308 63.4449 43.1461 65.3619C43.0678 66.3126 43.3237 66.861 44.3736 66.9289C46.4317 67.0543 48.3069 65.4768 49.0957 63.5702C51.7753 57.1035 46.0504 51.5353 46.0556 45.2775C46.0556 44.0082 46.3795 42.6971 47.1995 41.7308C48.0405 40.7383 49.3151 40.2107 50.1195 39.1765C50.95 38.1057 51.4045 36.5909 51.3679 35.2484C51.3261 33.7336 49.9419 30.3383 52.1671 29.675C52.726 29.5078 53.3215 29.5653 53.9013 29.5339C55.5258 29.4503 57.354 28.6041 58.1898 27.1468C58.5084 26.5879 58.6965 25.961 59.0046 25.3969C59.4643 24.5612 60.1695 24.1224 61.1149 24.1119C62.8857 24.0963 65.1214 25.3081 64.8706 27.3244C64.7871 27.9825 64.5624 28.6198 64.5781 29.278C64.5938 30.0928 65.0012 30.8868 65.6437 31.3778C66.7511 32.2188 68.2711 32.1143 69.5822 32.0882C71.2903 32.0569 72.9984 31.9785 74.7117 31.9942C75.2915 31.9994 75.9288 32.036 76.3675 32.4173C77.2137 33.1486 76.8324 34.4649 76.7071 35.4104C76.5295 36.7423 76.425 38.0221 76.6078 39.3645C76.7018 40.0645 76.8638 40.7749 77.2712 41.3495C77.9712 42.3315 79.2561 42.7232 80.4628 42.7703C83.0745 42.8695 86.8772 41.6577 88.883 43.9926C90.1628 45.4865 89.9956 47.9938 90.8157 49.7645C94.4722 57.6624 104.261 55.5574 110.749 53.4366C113.172 52.6479 115.836 52.6374 118.182 53.6978C120.584 54.7843 122.663 56.0588 125.369 56.3305C128.785 56.67 132.374 55.7611 135.273 53.8441C138.167 51.927 139.739 48.396 143.176 47.3043C146.404 46.2804 150.029 47.1058 153.095 45.4708C157.729 43.0001 157.781 37.74 156.324 33.3627C155.624 31.2577 155.342 28.8287 155.357 26.614C155.383 23.6732 156.752 22.08 158.768 20.1421C160.946 18.0422 163.151 15.1327 163.689 12.0979C164.467 7.72582 159.75 5.93939 156.193 6.37294C153.769 6.66545 151.539 7.7206 149.371 8.78619C146.916 9.99282 141.964 10.7137 140.329 7.79373C139.253 5.87148 136.166 4.7432 134.129 5.03572C128.979 5.77746 125.118 9.59061 122.69 13.9366C122.69 13.9366 119.357 19.907 114.792 16.8356C112.054 14.9917 109.124 11.7636 105.614 13.8425C104.721 14.3701 104.021 15.1641 103.232 15.8327C101.947 16.914 99.821 17.6348 98.2801 16.5953C96.9168 15.676 96.2586 13.5239 95.5796 12.0874C93.8245 8.38398 91.3067 3.99624 86.5011 5.39092C84.9132 5.85059 83.8737 7.60046 82.3537 7.88253C79.8255 8.35264 79.6688 4.80066 78.692 3.40077C77.9503 2.32995 76.8324 1.66134 75.6363 1.19645C73.62 0.412926 71.4052 0.41815 69.4046 1.23302C67.0488 2.19936 65.8997 3.9649 64.4005 5.88715C63.2984 7.30794 62.1022 8.6556 60.8276 9.91969C59.2919 11.4397 57.4794 13.0486 55.3377 13.7276C52.773 14.5425 50.6209 13.3359 48.1607 12.7613C47.6853 12.6516 47.1995 12.5628 46.7085 12.5367C42.676 12.2912 39.2285 15.8379 39.6098 19.86C39.7978 21.824 40.9784 23.5896 41.0358 25.5327C41.0828 27.2095 39.709 27.2199 38.3927 27.5699C33.5192 28.8601 38.9046 33.6291 39.5471 35.7081C39.9598 37.0453 39.5576 37.8549 38.8994 38.5497L38.8942 38.5601Z" fill="white"/>
<path d="M38.8942 38.5601C38.1786 39.3175 37.16 39.9287 36.5697 40.9316C36.0578 41.8091 35.8019 42.8016 35.7444 43.8097C35.4937 48.093 37.8547 51.8382 40.3411 55.1082C41.4119 56.5185 42.42 58.1587 42.979 59.8981C43.5849 61.7942 43.308 63.4449 43.1461 65.3619C43.0678 66.3126 43.3237 66.861 44.3736 66.9289C46.4317 67.0543 48.3069 65.4768 49.0957 63.5702C51.7753 57.1035 46.0504 51.5353 46.0556 45.2775C46.0556 44.0082 46.3795 42.6971 47.1995 41.7308C48.0405 40.7383 49.3151 40.2107 50.1195 39.1765C50.95 38.1057 51.4045 36.5909 51.3679 35.2484C51.3261 33.7336 49.9419 30.3383 52.1671 29.675C52.726 29.5078 53.3215 29.5653 53.9013 29.5339C55.5258 29.4503 57.354 28.6041 58.1898 27.1468C58.5084 26.5879 58.6965 25.961 59.0046 25.3969C59.4643 24.5612 60.1695 24.1224 61.1149 24.1119C62.8857 24.0963 65.1214 25.3081 64.8706 27.3244C64.7871 27.9825 64.5624 28.6198 64.5781 29.278C64.5938 30.0928 65.0012 30.8868 65.6437 31.3778C66.7511 32.2188 68.2711 32.1143 69.5822 32.0882C71.2903 32.0569 72.9984 31.9785 74.7117 31.9942C75.2915 31.9994 75.9288 32.036 76.3675 32.4173C77.2137 33.1486 76.8324 34.4649 76.7071 35.4104C76.5295 36.7423 76.425 38.0221 76.6078 39.3645C76.7018 40.0645 76.8638 40.7749 77.2712 41.3495C77.9712 42.3315 79.2561 42.7232 80.4628 42.7703C83.0745 42.8695 86.8772 41.6577 88.883 43.9926C90.1628 45.4865 89.9956 47.9938 90.8157 49.7645C94.4722 57.6624 104.261 55.5574 110.749 53.4366C113.172 52.6479 115.836 52.6374 118.182 53.6978C120.584 54.7843 122.663 56.0588 125.369 56.3305C128.785 56.67 132.374 55.7611 135.273 53.8441C138.167 51.927 139.739 48.396 143.176 47.3043C146.404 46.2804 150.029 47.1058 153.095 45.4708C157.729 43.0001 157.781 37.74 156.324 33.3627C155.624 31.2577 155.342 28.8287 155.357 26.614C155.383 23.6732 156.752 22.08 158.768 20.1421C160.946 18.0422 163.151 15.1327 163.689 12.0979C164.467 7.72582 159.75 5.93939 156.193 6.37294C153.769 6.66545 151.539 7.7206 149.371 8.78619C146.916 9.99282 141.964 10.7137 140.329 7.79373C139.253 5.87148 136.166 4.7432 134.129 5.03572C128.979 5.77746 125.118 9.59061 122.69 13.9366C122.69 13.9366 119.357 19.907 114.792 16.8356C112.054 14.9917 109.124 11.7636 105.614 13.8425C104.721 14.3701 104.021 15.1641 103.232 15.8327C101.947 16.914 99.821 17.6348 98.2801 16.5953C96.9168 15.676 96.2586 13.5239 95.5796 12.0874C93.8245 8.38398 91.3067 3.99624 86.5011 5.39092C84.9132 5.85059 83.8737 7.60046 82.3537 7.88253C79.8255 8.35264 79.6688 4.80066 78.692 3.40077C77.9503 2.32995 76.8324 1.66134 75.6363 1.19645C73.62 0.412926 71.4052 0.41815 69.4046 1.23302C67.0488 2.19936 65.8997 3.9649 64.4005 5.88715C63.2984 7.30794 62.1022 8.6556 60.8276 9.91969C59.2919 11.4397 57.4794 13.0486 55.3377 13.7276C52.773 14.5425 50.6209 13.3359 48.1607 12.7613C47.6853 12.6516 47.1995 12.5628 46.7085 12.5367C42.676 12.2912 39.2285 15.8379 39.6098 19.86C39.7978 21.824 40.9784 23.5896 41.0358 25.5327C41.0828 27.2095 39.709 27.2199 38.3927 27.5699C33.5192 28.8601 38.9046 33.6291 39.5471 35.7081C39.9598 37.0453 39.5576 37.8549 38.8994 38.5497L38.8942 38.5601Z" stroke="black" stroke-width="1.24319" stroke-miterlimit="10"/>
<path d="M91.2436 32.9052C91.573 32.9052 91.8067 32.9955 91.9448 33.1761C92.0829 33.3461 92.152 33.5267 92.152 33.718C92.152 33.9836 92.0192 34.2651 91.7536 34.5626C91.488 34.8601 91.1427 35.1363 90.7177 35.3913C90.3034 35.6356 89.8572 35.8375 89.3791 35.9969C88.901 36.1562 88.4441 36.2359 88.0085 36.2359C87.3605 36.2359 86.7389 36.0606 86.144 35.71C85.5596 35.3488 85.0816 34.8441 84.7097 34.196C84.3485 33.548 84.1679 32.7777 84.1679 31.8853C84.1679 31.1522 84.306 30.4244 84.5822 29.702C84.8691 28.9795 85.2462 28.2836 85.7137 27.6143C86.1918 26.945 86.7124 26.3235 87.2755 25.7498C87.8492 25.176 88.4229 24.6767 88.9966 24.2517C89.5809 23.8268 90.1175 23.4974 90.6062 23.2637C91.0949 23.0193 91.488 22.8971 91.7855 22.8971C92.1573 22.8971 92.4335 22.9928 92.6142 23.184C92.8054 23.3646 92.901 23.6196 92.901 23.9489C92.901 24.2145 92.8479 24.4217 92.7417 24.5705C92.646 24.7086 92.492 24.8308 92.2795 24.937C91.5995 25.2876 90.909 25.7126 90.2078 26.2119C89.5172 26.7112 88.885 27.2637 88.3113 27.8693C87.7376 28.4643 87.2755 29.0911 86.9249 29.7498C86.5743 30.4085 86.399 31.0778 86.399 31.7578C86.399 32.5015 86.5477 33.0646 86.8452 33.447C87.1427 33.8295 87.5464 34.0207 88.0563 34.0207C88.3113 34.0207 88.5876 33.9676 88.885 33.8614C89.1825 33.7445 89.4747 33.6117 89.7615 33.463C90.059 33.3142 90.3353 33.1867 90.5902 33.0805C90.8558 32.9636 91.0736 32.9052 91.2436 32.9052ZM94.3917 36.459C94.1261 36.459 93.8977 36.3634 93.7065 36.1722C93.5259 35.9809 93.4356 35.7047 93.4356 35.3435C93.4356 35.1841 93.4568 34.9238 93.4993 34.5626C93.5524 34.1907 93.6162 33.7658 93.6905 33.2877C93.7755 32.8096 93.8552 32.3102 93.9296 31.7896C94.0146 31.2691 94.0836 30.775 94.1368 30.3076C94.2005 29.8401 94.243 29.4417 94.2642 29.1123C94.2855 28.7086 94.3917 28.4218 94.583 28.2518C94.7742 28.0712 95.0026 27.9808 95.2682 27.9808C95.4807 27.9808 95.672 28.034 95.842 28.1402C96.0226 28.2358 96.1341 28.443 96.1766 28.7617C96.2297 29.0698 96.2351 29.5161 96.1926 30.1004C96.66 29.2504 97.1328 28.4908 97.6109 27.8215C98.0996 27.1522 98.6096 26.6209 99.1408 26.2278C100.023 25.5585 100.819 25.2238 101.531 25.2238C101.935 25.2238 102.201 25.3142 102.328 25.4948C102.456 25.6754 102.519 25.8613 102.519 26.0525C102.519 26.18 102.487 26.2969 102.424 26.4031C102.371 26.5094 102.254 26.6209 102.073 26.7378C101.892 26.8547 101.616 27.0087 101.244 27.2C100.745 27.4549 100.251 27.7896 99.7623 28.204C99.2842 28.6183 98.8061 29.1495 98.328 29.7976C97.8499 30.4457 97.3665 31.2425 96.8778 32.1881C96.3891 33.1336 95.8844 34.2598 95.3639 35.5666C95.2682 35.9278 95.1301 36.1668 94.9495 36.2837C94.7795 36.4006 94.5936 36.459 94.3917 36.459ZM102.738 36.2997C102.08 36.2997 101.549 36.0712 101.145 35.6144C100.741 35.1469 100.539 34.3979 100.539 33.3674C100.539 32.7086 100.614 32.0499 100.762 31.3912C100.922 30.7219 101.14 30.0898 101.416 29.4948C101.703 28.8892 102.032 28.3527 102.404 27.8852C102.786 27.4178 103.206 27.0512 103.663 26.7856C104.12 26.5094 104.592 26.3713 105.081 26.3713C105.91 26.3713 106.558 26.5944 107.025 27.0406C107.493 27.4868 107.727 28.0552 107.727 28.7458C107.727 29.277 107.578 29.7604 107.28 30.196C106.993 30.621 106.6 31.0035 106.101 31.3434C105.602 31.6834 105.044 31.9915 104.428 32.2677C103.812 32.544 103.179 32.7936 102.531 33.0168C102.478 33.3992 102.452 33.7392 102.452 34.0367C102.452 34.2173 102.553 34.3076 102.754 34.3076C103.233 34.3076 103.742 34.2332 104.284 34.0845C104.837 33.9251 105.395 33.7233 105.958 33.4789C106.521 33.2239 107.063 32.9636 107.583 32.698C108.104 32.4218 108.577 32.1615 109.001 31.9171C109.437 31.6622 109.793 31.4603 110.069 31.3116C110.356 31.1522 110.542 31.0725 110.627 31.0725C110.861 31.0725 111.031 31.1416 111.137 31.2797C111.243 31.4178 111.296 31.5665 111.296 31.7259C111.296 31.8003 111.153 31.9649 110.866 32.2199C110.59 32.4749 110.207 32.7777 109.719 33.1283C109.241 33.4683 108.699 33.8242 108.093 34.196C107.498 34.5573 106.877 34.9026 106.229 35.2319C105.591 35.5506 104.97 35.8056 104.364 35.9969C103.769 36.1987 103.227 36.2997 102.738 36.2997ZM102.802 31.5984C103.238 31.3434 103.668 31.0778 104.093 30.8016C104.529 30.5147 104.89 30.196 105.177 29.8454C105.464 29.4842 105.607 29.0645 105.607 28.5864C105.607 28.4483 105.57 28.358 105.495 28.3155C105.421 28.2624 105.315 28.2358 105.177 28.2358C104.805 28.2358 104.465 28.4005 104.157 28.7299C103.859 29.0592 103.594 29.4842 103.36 30.0048C103.137 30.5147 102.951 31.0459 102.802 31.5984ZM110.105 36.3634C109.765 36.3634 109.457 36.2678 109.181 36.0765C108.904 35.8959 108.687 35.6569 108.527 35.3594C108.368 35.0513 108.288 34.7219 108.288 34.3713C108.288 33.7126 108.432 33.0699 108.718 32.443C109.016 31.8162 109.404 31.2212 109.882 30.6582C110.36 30.0951 110.88 29.5798 111.444 29.1123C112.017 28.6342 112.586 28.2252 113.149 27.8852C113.722 27.5453 114.243 27.2796 114.71 27.0884C115.189 26.8972 115.56 26.8016 115.826 26.8016C116.134 26.8016 116.384 26.8706 116.575 27.0087C116.777 27.1362 116.878 27.3381 116.878 27.6143C116.878 27.6993 116.857 27.7684 116.814 27.8215C116.952 27.8534 117.064 27.933 117.149 28.0605C117.234 28.188 117.276 28.3793 117.276 28.6342C117.276 28.7405 117.25 29.0167 117.197 29.4629C117.143 29.9092 117.085 30.451 117.021 31.0884C116.968 31.7259 116.942 32.3899 116.942 33.0805C116.942 33.1867 116.958 33.2824 116.989 33.3674C117.021 33.4417 117.09 33.4789 117.197 33.4789C117.622 33.4789 118.052 33.3939 118.487 33.2239C118.934 33.0433 119.364 32.8255 119.778 32.5705C120.203 32.3049 120.586 32.0446 120.926 31.7896C121.276 31.524 121.568 31.3062 121.802 31.1363C122.047 30.9556 122.206 30.8653 122.28 30.8653C122.642 30.8653 122.822 31.0459 122.822 31.4072C122.822 31.5028 122.705 31.7047 122.472 32.0128C122.248 32.3102 121.94 32.6555 121.547 33.0486C121.154 33.4311 120.713 33.8136 120.224 34.196C119.746 34.5679 119.247 34.876 118.726 35.1204C118.217 35.3647 117.722 35.4869 117.244 35.4869C116.66 35.4869 116.214 35.3488 115.906 35.0725C115.608 34.7963 115.396 34.4245 115.268 33.957C115.151 33.4789 115.088 32.9424 115.077 32.3474C114.535 33.123 113.972 33.8136 113.388 34.4192C112.814 35.0141 112.246 35.4869 111.683 35.8375C111.119 36.1881 110.594 36.3634 110.105 36.3634ZM115.746 28.3793C114.705 28.8786 113.77 29.4523 112.942 30.1004C112.113 30.7378 111.454 31.4072 110.965 32.1084C110.487 32.8096 110.248 33.4842 110.248 34.1323C110.248 34.3129 110.333 34.4032 110.503 34.4032C110.705 34.4032 110.971 34.2864 111.3 34.0526C111.64 33.8189 112.007 33.5108 112.4 33.1283C112.793 32.7352 113.186 32.2996 113.579 31.8215C113.972 31.3328 114.339 30.8335 114.679 30.3235C115.019 29.8135 115.29 29.3248 115.491 28.8573C115.566 28.6874 115.651 28.528 115.746 28.3793ZM131.947 27.7259C131.947 27.8534 131.905 27.9649 131.82 28.0605C131.735 28.1561 131.628 28.2305 131.501 28.2836C131.32 28.358 131.007 28.4536 130.561 28.5705C130.114 28.6874 129.573 28.8202 128.935 28.9689C128.308 29.1176 127.634 29.2717 126.911 29.4311C126.189 29.5798 125.466 29.7232 124.744 29.8613C124.468 30.8813 124.186 31.9331 123.899 33.0168C123.612 34.0898 123.326 35.1469 123.039 36.1881C122.932 36.5599 122.805 36.8415 122.656 37.0327C122.507 37.2346 122.252 37.3355 121.891 37.3355C121.498 37.3355 121.233 37.208 121.094 36.953C120.967 36.7087 120.951 36.374 121.047 35.949C121.323 34.791 121.578 33.7126 121.812 32.714C122.056 31.7153 122.252 30.9078 122.401 30.2916C121.764 30.3979 121.206 30.4829 120.728 30.5466C120.25 30.5997 119.91 30.621 119.708 30.6104C119.485 30.5891 119.299 30.4988 119.15 30.3394C119.001 30.1801 118.932 29.9835 118.943 29.7498C118.964 29.5373 119.06 29.3567 119.23 29.208C119.4 29.0486 119.602 28.953 119.835 28.9211C120.165 28.8892 120.59 28.8414 121.11 28.7777C121.631 28.7139 122.205 28.6396 122.832 28.5546C122.97 28.0127 123.129 27.4549 123.31 26.8812C123.49 26.2969 123.676 25.7391 123.867 25.2079C124.069 24.6661 124.26 24.1933 124.441 23.7896C124.622 23.3859 124.786 23.0937 124.935 22.9131C125.052 22.775 125.195 22.6687 125.365 22.5943C125.546 22.52 125.721 22.4828 125.891 22.4828C126.114 22.4828 126.295 22.5625 126.433 22.7218C126.571 22.8812 126.64 23.0671 126.64 23.2796C126.64 23.3646 126.635 23.4549 126.624 23.5505C126.614 23.6355 126.593 23.7205 126.561 23.8055C126.359 24.3367 126.141 24.9795 125.907 25.7338C125.684 26.4881 125.45 27.3168 125.206 28.2199C126.003 28.103 126.784 27.9862 127.549 27.8693C128.324 27.7418 129.025 27.6249 129.652 27.5187C130.29 27.4018 130.8 27.3009 131.182 27.2159C131.395 27.1415 131.575 27.1575 131.724 27.2637C131.873 27.3593 131.947 27.5134 131.947 27.7259ZM129.018 34.9969C128.72 34.9969 128.455 34.8959 128.221 34.6941C127.998 34.4922 127.886 34.1629 127.886 33.706C127.886 33.4617 127.918 33.1164 127.982 32.6701C128.056 32.2239 128.152 31.7405 128.269 31.2199C128.386 30.6887 128.513 30.1628 128.651 29.6422C128.8 29.1216 128.943 28.6595 129.081 28.2558C129.22 27.8414 129.342 27.5333 129.448 27.3314C129.586 27.0871 129.714 26.9383 129.831 26.8852C129.958 26.8215 130.08 26.7896 130.197 26.7896C130.41 26.7896 130.606 26.8534 130.787 26.9808C130.978 27.1083 131.074 27.3899 131.074 27.8255C131.074 27.9955 131.042 28.2717 130.978 28.6542C130.914 29.026 130.834 29.4616 130.739 29.961C130.643 30.4603 130.537 30.9756 130.42 31.5068C130.314 32.038 130.208 32.5427 130.101 33.0207C130.006 33.4882 129.926 33.8813 129.862 34.2C129.809 34.4656 129.698 34.6622 129.528 34.7897C129.368 34.9278 129.198 34.9969 129.018 34.9969ZM130.85 25.2119C130.5 25.2119 130.176 25.111 129.878 24.9091C129.581 24.6966 129.432 24.3726 129.432 23.937C129.432 23.5758 129.522 23.2836 129.703 23.0605C129.884 22.8374 130.096 22.678 130.34 22.5824C130.595 22.4762 130.819 22.423 131.01 22.423C131.201 22.423 131.414 22.4655 131.647 22.5505C131.881 22.6249 132.083 22.7683 132.253 22.9808C132.433 23.1827 132.524 23.4748 132.524 23.8573C132.524 24.1123 132.433 24.346 132.253 24.5585C132.072 24.7604 131.849 24.9197 131.584 25.0366C131.329 25.1535 131.084 25.2119 130.85 25.2119ZM134.615 35.7419C134.339 35.7419 134.095 35.6091 133.882 35.3435C133.68 35.0779 133.526 34.6688 133.42 34.1164C133.335 33.6489 133.261 33.1177 133.197 32.5227C133.133 31.9278 133.075 31.3434 133.022 30.7697C132.979 30.1854 132.947 29.6754 132.926 29.2398C132.905 28.8042 132.894 28.5067 132.894 28.3474C132.894 27.7737 132.995 27.3009 133.197 26.929C133.399 26.5466 133.787 26.3553 134.36 26.3553C134.605 26.3553 134.791 26.4616 134.918 26.6741C135.046 26.8759 135.109 27.1575 135.109 27.5187C135.109 27.7418 135.109 28.0233 135.109 28.3633C135.12 28.6927 135.131 29.0645 135.141 29.4789C135.152 29.9357 135.162 30.4297 135.173 30.961C135.194 31.4815 135.205 32.0021 135.205 32.5227C135.577 31.9384 135.975 31.3169 136.4 30.6582C136.825 29.9888 137.24 29.3408 137.643 28.7139C138.058 28.0871 138.429 27.5346 138.759 27.0565C139.088 26.5678 139.338 26.2225 139.508 26.0207C139.657 25.8401 139.837 25.686 140.05 25.5585C140.262 25.4204 140.485 25.3513 140.719 25.3513C140.974 25.3513 141.186 25.4523 141.356 25.6541C141.526 25.856 141.611 26.0897 141.611 26.3553C141.611 26.5572 141.569 26.7484 141.484 26.929C141.41 27.1097 141.314 27.2796 141.197 27.439C140.878 27.8852 140.501 28.4058 140.066 29.0008C139.641 29.5957 139.194 30.2226 138.727 30.8813C138.259 31.5294 137.803 32.1562 137.356 32.7618C136.921 33.3674 136.533 33.9039 136.193 34.3713C135.917 34.7644 135.694 35.0619 135.524 35.2638C135.354 35.455 135.2 35.5825 135.062 35.6463C134.934 35.71 134.785 35.7419 134.615 35.7419ZM143.134 36.2997C142.476 36.2997 141.944 36.0712 141.541 35.6144C141.137 35.1469 140.935 34.3979 140.935 33.3674C140.935 32.7086 141.01 32.0499 141.158 31.3912C141.318 30.7219 141.535 30.0898 141.812 29.4948C142.099 28.8892 142.428 28.3527 142.8 27.8852C143.182 27.4178 143.602 27.0512 144.059 26.7856C144.516 26.5094 144.988 26.3713 145.477 26.3713C146.306 26.3713 146.954 26.5944 147.421 27.0406C147.889 27.4868 148.122 28.0552 148.122 28.7458C148.122 29.277 147.974 29.7604 147.676 30.196C147.389 30.621 146.996 31.0035 146.497 31.3434C145.998 31.6834 145.44 31.9915 144.824 32.2677C144.207 32.544 143.575 32.7936 142.927 33.0168C142.874 33.3992 142.848 33.7392 142.848 34.0367C142.848 34.2173 142.948 34.3076 143.15 34.3076C143.628 34.3076 144.138 34.2332 144.68 34.0845C145.233 33.9251 145.79 33.7233 146.354 33.4789C146.917 33.2239 147.458 32.9636 147.979 32.698C148.5 32.4218 148.972 32.1615 149.397 31.9171C149.833 31.6622 150.189 31.4603 150.465 31.3116C150.752 31.1522 150.938 31.0725 151.023 31.0725C151.257 31.0725 151.427 31.1416 151.533 31.2797C151.639 31.4178 151.692 31.5665 151.692 31.7259C151.692 31.8003 151.549 31.9649 151.262 32.2199C150.986 32.4749 150.603 32.7777 150.115 33.1283C149.636 33.4683 149.095 33.8242 148.489 34.196C147.894 34.5573 147.273 34.9026 146.624 35.2319C145.987 35.5506 145.365 35.8056 144.76 35.9969C144.165 36.1987 143.623 36.2997 143.134 36.2997ZM143.198 31.5984C143.634 31.3434 144.064 31.0778 144.489 30.8016C144.925 30.5147 145.286 30.196 145.573 29.8454C145.86 29.4842 146.003 29.0645 146.003 28.5864C146.003 28.4483 145.966 28.358 145.891 28.3155C145.817 28.2624 145.711 28.2358 145.573 28.2358C145.201 28.2358 144.861 28.4005 144.553 28.7299C144.255 29.0592 143.99 29.4842 143.756 30.0048C143.533 30.5147 143.347 31.0459 143.198 31.5984Z" fill="black"/>
</g>
<defs>
<clipPath id="clip0_745_4926">
<rect width="164.389" height="151.769" fill="white"/>
</clipPath>
</defs>
</svg>
