<svg width="161" height="68" viewBox="0 0 161 68" fill="none" xmlns="http://www.w3.org/2000/svg">
<g clip-path="url(#clip0_745_5074)">
<path d="M154.244 6.04049L4.21582 14.875L7.06484 63.2574L157.093 54.4229L154.244 6.04049Z" fill="white" stroke="black" stroke-width="1.55466" stroke-miterlimit="10"/>
<path d="M7.37214 11.1994L0.808105 11.5859L1.19463 18.15L7.75866 17.7634L7.37214 11.1994Z" fill="white" stroke="black" stroke-width="1.52521" stroke-miterlimit="10"/>
<path d="M10.2169 59.5119L3.65283 59.8984L4.03936 66.4625L10.6034 66.0759L10.2169 59.5119Z" fill="white" stroke="black" stroke-width="1.52521" stroke-miterlimit="10"/>
<path d="M156.295 1.54511L149.731 1.93164L150.117 8.49567L156.682 8.10915L156.295 1.54511Z" fill="white" stroke="black" stroke-width="1.52521" stroke-miterlimit="10"/>
<path d="M159.14 49.8576L152.576 50.2441L152.963 56.8082L159.527 56.4217L159.14 49.8576Z" fill="white" stroke="black" stroke-width="1.52521" stroke-miterlimit="10"/>
<path d="M31.3238 44.4211L31.4624 46.5389L21.1793 47.2122L21.0899 45.8474L25.7037 40.1571C27.4522 37.9867 28.1092 36.8329 28.0152 35.3975C27.912 33.8209 26.7336 32.7874 25.11 32.8937C23.3451 33.0092 22.2441 34.2393 22.3596 36.0042L20.03 36.1567C19.8374 33.2153 21.9107 30.9526 25.0639 30.7462C28.0288 30.5521 30.3201 32.3399 30.4911 34.9518C30.6097 36.7638 30.0105 38.0791 27.5803 41.0268L24.6173 44.8602L31.3238 44.4211ZM33.1364 38.4653C32.7913 33.1943 34.693 30.1157 38.458 29.8692C42.223 29.6227 44.5334 32.4254 44.8785 37.6964C45.2236 42.9674 43.3424 45.9974 39.5303 46.247C35.7182 46.4966 33.4815 43.7363 33.1364 38.4653ZM35.5836 38.305C35.8409 42.2347 37.1546 44.252 39.3901 44.1056C41.6256 43.9593 42.6901 41.8099 42.4312 37.8567C42.1709 33.8799 40.8336 31.8642 38.5982 32.0106C36.4098 32.1538 35.3233 34.3282 35.5836 38.305ZM57.9113 42.6803L58.05 44.7981L47.7668 45.4714L47.6775 44.1065L52.2913 38.4163C54.0397 36.2459 54.6968 35.0921 54.6028 33.6567C54.4996 32.0801 53.3212 31.0466 51.6975 31.1529C49.9327 31.2684 48.8316 32.4985 48.9472 34.2633L46.6176 34.4159C46.425 31.4745 48.4983 29.2118 51.6515 29.0054C54.6164 28.8112 56.9076 30.5991 57.0786 33.211C57.1973 35.0229 56.5981 36.3383 54.1679 39.286L51.2049 43.1194L57.9113 42.6803ZM70.4582 41.8588L70.5969 43.9766L60.3138 44.6499L60.2244 43.285L64.8382 37.5948C66.5867 35.4244 67.2437 34.2706 67.1497 32.8352C67.0465 31.2586 65.8681 30.2251 64.2445 30.3314C62.4796 30.4469 61.3786 31.677 61.4941 33.4418L59.1645 33.5944C58.9719 30.653 61.0452 28.3903 64.1984 28.1839C67.1633 27.9897 69.4545 29.7776 69.6256 32.3895C69.7442 34.2014 69.145 35.5168 66.7148 38.4645L63.7518 42.2979L70.4582 41.8588ZM78.7296 38.0087L71.4114 38.4879L71.2712 36.3465L78.5894 35.8674L78.7296 38.0087ZM90.1059 40.5723L90.2446 42.6901L79.9614 43.3634L79.8721 41.9986L84.4859 36.3084C86.2343 34.1379 86.8914 32.9842 86.7974 31.5488C86.6942 29.9722 85.5158 28.9386 83.8921 29.045C82.1273 29.1605 81.0262 30.3906 81.1418 32.1554L78.8122 32.3079C78.6196 29.3665 80.6929 27.1039 83.8461 26.8974C86.811 26.7033 89.1022 28.4911 89.2732 31.1031C89.3919 32.915 88.7927 34.2304 86.3625 37.1781L83.3995 41.0114L90.1059 40.5723ZM91.9185 34.6165C91.5734 29.3455 93.4751 26.267 97.2401 26.0205C101.005 25.774 103.316 28.5767 103.661 33.8477C104.006 39.1187 102.125 42.1486 98.3125 42.3982C94.5004 42.6478 92.2637 39.8875 91.9185 34.6165ZM94.3658 34.4563C94.6231 38.386 95.9368 40.4032 98.1723 40.2569C100.408 40.1105 101.472 37.9612 101.213 34.0079C100.953 30.0312 99.6158 28.0155 97.3803 28.1618C95.1919 28.3051 94.1054 30.4795 94.3658 34.4563ZM116.693 38.8315L116.832 40.9493L106.549 41.6226L106.46 40.2578L111.073 34.5676C112.822 32.3971 113.479 31.2434 113.385 29.808C113.282 28.2314 112.103 27.1978 110.48 27.3041C108.715 27.4197 107.614 28.6498 107.729 30.4146L105.4 30.5671C105.207 27.6257 107.28 25.3631 110.434 25.1566C113.399 24.9625 115.69 26.7503 115.861 29.3623C115.979 31.1742 115.38 32.4896 112.95 35.4373L109.987 39.2706L116.693 38.8315ZM124.454 40.663C121.16 40.8787 118.727 39.1001 118.52 36.3014L120.85 36.1489C121.057 37.8605 122.4 38.8833 124.329 38.7569C126.329 38.626 127.482 37.4634 127.37 35.7456C127.26 34.0749 125.803 33.1069 123.614 33.2502L121.967 33.3581L121.842 31.452L123.372 31.3519C125.16 31.2348 126.269 30.1224 126.167 28.5693C126.069 27.0633 124.944 26.1208 123.343 26.2256C121.72 26.3319 120.705 27.4381 120.741 29.0664L118.435 29.2174C118.334 26.6008 120.418 24.5029 123.313 24.3134C126.372 24.1131 128.464 25.7485 128.627 28.2428C128.729 29.7959 127.893 31.1031 126.297 31.9875C128.428 32.4151 129.717 33.7014 129.837 35.5368C130.022 38.3606 127.843 40.4411 124.454 40.663Z" fill="black"/>
</g>
<defs>
<clipPath id="clip0_745_5074">
<rect width="160.336" height="66.5396" fill="white" transform="translate(0 0.730469)"/>
</clipPath>
</defs>
</svg>
