<svg width="161" height="68" viewBox="0 0 161 68" fill="none" xmlns="http://www.w3.org/2000/svg">
<g clip-path="url(#clip0_745_4885)">
<path d="M154.244 6.04049L4.21582 14.875L7.06484 63.2574L157.093 54.4229L154.244 6.04049Z" fill="white" stroke="black" stroke-width="1.55466" stroke-miterlimit="10"/>
<path d="M7.37214 11.1994L0.808105 11.5859L1.19463 18.15L7.75866 17.7634L7.37214 11.1994Z" fill="white" stroke="black" stroke-width="1.52521" stroke-miterlimit="10"/>
<path d="M10.2169 59.5119L3.65283 59.8984L4.03936 66.4625L10.6034 66.0759L10.2169 59.5119Z" fill="white" stroke="black" stroke-width="1.52521" stroke-miterlimit="10"/>
<path d="M156.295 1.54511L149.731 1.93164L150.117 8.49567L156.682 8.10915L156.295 1.54511Z" fill="white" stroke="black" stroke-width="1.52521" stroke-miterlimit="10"/>
<path d="M159.14 49.8576L152.576 50.2441L152.963 56.8082L159.527 56.4217L159.14 49.8576Z" fill="white" stroke="black" stroke-width="1.52521" stroke-miterlimit="10"/>
<path d="M31.3238 44.4211L31.4624 46.5389L21.1793 47.2122L21.0899 45.8474L25.7037 40.1571C27.4522 37.9867 28.1092 36.8329 28.0152 35.3975C27.912 33.8209 26.7336 32.7874 25.11 32.8937C23.3451 33.0092 22.2441 34.2393 22.3596 36.0042L20.03 36.1567C19.8374 33.2153 21.9107 30.9526 25.0639 30.7462C28.0288 30.5521 30.3201 32.3399 30.4911 34.9518C30.6097 36.7638 30.0105 38.0791 27.5803 41.0268L24.6173 44.8602L31.3238 44.4211ZM33.1364 38.4653C32.7913 33.1943 34.693 30.1157 38.458 29.8692C42.223 29.6227 44.5334 32.4254 44.8785 37.6964C45.2236 42.9674 43.3424 45.9974 39.5303 46.247C35.7182 46.4966 33.4815 43.7363 33.1364 38.4653ZM35.5836 38.305C35.8409 42.2347 37.1546 44.252 39.3901 44.1056C41.6256 43.9593 42.6901 41.8099 42.4312 37.8567C42.1709 33.8799 40.8336 31.8642 38.5982 32.0106C36.4098 32.1538 35.3233 34.3282 35.5836 38.305ZM57.9113 42.6803L58.05 44.7981L47.7668 45.4714L47.6775 44.1065L52.2913 38.4163C54.0397 36.2459 54.6968 35.0921 54.6028 33.6567C54.4996 32.0801 53.3212 31.0466 51.6975 31.1529C49.9327 31.2684 48.8316 32.4985 48.9472 34.2633L46.6176 34.4159C46.425 31.4745 48.4983 29.2118 51.6515 29.0054C54.6164 28.8112 56.9076 30.5991 57.0786 33.211C57.1973 35.0229 56.5981 36.3383 54.1679 39.286L51.2049 43.1194L57.9113 42.6803ZM65.672 44.5117C62.3776 44.7274 59.9452 42.9488 59.7383 40.1502L62.0679 39.9976C62.2745 41.7093 63.6176 42.732 65.5472 42.6057C67.5473 42.4747 68.7001 41.3122 68.5876 39.5944C68.4782 37.9237 67.0205 36.9557 64.8321 37.099L63.185 37.2068L63.0602 35.3008L64.5897 35.2006C66.3781 35.0835 67.4868 33.9711 67.3851 32.4181C67.2865 30.9121 66.1614 29.9695 64.5613 30.0743C62.9376 30.1806 61.923 31.2869 61.9587 32.9151L59.6526 33.0661C59.5522 30.4495 61.6362 28.3516 64.5306 28.1621C67.5897 27.9618 69.6818 29.5973 69.8451 32.0916C69.9468 33.6446 69.1108 34.9519 67.5144 35.8363C69.6457 36.2639 70.9351 37.5501 71.0553 39.3856C71.2402 42.2093 69.0605 44.2899 65.672 44.5117ZM80.1543 37.9154L72.8361 38.3946L72.6959 36.2532L80.0141 35.7741L80.1543 37.9154ZM91.5307 40.479L91.6693 42.5969L81.3862 43.2701L81.2968 41.9053L85.9106 36.2151C87.6591 34.0446 88.3161 32.8909 88.2222 31.4555C88.1189 29.8789 86.9405 28.8454 85.3169 28.9517C83.552 29.0672 82.451 30.2973 82.5665 32.0621L80.2369 32.2147C80.0443 29.2733 82.1176 27.0106 85.2708 26.8042C88.2357 26.61 90.527 28.3979 90.698 31.0098C90.8166 32.8217 90.2174 34.1371 87.7872 37.0848L84.8243 40.9181L91.5307 40.479ZM93.3433 34.5232C92.9982 29.2522 94.8999 26.1737 98.6649 25.9272C102.43 25.6807 104.74 28.4834 105.085 33.7544C105.431 39.0254 103.549 42.0553 99.7372 42.3049C95.9251 42.5545 93.6884 39.7942 93.3433 34.5232ZM95.7905 34.363C96.0478 38.2927 97.3615 40.31 99.597 40.1636C101.832 40.0172 102.897 37.8679 102.638 33.9147C102.378 29.9379 101.041 27.9222 98.8051 28.0685C96.6167 28.2118 95.5302 30.3862 95.7905 34.363ZM118.118 38.7382L118.257 40.856L107.974 41.5293L107.884 40.1645L112.498 34.4743C114.247 32.3038 114.904 31.1501 114.81 29.7147C114.706 28.1381 113.528 27.1045 111.904 27.2109C110.14 27.3264 109.039 28.5565 109.154 30.3213L106.824 30.4738C106.632 27.5324 108.705 25.2698 111.858 25.0633C114.823 24.8692 117.115 26.657 117.286 29.269C117.404 31.0809 116.805 32.3963 114.375 35.344L111.412 39.1773L118.118 38.7382ZM131.384 36.4754L129.219 36.6171L129.449 40.1233L127.072 40.2789L126.843 36.7727L119.195 37.2734L119.086 35.6027L126.572 24.3363L128.407 24.2161L129.084 34.5463L131.249 34.4046L131.384 36.4754ZM121.719 35.0286L126.707 34.702L126.266 27.972L121.719 35.0286Z" fill="black"/>
</g>
<defs>
<clipPath id="clip0_745_4885">
<rect width="160.336" height="66.5396" fill="white" transform="translate(0 0.730469)"/>
</clipPath>
</defs>
</svg>
