<svg width="82" height="18" viewBox="0 0 82 18" fill="none" xmlns="http://www.w3.org/2000/svg">
<path d="M17.8704 7.25102C19.0278 13.3644 13.7638 18.6284 7.65044 17.471C4.23444 16.827 1.4811 14.0644 0.827771 10.6484C-0.329562 4.53502 4.93445 -0.728976 11.0478 0.428358C14.4638 1.07236 17.2171 3.83502 17.8704 7.25102Z" fill="#B90064"/>
<path d="M49.6223 7.25102C50.7797 13.3644 45.5157 18.6284 39.4024 17.471C35.9864 16.827 33.2331 14.0644 32.5797 10.6484C31.4224 4.53502 36.6863 -0.728976 42.7997 0.428358C46.2157 1.07236 48.969 3.83502 49.6223 7.25102Z" fill="#DADADA"/>
<path d="M81.3744 7.25102C82.5317 13.3644 77.2677 18.6284 71.1543 17.471C67.7383 16.827 64.985 14.0644 64.3317 10.6484C63.1743 4.53502 68.4384 -0.728976 74.5517 0.428358C77.9677 1.07236 80.721 3.83502 81.3744 7.25102Z" fill="#D35E5E"/>
</svg>
