<svg width="82" height="18" viewBox="0 0 82 18" fill="none" xmlns="http://www.w3.org/2000/svg">
<path d="M17.8704 7.25102C19.0278 13.3644 13.7638 18.6284 7.65044 17.471C4.23444 16.827 1.4811 14.0644 0.827771 10.6484C-0.329562 4.53502 4.93445 -0.728976 11.0478 0.428358C14.4638 1.07236 17.2171 3.83502 17.8704 7.25102Z" fill="#006BF9"/>
<path d="M49.6223 7.25127C50.7797 13.3646 45.5157 18.6286 39.4024 17.4713C35.9864 16.8273 33.2331 14.0646 32.5797 10.6486C31.4224 4.53527 36.6863 -0.728732 42.7997 0.428602C46.2157 1.0726 48.969 3.83527 49.6223 7.25127Z" fill="#DADADA"/>
<path d="M81.3744 7.25127C82.5317 13.3646 77.2677 18.6286 71.1543 17.4713C67.7383 16.8273 64.985 14.0646 64.3317 10.6486C63.1743 4.53527 68.4384 -0.728732 74.5517 0.428602C77.9677 1.0726 80.721 3.83527 81.3744 7.25127Z" fill="black"/>
</svg>
