<svg width="142" height="150" viewBox="0 0 142 150" fill="none" xmlns="http://www.w3.org/2000/svg">
<g id="Isolation_Mode" clip-path="url(#clip0_529_8269)">
<g id="Group">
<path id="Vector" d="M122.169 19.8545C128.68 44.666 135.178 69.4652 141.688 94.2767C141.675 94.4631 141.613 94.6619 141.638 94.8359C143.042 103.806 137.638 114.752 125.486 117.883C101.607 124.021 77.7891 130.357 53.9342 136.594C52.6048 136.942 51.2506 137.253 49.8963 137.365C39.2859 138.247 30.3651 131.923 27.669 121.623C21.5686 98.4017 15.4807 75.1928 9.40514 51.9716C6.386 40.4542 12.6976 29.3095 24.1778 26.2531C48.5172 19.7799 72.8815 13.4186 97.2582 7.08219C106.813 4.5973 116.243 8.77191 120.889 17.3075C121.337 18.1399 121.747 18.9972 122.169 19.8545Z" fill="black"/>
<path id="Vector_2" d="M115.1 15.0589C121.61 39.8704 128.108 64.6696 134.619 89.4811C134.606 89.6675 134.544 89.8663 134.569 90.0402C135.973 99.0106 130.568 109.957 118.417 113.088C94.5374 119.225 70.7198 125.562 46.8649 131.799C45.5355 132.147 44.1812 132.457 42.827 132.569C32.2165 133.451 23.2958 127.127 20.5997 116.827C14.4993 93.6184 8.41134 70.3972 2.3358 47.176C-0.683334 35.6585 5.62827 24.5138 17.1084 21.4574C41.4479 14.9967 65.8246 8.62301 90.2013 2.29898C99.7557 -0.185899 109.186 3.98871 113.833 12.5243C114.28 13.3567 114.69 14.214 115.112 15.0713L115.1 15.0589Z" fill="#F15600" stroke="black" stroke-width="3.16823" stroke-miterlimit="10"/>
</g>
<path id="Vector_3" d="M102.042 102.885C114.081 111.558 126.046 120.155 138.122 128.84C133.562 129.685 129.127 130.517 124.604 131.35C127.089 135.549 129.525 139.687 131.985 143.861C129.139 145.538 126.307 147.216 123.424 148.918C120.964 144.756 118.516 140.606 116.032 136.407C113.137 139.935 110.267 143.426 107.347 146.98C105.57 132.269 103.806 117.621 102.029 102.873L102.042 102.885Z" fill="black" stroke="white" stroke-width="1.59033" stroke-miterlimit="10"/>
<g id="white logo">
<path id="Rectangle 7" d="M38.323 51.9825C36.4877 46.0778 39.7867 39.8033 45.6915 37.968L56.383 34.6451L63.0289 56.028L52.3374 59.351C46.4327 61.1862 40.1582 57.8872 38.323 51.9825V51.9825Z" stroke="white" stroke-width="2.2392"/>
<path id="Rectangle 8" d="M81.0891 38.6895C79.2539 32.7848 72.9794 29.4858 67.0746 31.321L56.3831 34.644L63.0291 56.027L73.7206 52.704C79.6253 50.8688 82.9243 44.5943 81.0891 38.6895V38.6895Z" stroke="white" stroke-width="2.2392"/>
<path id="Rectangle 9" d="M87.7348 60.0743C85.8996 54.1696 79.6251 50.8706 73.7204 52.7058V52.7058C67.8156 54.541 64.5166 60.8155 66.3519 66.7203V66.7203C68.1871 72.625 74.4616 75.924 80.3663 74.0888V74.0888C86.2711 72.2535 89.5701 65.979 87.7348 60.0743V60.0743Z" stroke="white" stroke-width="2.2392"/>
<path id="Rectangle 10" d="M44.969 73.3653C43.1337 67.4606 46.4327 61.1861 52.3375 59.3509L63.029 56.0279L69.6749 77.4109L58.9834 80.7338C53.0787 82.5691 46.8042 79.2701 44.969 73.3653V73.3653Z" stroke="white" stroke-width="2.2392"/>
<path id="Rectangle 11" d="M51.6147 94.7481C49.7795 88.8434 53.0785 82.5689 58.9832 80.7337L69.6747 77.4107L72.9977 88.1022C74.8329 94.0069 71.5339 100.281 65.6292 102.117V102.117C59.7244 103.952 53.45 100.653 51.6147 94.7481V94.7481Z" stroke="white" stroke-width="2.2392"/>
</g>
</g>
<defs>
<clipPath id="clip0_529_8269">
<rect width="141.85" height="150" fill="white"/>
</clipPath>
</defs>
</svg>
