<svg width="83" height="83" viewBox="0 0 83 83" fill="none" xmlns="http://www.w3.org/2000/svg">
<g id="Light-Bulb--Streamline-Fun-Stickers">
<path id="Vector" d="M30.5317 56.6106H32.1765C32.1767 56.305 32.0918 56.0054 31.9313 55.7454C31.7708 55.4854 31.541 55.2752 31.2678 55.1385L30.5317 56.6106ZM30.5811 54.5283L32.2226 54.6114L30.5803 54.5283H30.5811ZM30.7908 58.5078L29.1526 58.6575C29.1733 58.8839 29.2407 59.1036 29.3506 59.3027C29.4605 59.5018 29.6105 59.6759 29.7911 59.8141C29.9717 59.9523 30.179 60.0515 30.3999 60.1055C30.6208 60.1595 30.8505 60.1672 31.0745 60.1279L30.79 58.5078H30.7908ZM47.6093 57.877L47.4794 59.5169C47.7057 59.5348 47.9332 59.5057 48.1476 59.4314C48.3621 59.3572 48.5589 59.2393 48.7256 59.0853C48.8923 58.9312 49.0253 58.7444 49.1162 58.5364C49.2072 58.3285 49.2541 58.104 49.2541 57.877H47.6093ZM68.3087 28.1084L69.9518 28.1931V28.1833L68.3095 28.1092L68.3087 28.1084ZM67.2791 20.7752L65.6861 21.1856L67.2783 20.7752H67.2791ZM63.7108 14.1156L62.3555 15.0473L62.358 15.0506L63.7108 14.1156ZM56.2592 7.97238L57.0034 6.50525L56.9977 6.50278L56.2592 7.97238ZM27.4807 9.35974L28.1978 10.84L28.2134 10.8318L27.4807 9.35974ZM20.1467 14.6723L21.428 15.7028L21.4296 15.702L20.1467 14.6715V14.6723ZM14.8349 24.3436L16.3859 24.8913L16.3876 24.8888L14.8357 24.3436H14.8349ZM14.4788 37.5042L16.0356 36.9745L16.0331 36.9663L14.4788 37.5042ZM17.2141 42.9746L15.9139 43.9821L17.2132 42.9746H17.2141ZM28.6699 50.6647L27.7266 52.0126L27.7447 52.025L28.6699 50.6647ZM31.2686 55.1401C31.4791 55.2458 31.6644 55.3956 31.8117 55.5794C31.9591 55.7632 32.065 55.9766 32.1222 56.2051C32.1469 56.3088 32.1543 56.3861 32.1551 56.3943C32.1576 56.4255 32.1559 56.4264 32.1551 56.3729C32.1551 56.2775 32.1576 56.1245 32.1642 55.9222C32.1773 55.525 32.2028 55.0258 32.2234 54.6122L28.9388 54.4461C28.9182 54.8523 28.8911 55.3811 28.8763 55.812C28.8697 56.025 28.8648 56.2364 28.8664 56.4058C28.8664 56.4847 28.8697 56.5933 28.8796 56.701C28.8967 56.9141 28.9524 57.1222 29.044 57.3153C29.0876 57.4058 29.2908 57.8285 29.7973 58.0818L31.2686 55.1401ZM32.2481 57.2808C32.2269 57.2032 32.2105 57.1244 32.1987 57.0448C32.1821 56.9009 32.175 56.7562 32.1773 56.6114H28.8878C28.8878 57.354 28.9659 57.7101 29.0539 58.067L32.2481 57.2808ZM32.429 58.359C32.3989 57.9951 32.3384 57.6345 32.2481 57.2808L29.0539 58.067C29.0786 58.1657 29.0934 58.2274 29.1082 58.3071C29.1222 58.3853 29.1386 58.4938 29.1534 58.6583L32.4298 58.359H32.429ZM31.0753 60.1287C35.4726 59.3598 43.078 59.169 47.4802 59.5177L47.7401 56.2388C43.1257 55.8729 35.2349 56.062 30.5079 56.8885L31.0753 60.1287ZM48.1052 50.2782C46.3297 52.3819 45.9646 55.3836 45.9654 57.8787L49.2549 57.8779C49.2549 55.5176 49.6431 53.5562 50.6193 52.3991L48.1052 50.2782ZM55.7888 43.3603C53.144 45.4393 50.3323 47.6417 48.1052 50.2774L50.6184 52.4C52.5905 50.066 55.1226 48.0677 57.8209 45.9459L55.7879 43.3603H55.7888ZM66.6672 28.0254C66.3103 34.9852 61.4443 38.9137 55.7888 43.3603L57.8209 45.9459C63.2708 41.6621 69.5069 36.8643 69.9527 28.194L66.6672 28.0254ZM65.687 21.1873C66.3169 23.6297 66.7742 25.6832 66.6672 28.0352L69.9535 28.1841C70.0842 25.3033 69.5102 22.8386 68.872 20.3649L65.687 21.1873ZM62.7009 15.5457C64.0907 17.5457 65.1475 19.0935 65.6861 21.1864L68.872 20.3657C68.1656 17.6222 66.7585 15.6205 65.4024 13.669L62.7009 15.5449V15.5457ZM62.3588 15.0523L62.7009 15.5457L65.4024 13.669L65.0652 13.1814L62.3588 15.0515V15.0523ZM55.5157 9.43951C58.0988 10.7496 60.8185 12.8113 62.3563 15.0482L65.0669 13.1846C63.117 10.3474 59.89 7.96991 57.0034 6.50525L55.5149 9.43951H55.5157ZM28.2134 10.8326C36.6108 6.65246 47.1398 5.2322 55.5215 9.4428L56.9977 6.50278C47.3815 1.67293 35.7119 3.4246 26.7471 7.88685L28.2126 10.831L28.2134 10.8326ZM21.4288 15.7011C22.9806 13.771 25.7266 12.0366 28.197 10.84L26.7636 7.87945C24.1607 9.14016 20.8811 11.1328 18.8654 13.6411L21.4288 15.702V15.7011ZM16.3876 24.8888C17.6392 21.3213 19.099 18.5959 21.4288 15.7028L18.8662 13.6402C16.2798 16.8516 14.6474 19.9142 13.2831 23.7991L16.3876 24.8888ZM16.0331 36.9663C14.7535 33.2713 15.0537 28.6668 16.3868 24.8913L13.2839 23.7967C11.7625 28.1068 11.3497 33.4926 12.9245 38.0428L16.0331 36.9663ZM18.5134 41.9672C17.4493 40.5938 16.6474 38.7723 16.0356 36.9745L12.9212 38.0346C13.5775 39.9622 14.5199 42.1843 15.9139 43.9821L18.5134 41.9672ZM25.3211 46.8004C22.5135 45.2954 20.0439 43.9409 18.5134 41.9672L15.9139 43.9821C17.9534 46.6137 21.1122 48.2765 23.7676 49.7001L25.3219 46.8004H25.3211ZM29.6131 49.3169C28.2784 48.3834 26.757 47.5701 25.3211 46.8004L23.7668 49.7001C25.2413 50.4896 26.5818 51.2108 27.7266 52.0126L29.6131 49.3177V49.3169ZM32.2571 53.8358C32.2571 52.8235 31.8624 51.8901 31.3936 51.1647C30.9213 50.4332 30.3099 49.8014 29.5942 49.3053L27.7447 52.025C28.0506 52.233 28.3837 52.5669 28.6312 52.9501C28.8861 53.3449 28.9676 53.6599 28.9676 53.8367H32.2571V53.8358ZM32.2242 54.6122C32.239 54.3079 32.2571 53.9724 32.2571 53.8358H28.9676L28.9659 53.8704L28.9602 54.0085L28.9388 54.4461L32.2234 54.6122H32.2242Z" fill="#292524"/>
<path id="Vector_2" d="M32.5934 74.647C27.8367 72.5466 27.6936 64.4741 27.1385 60.1533C26.7972 57.4978 48.8461 57.0866 50.986 58.5135C51.9778 59.1878 51.7393 60.9716 51.819 61.9231C52.0164 64.0234 52.0567 66.1641 51.898 68.2653C51.7796 69.4544 51.9375 71.04 51.1447 72.0318C50.273 73.1009 48.0525 73.5367 46.7844 73.8147C42.6618 74.7662 36.7554 76.471 32.5934 74.6478V74.647Z" fill="#292524"/>
<path id="Vector_3" d="M32.5934 74.647C27.8367 72.5466 27.6936 64.4741 27.1385 60.1533C26.7972 57.4978 48.8461 57.0866 50.986 58.5135C51.9778 59.1878 51.7393 60.9716 51.819 61.9231C52.0164 64.0234 52.0567 66.1641 51.898 68.2653C51.7796 69.4544 51.9375 71.04 51.1447 72.0318C50.273 73.1009 48.0525 73.5367 46.7844 73.8147C42.6618 74.7662 36.7554 76.471 32.5934 74.6478V74.647Z" stroke="#292524" stroke-width="0.328953" stroke-miterlimit="2.725" stroke-linecap="round" stroke-linejoin="round"/>
<path id="Vector_4" fill-rule="evenodd" clip-rule="evenodd" d="M32.7901 32.1656C33.2782 31.2043 33.9004 30.3171 34.638 29.5307C34.3365 29.476 34.0314 29.443 33.7251 29.432C31.9299 29.3629 30.0022 29.9937 28.6116 31.0315C27.9956 31.5357 27.4989 32.1746 27.0688 32.9658C26.4569 34.1393 26.3747 35.1328 26.5638 36.0111C26.7628 36.9305 27.29 37.859 28.1132 38.8006C29.7777 40.7028 32.3065 42.2858 34.4686 43.6395L34.5368 43.6822L34.5557 43.6938C34.9258 43.9322 35.2827 44.1074 35.7252 44.3245C35.9044 44.4125 36.0977 44.5071 36.3115 44.6157C36.9883 44.9594 37.7844 45.4076 38.5032 46.1231C39.0739 46.679 39.3387 47.4167 39.4802 47.9751C39.634 48.5795 39.7055 49.2333 39.74 49.8304C39.791 50.6922 39.7705 51.6372 39.7565 52.2605C39.7524 52.4711 39.7483 52.6446 39.7483 52.7663C39.7483 52.8864 39.7335 53.2186 39.7154 53.6298C39.6956 54.0796 39.6718 54.6265 39.6578 55.0961C39.6425 55.5406 39.639 55.9853 39.6471 56.43C39.652 56.5945 39.6586 56.7121 39.6668 56.7877C39.7713 57.1044 39.7738 57.4374 39.6866 57.7458C38.6413 57.7762 37.5895 57.8231 36.5656 57.8864C36.4807 57.6653 36.4257 57.4338 36.402 57.1981L36.4012 57.1874C36.3778 56.9655 36.3638 56.7427 36.3592 56.5196C36.3492 56.013 36.3528 55.5063 36.3699 54.9999C36.3855 54.4768 36.4086 53.9538 36.4275 53.5401L36.4324 53.4119C36.4411 53.2208 36.4493 53.0297 36.4571 52.8387L36.4579 52.8058V52.7852V52.7663C36.4579 52.536 36.4645 52.2868 36.4702 52.0204C36.4834 51.4225 36.499 50.7416 36.4563 50.0236C36.4275 49.5253 36.3724 49.1026 36.2918 48.7835C36.2657 48.6673 36.2265 48.5545 36.175 48.4471C35.8288 48.1042 35.4036 47.8443 34.8214 47.5483C34.6875 47.481 34.5532 47.4146 34.4184 47.3492C33.9299 47.1108 33.3263 46.8147 32.7819 46.4644L32.5656 46.3295C30.5104 45.0441 27.628 43.2406 25.6378 40.9667C24.5876 39.7669 23.7028 38.3466 23.3483 36.7043C22.9865 35.0234 23.2101 33.2454 24.1592 31.4304L24.1707 31.4098C24.7645 30.3128 25.5276 29.2963 26.5638 28.4575L26.6091 28.4213C28.5869 26.9328 31.2654 26.0446 33.851 26.1441C35.1873 26.1959 36.5327 26.5166 37.7392 27.1754C40.4884 25.7633 43.8166 25.561 46.9088 27.5117L46.9145 27.515L47.0379 27.594C47.4408 27.8489 47.9754 28.1886 48.4779 28.5726C49.0182 28.9863 49.6489 29.5455 50.084 30.2536C50.4035 30.7698 50.6592 31.3229 50.8455 31.9008C51.218 31.8967 51.5725 31.9115 51.8981 31.9436L51.913 31.9452L51.9286 31.9468C53.311 32.1064 54.8234 32.8465 55.7477 33.3934C56.0547 33.5832 56.3507 33.7902 56.6343 34.0135C56.7667 34.1188 57.0833 34.3729 57.3004 34.6895C57.3637 34.7824 57.4731 34.9576 57.5455 35.1953C57.6178 35.4321 57.7001 35.8902 57.4731 36.3951C57.38 36.6017 57.2465 36.7876 57.0806 36.942C56.9146 37.0963 56.7196 37.216 56.5068 37.294C56.3002 37.3691 56.0819 37.407 55.862 37.4058C55.5407 37.4059 55.2264 37.3119 54.9579 37.1353C54.6894 36.9588 54.4786 36.7074 54.3513 36.4124C54.2701 36.3547 54.1878 36.2985 54.1046 36.2438L54.0882 36.2339L54.0742 36.2257C53.26 35.7446 52.2436 35.2989 51.5651 35.2158C51.4977 35.2097 51.4303 35.2047 51.3628 35.201C51.3685 36.8935 50.9861 38.7948 49.9047 40.1814L49.903 40.1847C48.9746 41.3689 47.3652 42.035 45.9293 42.0284C45.1768 42.0243 44.3289 41.836 43.6069 41.2891C42.8552 40.72 42.3939 39.8779 42.2615 38.8795C42.0559 37.4535 42.3972 36.1936 43.1217 35.1681C43.8207 34.1788 44.8141 33.4872 45.8166 33.011C46.3545 32.7561 46.926 32.548 47.5058 32.3843C47.4405 32.244 47.3657 32.1083 47.2821 31.9781C47.1629 31.7807 46.9071 31.5126 46.4786 31.1853C46.0979 30.8942 45.685 30.6319 45.2665 30.3654L45.1513 30.2922C43.662 29.3547 41.986 29.1935 40.4243 29.6327C40.5254 29.7832 40.6216 29.9386 40.7162 30.0998L40.722 30.1105C41.7532 31.9213 42.3092 34.2224 41.81 36.2224C41.5526 37.2578 40.9991 38.2455 40.0525 38.9634C39.1093 39.6789 37.9144 40.0218 36.5574 40.0218C35.4809 40.0218 34.5319 39.6888 33.7835 39.0629C33.0549 38.4544 32.6149 37.6525 32.3764 36.8589C31.9126 35.3194 32.1133 33.5201 32.7876 32.1714L32.7901 32.1656ZM35.5262 35.9116C35.3156 35.2125 35.4127 34.2775 35.7285 33.6451C36.1814 32.7441 36.796 31.934 37.5418 31.2552C37.6569 31.4082 37.7655 31.571 37.8667 31.7437C38.6158 33.0628 38.8535 34.4864 38.6183 35.428C38.5098 35.8639 38.314 36.1525 38.064 36.3425C37.8116 36.5349 37.3609 36.7323 36.5574 36.7323C36.1873 36.7323 36.0015 36.6295 35.8921 36.5382C35.7646 36.4313 35.624 36.238 35.5262 35.9116ZM39.6792 56.8724C39.6756 56.8604 39.6731 56.848 39.6718 56.8354C39.675 56.8476 39.6772 56.8599 39.6784 56.8724H39.6792ZM54.0684 36.2224L54.0734 36.2257L54.0692 36.2216L54.0684 36.2224ZM47.2262 35.9831C47.4974 35.8554 47.7765 35.745 48.0617 35.6525C48.0033 36.7496 47.713 37.641 47.3117 38.1567C47.2213 38.2718 47.0354 38.428 46.7541 38.5539C46.5002 38.671 46.2246 38.7341 45.9449 38.7389C45.7015 38.7381 45.6045 38.6764 45.5921 38.6665C45.5888 38.6641 45.5839 38.6608 45.5757 38.6452C45.5455 38.5819 45.5271 38.5136 45.5214 38.4437C45.5201 38.4341 45.5187 38.4245 45.5173 38.4149C45.4309 37.8252 45.5642 37.4108 45.8076 37.0662C46.079 36.6813 46.5485 36.3046 47.227 35.9831H47.2262Z" fill="#292524"/>
</g>
</svg>
