<svg width="88" height="20" viewBox="0 0 88 20" fill="none" xmlns="http://www.w3.org/2000/svg">
<g id="Group">
<path id="Vector" d="M19.1999 8.33968C20.4399 14.8897 14.7998 20.5297 8.24984 19.2897C4.58984 18.5997 1.63984 15.6397 0.939841 11.9797C-0.300159 5.42968 5.33985 -0.210314 11.8899 1.02969C15.5499 1.71969 18.4999 4.67968 19.1999 8.33968Z" fill="#F2620F"/>
<path id="Vector_2" d="M53.2198 8.33968C54.4598 14.8897 48.8199 20.5297 42.2699 19.2897C38.6099 18.5997 35.6599 15.6397 34.9599 11.9797C33.7199 5.42968 39.3598 -0.210314 45.9098 1.02969C49.5698 1.71969 52.5198 4.67968 53.2198 8.33968Z" fill="#DADADA"/>
<path id="Vector_3" d="M87.2399 8.33968C88.4799 14.8897 82.8399 20.5297 76.2899 19.2897C72.6299 18.5997 69.6799 15.6397 68.9799 11.9797C67.7399 5.42968 73.3799 -0.210314 79.9299 1.02969C83.5899 1.71969 86.5399 4.67968 87.2399 8.33968Z" fill="black"/>
</g>
</svg>
