<svg width="157" height="185" viewBox="0 0 157 185" fill="none" xmlns="http://www.w3.org/2000/svg">
<g clip-path="url(#clip0_745_5096)">
<path d="M27.3737 82.4258L0.892304 155.038C-0.674386 159.346 14.6661 168.92 35.1854 176.384C55.7047 183.869 73.5911 186.415 75.1795 182.106L101.661 109.495L27.3955 82.4258H27.3737Z" fill="#FF5500" stroke="black" stroke-width="1.56669" stroke-miterlimit="10"/>
<path d="M101.639 109.494C100.072 113.802 82.1642 111.256 61.6449 103.771C41.1256 96.2858 25.7851 86.7333 27.3518 82.4249C28.9185 78.1165 46.8266 80.6624 67.3459 88.1477C87.8652 95.633 103.206 105.185 101.639 109.494Z" fill="#1E1E1E" stroke="black" stroke-width="1.56669" stroke-miterlimit="10"/>
<path d="M34.0972 82.7937C34.0972 82.7937 44.7158 81.9669 69.3695 90.8665" stroke="white" stroke-width="0.783345" stroke-miterlimit="10" stroke-linecap="round"/>
<path d="M71.6323 91.7812C71.6323 91.7812 90.5196 99.3753 98.3313 106.643" stroke="white" stroke-width="0.783345" stroke-miterlimit="10" stroke-linecap="round"/>
<path d="M41.5826 95.1992C41.5826 95.1992 41.5609 95.2863 41.5391 95.3298L15.1665 167.637" stroke="black" stroke-width="1.56669" stroke-miterlimit="10" stroke-linecap="round"/>
<path d="M82.8823 110.258C82.8823 110.258 82.9258 110.454 82.9258 110.541L56.749 182.369" stroke="black" stroke-width="1.56669" stroke-miterlimit="10" stroke-linecap="round"/>
<path d="M96.8738 115.348L96.5474 116.218" stroke="black" stroke-width="0.783345" stroke-miterlimit="10" stroke-linecap="round"/>
<path d="M95.8511 117.764L74.7661 175.622" stroke="black" stroke-width="0.783345" stroke-miterlimit="10" stroke-linecap="round"/>
<path d="M48.6763 101.27C48.6763 101.27 65.4529 109.321 78.4434 111.431" stroke="black" stroke-width="0.783345" stroke-miterlimit="10" stroke-linecap="round"/>
<mask id="mask0_745_5096" style="mask-type:luminance" maskUnits="userSpaceOnUse" x="21" y="0" width="136" height="111">
<path d="M30.246 86.9513C30.246 86.9513 57.9025 107.384 92.5437 110.952L100.138 110.473C100.138 110.473 138.674 80.2276 138.587 77.7905C138.522 75.3317 162.066 26.9601 154.82 24.1531C147.574 21.3462 36.6651 0 36.6651 0L21.9121 39.9506L30.2243 86.9296L30.246 86.9513Z" fill="white"/>
</mask>
<g mask="url(#mask0_745_5096)">
<path d="M56.9235 50.638L45.2386 134.761L34.6199 152.908L28.9624 132.498L40.6473 48.375L56.9235 50.638Z" fill="#FF9E00" stroke="black" stroke-width="1.56669" stroke-miterlimit="10"/>
<path d="M45.9133 49.5039L34.3154 133.039" stroke="black" stroke-width="0.783345" stroke-miterlimit="10" stroke-linecap="round"/>
<path d="M51.5493 50.2891L39.9297 133.824" stroke="black" stroke-width="0.783345" stroke-miterlimit="10" stroke-linecap="round"/>
<path d="M41.8806 43.2791L57.0967 45.3932C58.4976 45.5879 59.4812 46.8889 59.2866 48.2898L59.2596 48.4838C59.065 49.8847 57.764 50.8683 56.3631 50.6736L41.1469 48.5595C39.746 48.3649 38.7625 47.0639 38.9571 45.663L38.9841 45.469C39.1787 44.0681 40.4797 43.0845 41.8806 43.2791Z" fill="#88C7DD" stroke="black" stroke-width="1.56669" stroke-miterlimit="10"/>
<path d="M48.1928 32.4747L54.0335 33.2862C56.9 33.6844 58.9258 36.3385 58.5246 39.2266L57.6771 45.3259L41.4049 43.0651L42.2524 36.9657C42.6507 34.0992 45.3047 32.0734 48.1928 32.4747Z" fill="#FFBFD6" stroke="black" stroke-width="1.56669" stroke-miterlimit="10"/>
<path d="M53.1592 35.276C53.1592 35.276 55.5963 35.102 56.1185 36.908" stroke="black" stroke-width="0.783345" stroke-miterlimit="10" stroke-linecap="round"/>
<path d="M56.4233 38.0391C56.4233 38.0391 56.3146 40.5632 56.0752 42.1951" stroke="black" stroke-width="0.783345" stroke-miterlimit="10" stroke-linecap="round"/>
<path d="M42.8452 45.0879L55.8574 46.8939" stroke="black" stroke-width="0.783345" stroke-miterlimit="10" stroke-linecap="round"/>
<path d="M56.9888 47.1562C57.2499 47.1562 57.4892 47.3956 57.511 47.6567" stroke="black" stroke-width="0.783345" stroke-miterlimit="10" stroke-linecap="round"/>
<path d="M54.4648 52.8359C54.5301 53.0753 54.5301 53.3146 54.4648 53.554" stroke="black" stroke-width="0.783345" stroke-miterlimit="10" stroke-linecap="round"/>
<path d="M54.3342 55.2734L46.3267 112.806" stroke="black" stroke-width="0.783345" stroke-miterlimit="10" stroke-linecap="round"/>
<path d="M94.3936 54.4427L50.004 126.837L33.0098 139.24L35.9908 118.264L80.3804 45.8477L94.3936 54.4427Z" fill="#FF9E00" stroke="black" stroke-width="1.56669" stroke-miterlimit="10"/>
<path d="M84.7541 49.0039L40.6909 120.898" stroke="black" stroke-width="0.783345" stroke-miterlimit="10" stroke-linecap="round"/>
<path d="M89.6064 51.9648L45.5215 123.859" stroke="black" stroke-width="0.783345" stroke-miterlimit="10" stroke-linecap="round"/>
<path d="M83.5816 41.672L96.6787 49.7011C97.8845 50.4403 98.265 52.0263 97.5258 53.2321L97.4234 53.3991C96.6842 54.6049 95.0982 54.9853 93.8924 54.2461L80.7953 46.2171C79.5895 45.4778 79.209 43.8919 79.9483 42.6861L80.0506 42.5191C80.7898 41.3133 82.3758 40.9328 83.5816 41.672Z" fill="#88C7DD" stroke="black" stroke-width="1.56669" stroke-miterlimit="10"/>
<path d="M93.6676 34.2815L98.6949 37.3634C101.162 38.876 101.956 42.1191 100.432 44.605L97.2137 49.8549L83.2076 41.2686L86.4261 36.0187C87.9386 33.5514 91.1817 32.7575 93.6676 34.2815Z" fill="#FFBFD6" stroke="black" stroke-width="1.56669" stroke-miterlimit="10"/>
<path d="M97.0918 38.8633C97.0918 38.8633 99.3983 39.6684 99.159 41.5615" stroke="black" stroke-width="0.783345" stroke-miterlimit="10" stroke-linecap="round"/>
<path d="M98.963 42.6934C98.963 42.6934 97.8533 44.9564 96.9829 46.349" stroke="black" stroke-width="0.783345" stroke-miterlimit="10" stroke-linecap="round"/>
<path d="M83.71 43.7168L94.9161 50.5928" stroke="black" stroke-width="0.783345" stroke-miterlimit="10" stroke-linecap="round"/>
<path d="M95.8521 51.2656C96.0914 51.3744 96.222 51.6791 96.1349 51.9184" stroke="black" stroke-width="0.783345" stroke-miterlimit="10" stroke-linecap="round"/>
<path d="M91.2604 55.4883C91.2386 55.7276 91.1299 55.967 90.9775 56.1411" stroke="black" stroke-width="0.783345" stroke-miterlimit="10" stroke-linecap="round"/>
<path d="M90.1505 57.6641L59.7959 107.167" stroke="black" stroke-width="0.783345" stroke-miterlimit="10" stroke-linecap="round"/>
<path d="M58.6643 108.84L50.6133 121.983" stroke="black" stroke-width="0.783345" stroke-miterlimit="10" stroke-linecap="round"/>
<path d="M75.332 123.032L102.27 42.4997L116.044 26.6152L117.85 47.7003L90.8901 128.254L75.332 123.032Z" fill="#FF9E00" stroke="black" stroke-width="1.56669" stroke-miterlimit="10"/>
<path d="M85.9292 126.166L112.693 46.1992" stroke="black" stroke-width="0.783345" stroke-miterlimit="10" stroke-linecap="round"/>
<path d="M80.5547 124.359L107.297 44.3926" stroke="black" stroke-width="0.783345" stroke-miterlimit="10" stroke-linecap="round"/>
<path d="M102.227 42.6521L102.271 42.4997L110.539 32.9473L116.044 26.6152L116.762 35.0144L117.85 47.7003L117.785 47.8744L102.227 42.6521Z" fill="white" stroke="black" stroke-width="1.56669" stroke-miterlimit="10"/>
<path d="M110.539 32.9473L116.044 26.6152L116.762 35.0144L110.539 32.9473Z" fill="black" stroke="black" stroke-width="1.56669" stroke-miterlimit="10"/>
<path d="M78.7261 118.941L97.1564 63.8672" stroke="black" stroke-width="0.783345" stroke-miterlimit="10" stroke-linecap="round"/>
<path d="M97.8965 61.9737L102.792 47.373" stroke="black" stroke-width="0.783345" stroke-miterlimit="10" stroke-linecap="round"/>
<path d="M115.805 45.3716C115.609 45.3063 115.413 45.2411 115.217 45.1758" stroke="black" stroke-width="0.783345" stroke-miterlimit="10" stroke-linecap="round"/>
<path d="M114.086 44.7188L105.795 41.9336" stroke="black" stroke-width="0.783345" stroke-miterlimit="10" stroke-linecap="round"/>
</g>
</g>
<defs>
<clipPath id="clip0_745_5096">
<rect width="156.212" height="185" fill="white"/>
</clipPath>
</defs>
</svg>
