<svg width="76" height="76" viewBox="0 0 76 76" fill="none" xmlns="http://www.w3.org/2000/svg">
<path fill-rule="evenodd" clip-rule="evenodd" d="M10.4918 56.5598C10.292 56.4779 9.21631 58.8059 9.16973 58.9336C8.87525 59.7455 8.56571 60.552 8.24126 61.3524C8.00539 61.9444 7.76951 62.5378 7.54341 63.1395C7.01156 64.5563 6.32648 66.139 5.35969 67.3447C5.33565 67.3747 5.28758 67.4273 5.22448 67.4979C4.92024 67.836 4.27122 68.5571 4.39065 68.8012C4.45075 68.9244 4.92024 69.1032 5.03668 69.1242C7.97759 69.6148 10.9936 67.8923 13.2848 66.2134C13.4928 66.0601 13.7467 65.825 14.0314 65.5613C14.9336 64.7253 16.1423 63.6067 17.1669 63.9478C17.3382 64.0049 17.511 64.2453 17.6717 64.4691C17.7791 64.6186 17.8821 64.7606 17.9752 64.8372C18.8676 65.5809 20.4008 66.2156 21.5343 66.4643C27.5514 67.73 33.5534 67.6399 39.6561 67.0307C44.5351 66.5409 49.8325 65.8573 54.3749 63.8757C60.9892 60.9949 65.9538 55.0469 68.6889 48.5116C69.9058 45.6029 70.4384 42.176 70.7096 39.0511C71.0957 34.6228 70.5849 29.5935 68.619 25.5454C65.5992 19.3586 60.8682 14.0867 54.7092 10.9084C41.664 4.17098 24.2739 6.67095 13.6303 16.6498C10.6496 19.4374 8.13159 22.6232 6.75616 26.5167C4.64381 32.5014 3.47796 39.8278 4.95555 45.947C5.53848 48.4026 7.79881 53.1487 10.4918 56.5598ZM22.861 19.1956C22.861 19.1956 22.7287 27.7922 22.7287 30.2982C22.7287 33.4449 22.9992 36.5706 23.2688 39.6986C23.4116 41.3565 23.5551 43.0158 23.658 44.6775C23.67 44.8705 23.6775 45.0906 23.6858 45.331C23.7361 46.8259 23.8112 49.0599 25.1431 49.8607C25.4646 50.0545 26.022 49.9073 26.4689 49.7901C26.6222 49.7495 26.7626 49.712 26.8761 49.6939C27.4943 49.5925 28.123 49.5347 28.7533 49.4776C29.684 49.3927 30.6163 49.3078 31.5229 49.0802C33.0809 48.7069 32.8661 47.7844 32.6159 46.7102C32.5501 46.4439 32.4955 46.175 32.4522 45.9042C32.3019 44.875 32.2313 43.8159 32.1615 42.7552C32.1371 42.3744 32.1108 41.9938 32.0826 41.6134C31.6875 36.4857 31.3389 31.2019 31.3389 26.0637C31.3389 25.5717 31.3224 25.0721 31.3058 24.5703C31.272 23.5592 31.2382 22.5391 31.3389 21.5513C31.3554 21.3898 31.3817 21.2103 31.4103 21.0202C31.5117 20.3336 31.6326 19.5178 31.3389 18.9957C31.109 18.5811 30.6793 18.5465 30.2369 18.5112C30.1708 18.506 30.1039 18.5007 30.0378 18.4939C28.5269 18.3655 27.0053 18.4594 25.5217 18.7726C25.3887 18.7892 22.861 19.1032 22.861 19.1956ZM42.9395 27.6014C43.539 25.16 45.7084 16.8496 45.7084 16.8496C45.7265 16.779 47.2702 16.9427 48.0033 17.0209C48.2107 17.0426 48.3534 17.0584 48.3782 17.0584C49.961 17.1079 51.5267 17.4005 53.0205 17.926C53.4412 18.065 53.8498 18.2002 53.9745 18.657C54.1361 19.2459 53.819 20.0219 53.5554 20.6664C53.4855 20.8384 53.4187 21.0007 53.3661 21.1472C53.0348 22.0824 52.8252 23.0807 52.6171 24.0693C52.5135 24.5621 52.4106 25.0526 52.2934 25.5319C51.0734 30.522 50.1555 35.7405 49.3187 40.8126C49.2578 41.1852 49.1925 41.5578 49.1271 41.9311C48.9431 42.9805 48.759 44.0299 48.6614 45.0688C48.6358 45.3445 48.6328 45.6217 48.6306 45.8906C48.6193 46.9911 48.6095 47.9339 47.005 47.9339C46.0848 47.9346 45.1646 47.7987 44.2444 47.662C43.6156 47.5688 42.9869 47.4757 42.3589 47.4268C42.2454 47.4178 42.1012 47.4208 41.9435 47.4231C41.4822 47.4306 40.9031 47.4411 40.6364 47.1759C39.5321 46.0837 39.9911 43.8917 40.2976 42.4277C40.3464 42.1948 40.3915 41.9792 40.4253 41.7906C40.722 40.1433 40.9789 38.4907 41.2351 36.838C41.7144 33.7431 42.1944 30.6505 42.9395 27.6021V27.6014ZM30.3368 54.171C29.3272 53.9487 28.552 53.7782 27.2404 54.4925C25.8928 55.2287 24.1064 57.9781 25.3241 59.4181C26.1902 60.4405 27.7279 60.9535 29.041 61.061C29.6795 61.1346 30.327 61.0797 30.9438 60.9002C34.9424 59.4737 33.3551 55.8237 31.4876 54.3836C31.1009 54.3309 30.7169 54.2599 30.3368 54.171ZM44.6598 52.5995C44.9775 52.7558 45.3208 52.924 45.7272 53.0803C47.2003 54.9207 47.8741 58.8419 43.6577 59.2814C43.0153 59.3068 42.3741 59.2057 41.7707 58.9839C40.5252 58.5678 39.155 57.7061 38.5556 56.505C37.7 54.8223 40.091 52.571 41.5754 52.1766C43.0192 51.7935 43.7313 52.1436 44.6598 52.5995Z" fill="#292524"/>
<path d="M10.4918 56.5598C10.292 56.4779 9.21631 58.8059 9.16973 58.9336C8.87525 59.7455 8.56571 60.552 8.24126 61.3524C8.00539 61.9444 7.76951 62.5378 7.54341 63.1395C7.01156 64.5563 6.32648 66.139 5.35969 67.3447C5.33565 67.3747 5.28758 67.4273 5.22448 67.4979C4.92024 67.836 4.27122 68.5571 4.39065 68.8012C4.45075 68.9244 4.92024 69.1032 5.03668 69.1242C7.97759 69.6148 10.9936 67.8923 13.2848 66.2134C13.4928 66.0601 13.7467 65.825 14.0314 65.5613C14.9336 64.7253 16.1423 63.6067 17.1669 63.9478C17.3382 64.0049 17.511 64.2453 17.6717 64.4691C17.7791 64.6186 17.8821 64.7606 17.9752 64.8372C18.8676 65.5809 20.4008 66.2156 21.5343 66.4643C27.5514 67.73 33.5534 67.6399 39.6561 67.0307C44.5351 66.5409 49.8325 65.8573 54.3749 63.8757C60.9892 60.9949 65.9538 55.0469 68.6889 48.5116C69.9058 45.6029 70.4384 42.176 70.7096 39.0511C71.0957 34.6228 70.5849 29.5935 68.619 25.5454C65.5992 19.3586 60.8682 14.0867 54.7092 10.9084C41.664 4.17098 24.2739 6.67095 13.6303 16.6498C10.6496 19.4374 8.13159 22.6232 6.75616 26.5167C4.64381 32.5014 3.47796 39.8278 4.95555 45.947C5.53847 48.4026 7.79881 53.1487 10.4918 56.5598Z" stroke="#292524" stroke-width="0.336534" stroke-linecap="round" stroke-linejoin="round"/>
</svg>
