<svg width="88" height="19" viewBox="0 0 88 19" fill="none" xmlns="http://www.w3.org/2000/svg">
<path d="M18.8241 7.64131C20.0904 14.3305 14.3305 20.0904 7.64131 18.8241C3.90351 18.1194 0.890804 15.0965 0.175925 11.3587C-1.09043 4.66945 4.66946 -1.09043 11.3587 0.175925C15.0965 0.880593 18.1092 3.90351 18.8241 7.64131Z" fill="#F2620F"/>
<path d="M53.8241 7.64131C55.0904 14.3305 49.3306 20.0904 42.6413 18.8241C38.9035 18.1194 35.8908 15.0965 35.1759 11.3587C33.9096 4.66945 39.6694 -1.09043 46.3587 0.175925C50.0965 0.880593 53.1092 3.90351 53.8241 7.64131Z" fill="#DADADA"/>
<path d="M87.8241 7.64131C89.0904 14.3305 83.3305 20.0904 76.6413 18.8241C72.9035 18.1194 69.8908 15.0965 69.1759 11.3587C67.9096 4.66945 73.6695 -1.09043 80.3587 0.175925C84.0965 0.880593 87.1092 3.90351 87.8241 7.64131Z" fill="#F2CE0F"/>
</svg>
