<svg width="83" height="83" viewBox="0 0 83 83" fill="none" xmlns="http://www.w3.org/2000/svg">
<path d="M30.5317 57.0422H32.1765C32.1767 56.7366 32.0918 56.4371 31.9313 56.177C31.7708 55.917 31.541 55.7069 31.2678 55.5701L30.5317 57.0422ZM30.5811 54.9599L32.2226 55.043L30.5803 54.9599H30.5811ZM30.7908 58.9394L29.1526 59.0891C29.1733 59.3156 29.2407 59.5353 29.3506 59.7344C29.4605 59.9335 29.6105 60.1076 29.7911 60.2458C29.9717 60.3839 30.179 60.4832 30.3999 60.5372C30.6208 60.5912 30.8505 60.5988 31.0745 60.5595L30.79 58.9394H30.7908ZM47.6093 58.3087L47.4794 59.9485C47.7057 59.9664 47.9332 59.9373 48.1476 59.8631C48.3621 59.7888 48.5589 59.6709 48.7256 59.5169C48.8923 59.3629 49.0253 59.176 49.1162 58.9681C49.2072 58.7602 49.2541 58.5356 49.2541 58.3087H47.6093ZM68.3087 28.5401L69.9518 28.6248V28.6149L68.3095 28.5409L68.3087 28.5401ZM67.2791 21.2069L65.6861 21.6172L67.2783 21.2069H67.2791ZM63.7108 14.5472L62.3555 15.479L62.358 15.4823L63.7108 14.5472ZM56.2592 8.40402L57.0034 6.93689L56.9977 6.93442L56.2592 8.40402ZM27.4807 9.79138L28.1978 11.2717L28.2134 11.2634L27.4807 9.79138ZM20.1467 15.104L21.428 16.1344L21.4296 16.1336L20.1467 15.1032V15.104ZM14.8349 24.7752L16.3859 25.3229L16.3876 25.3204L14.8357 24.7752H14.8349ZM14.4788 37.9358L16.0356 37.4062L16.0331 37.3979L14.4788 37.9358ZM17.2141 43.4063L15.9139 44.4137L17.2132 43.4063H17.2141ZM28.6699 51.0964L27.7266 52.4443L27.7447 52.4566L28.6699 51.0964ZM31.2686 55.5718C31.4791 55.6774 31.6644 55.8272 31.8117 56.011C31.9591 56.1948 32.065 56.4083 32.1222 56.6368C32.1469 56.7404 32.1543 56.8177 32.1551 56.8259C32.1576 56.8572 32.1559 56.858 32.1551 56.8045C32.1551 56.7091 32.1576 56.5562 32.1642 56.3539C32.1773 55.9567 32.2028 55.4575 32.2234 55.0438L28.9388 54.8777C28.9182 55.284 28.8911 55.8127 28.8763 56.2437C28.8697 56.4567 28.8648 56.668 28.8664 56.8374C28.8664 56.9164 28.8697 57.0249 28.8796 57.1327C28.8967 57.3457 28.9524 57.5539 29.044 57.747C29.0876 57.8375 29.2908 58.2602 29.7973 58.5135L31.2686 55.5718ZM32.2481 57.7125C32.2269 57.6348 32.2105 57.556 32.1987 57.4764C32.1821 57.3326 32.175 57.1878 32.1773 57.043H28.8878C28.8878 57.7856 28.9659 58.1417 29.0539 58.4986L32.2481 57.7125ZM32.429 58.7906C32.3989 58.4268 32.3384 58.0661 32.2481 57.7125L29.0539 58.4986C29.0786 58.5973 29.0934 58.659 29.1082 58.7388C29.1222 58.8169 29.1386 58.9255 29.1534 59.0899L32.4298 58.7906H32.429ZM31.0753 60.5604C35.4726 59.7914 43.078 59.6006 47.4802 59.9493L47.7401 56.6705C43.1257 56.3045 35.2349 56.4937 30.5079 57.3202L31.0753 60.5604ZM48.1052 50.7099C46.3297 52.8135 45.9646 55.8152 45.9654 58.3103L49.2549 58.3095C49.2549 55.9493 49.6431 53.9879 50.6193 52.8308L48.1052 50.7099ZM55.7888 43.792C53.144 45.871 50.3323 48.0733 48.1052 50.709L50.6184 52.8316C52.5905 50.4977 55.1226 48.4993 57.8209 46.3775L55.7879 43.792H55.7888ZM66.6672 28.457C66.3103 35.4168 61.4443 39.3454 55.7888 43.792L57.8209 46.3775C63.2708 42.0938 69.5069 37.296 69.9527 28.6256L66.6672 28.457ZM65.687 21.6189C66.3169 24.0614 66.7742 26.1149 66.6672 28.4669L69.9535 28.6157C70.0842 25.7349 69.5102 23.2702 68.872 20.7965L65.687 21.6189ZM62.7009 15.9773C64.0907 17.9774 65.1475 19.5251 65.6861 21.6181L68.872 20.7973C68.1656 18.0539 66.7585 16.0522 65.4024 14.1007L62.7009 15.9765V15.9773ZM62.3588 15.4839L62.7009 15.9773L65.4024 14.1007L65.0652 13.613L62.3588 15.4831V15.4839ZM55.5157 9.87115C58.0988 11.1812 60.8185 13.2429 62.3563 15.4798L65.0669 13.6163C63.117 10.7791 59.89 8.40155 57.0034 6.93689L55.5149 9.87115H55.5157ZM28.2134 11.2643C36.6108 7.0841 47.1398 5.66384 55.5215 9.87444L56.9977 6.93442C47.3815 2.10457 35.7119 3.85624 26.7471 8.31849L28.2126 11.2626L28.2134 11.2643ZM21.4288 16.1328C22.9806 14.2026 25.7266 12.4682 28.197 11.2717L26.7636 8.31109C24.1607 9.5718 20.8811 11.5644 18.8654 14.0727L21.4288 16.1336V16.1328ZM16.3876 25.3204C17.6392 21.7529 19.099 19.0276 21.4288 16.1344L18.8662 14.0719C16.2798 17.2833 14.6474 20.3458 13.2831 24.2308L16.3876 25.3204ZM16.0331 37.3979C14.7535 33.703 15.0537 29.0985 16.3868 25.3229L13.2839 24.2283C11.7625 28.5384 11.3497 33.9242 12.9245 38.4744L16.0331 37.3979ZM18.5134 42.3989C17.4493 41.0255 16.6474 39.2039 16.0356 37.4062L12.9212 38.4662C13.5775 40.3939 14.5199 42.616 15.9139 44.4137L18.5134 42.3989ZM25.3211 47.232C22.5135 45.727 20.0439 44.3726 18.5134 42.3989L15.9139 44.4137C17.9534 47.0453 21.1122 48.7082 23.7676 50.1317L25.3219 47.232H25.3211ZM29.6131 49.7485C28.2784 48.8151 26.757 48.0018 25.3211 47.232L23.7668 50.1317C25.2413 50.9212 26.5818 51.6424 27.7266 52.4443L29.6131 49.7493V49.7485ZM32.2571 54.2675C32.2571 53.2551 31.8624 52.3217 31.3936 51.5964C30.9213 50.8648 30.3099 50.2331 29.5942 49.737L27.7447 52.4566C28.0506 52.6647 28.3837 52.9986 28.6312 53.3818C28.8861 53.7765 28.9676 54.0915 28.9676 54.2683H32.2571V54.2675ZM32.2242 55.0438C32.239 54.7395 32.2571 54.404 32.2571 54.2675H28.9676L28.9659 54.302L28.9602 54.4402L28.9388 54.8777L32.2234 55.0438H32.2242Z" fill="#292524"/>
<path d="M32.5934 75.0786C27.8367 72.9782 27.6936 64.9057 27.1385 60.5849C26.7972 57.9295 48.8461 57.5183 50.986 58.9451C51.9778 59.6194 51.7393 61.4032 51.819 62.3547C52.0164 64.4551 52.0567 66.5957 51.898 68.6969C51.7796 69.8861 51.9375 71.4716 51.1447 72.4634C50.273 73.5325 48.0525 73.9684 46.7844 74.2464C42.6618 75.1978 36.7554 76.9026 32.5934 75.0794V75.0786Z" fill="#292524"/>
<path d="M32.5934 75.0786C27.8367 72.9782 27.6936 64.9057 27.1385 60.5849C26.7972 57.9295 48.8461 57.5183 50.986 58.9451C51.9778 59.6194 51.7393 61.4032 51.819 62.3547C52.0164 64.4551 52.0567 66.5957 51.898 68.6969C51.7796 69.8861 51.9375 71.4716 51.1447 72.4634C50.273 73.5325 48.0525 73.9684 46.7844 74.2464C42.6618 75.1978 36.7554 76.9026 32.5934 75.0794V75.0786Z" stroke="#292524" stroke-width="0.328953" stroke-miterlimit="2.725" stroke-linecap="round" stroke-linejoin="round"/>
<path fill-rule="evenodd" clip-rule="evenodd" d="M32.7901 32.5972C33.2782 31.6359 33.9004 30.7487 34.638 29.9623C34.3365 29.9076 34.0314 29.8746 33.7251 29.8636C31.9299 29.7946 30.0022 30.4253 28.6116 31.4632C27.9956 31.9673 27.4989 32.6063 27.0688 33.3974C26.4569 34.571 26.3747 35.5644 26.5638 36.4427C26.7628 37.3621 27.29 38.2906 28.1132 39.2322C29.7777 41.1344 32.3065 42.7175 34.4686 44.0711L34.5368 44.1139L34.5557 44.1254C34.9258 44.3639 35.2827 44.5391 35.7252 44.7562C35.9044 44.8442 36.0977 44.9387 36.3115 45.0473C36.9883 45.391 37.7844 45.8392 38.5032 46.5547C39.0739 47.1107 39.3387 47.8483 39.4802 48.4067C39.634 49.0112 39.7055 49.665 39.74 50.262C39.791 51.1239 39.7705 52.0688 39.7565 52.6922C39.7524 52.9027 39.7483 53.0762 39.7483 53.1979C39.7483 53.318 39.7335 53.6502 39.7154 54.0614C39.6956 54.5113 39.6718 55.0582 39.6578 55.5277C39.6425 55.9722 39.639 56.417 39.6471 56.8616C39.652 57.0261 39.6586 57.1437 39.6668 57.2194C39.7713 57.536 39.7738 57.8691 39.6866 58.1775C38.6413 58.2079 37.5895 58.2548 36.5656 58.3181C36.4807 58.0969 36.4257 57.8654 36.402 57.6297L36.4012 57.6191C36.3778 57.3972 36.3638 57.1744 36.3592 56.9513C36.3492 56.4447 36.3528 55.9379 36.3699 55.4315C36.3855 54.9085 36.4086 54.3854 36.4275 53.9718L36.4324 53.8435C36.4411 53.6525 36.4493 53.4614 36.4571 53.2703L36.4579 53.2374V53.2168V53.1979C36.4579 52.9677 36.4645 52.7185 36.4702 52.452C36.4834 51.8542 36.499 51.1732 36.4563 50.4553C36.4275 49.9569 36.3724 49.5342 36.2918 49.2151C36.2657 49.099 36.2265 48.9861 36.175 48.8788C35.8288 48.5358 35.4036 48.276 34.8214 47.9799C34.6875 47.9126 34.5532 47.8463 34.4184 47.7809C33.9299 47.5424 33.3263 47.2463 32.7819 46.896L32.5656 46.7611C30.5104 45.4758 27.628 43.6723 25.6378 41.3984C24.5876 40.1985 23.7028 38.7783 23.3483 37.136C22.9865 35.455 23.2101 33.677 24.1592 31.862L24.1707 31.8415C24.7645 30.7444 25.5276 29.7279 26.5638 28.8891L26.6091 28.8529C28.5869 27.3644 31.2654 26.4762 33.851 26.5758C35.1873 26.6276 36.5327 26.9483 37.7392 27.607C40.4884 26.195 43.8166 25.9927 46.9088 27.9434L46.9145 27.9467L47.0379 28.0256C47.4408 28.2805 47.9754 28.6202 48.4779 29.0042C49.0182 29.4179 49.6489 29.9771 50.084 30.6852C50.4035 31.2015 50.6592 31.7546 50.8455 32.3324C51.218 32.3283 51.5725 32.3431 51.8981 32.3752L51.913 32.3768L51.9286 32.3785C53.311 32.538 54.8234 33.2782 55.7477 33.8251C56.0547 34.0148 56.3507 34.2218 56.6343 34.4451C56.7667 34.5504 57.0833 34.8045 57.3004 35.1211C57.3637 35.2141 57.4731 35.3892 57.5455 35.6269C57.6178 35.8637 57.7001 36.3218 57.4731 36.8268C57.38 37.0334 57.2465 37.2193 57.0806 37.3736C56.9146 37.528 56.7196 37.6477 56.5068 37.7256C56.3002 37.8007 56.0819 37.8386 55.862 37.8375C55.5407 37.8375 55.2264 37.7435 54.9579 37.567C54.6894 37.3904 54.4786 37.1391 54.3513 36.844C54.2701 36.7864 54.1878 36.7302 54.1046 36.6754L54.0882 36.6656L54.0742 36.6573C53.26 36.1762 52.2436 35.7305 51.5651 35.6475C51.4977 35.6413 51.4303 35.6364 51.3628 35.6327C51.3685 37.3251 50.9861 39.2265 49.9047 40.613L49.903 40.6163C48.9746 41.8005 47.3652 42.4667 45.9293 42.4601C45.1768 42.456 44.3289 42.2676 43.6069 41.7208C42.8552 41.1517 42.3939 40.3095 42.2615 39.3112C42.0559 37.8852 42.3972 36.6253 43.1217 35.5998C43.8207 34.6104 44.8141 33.9188 45.8166 33.4426C46.3545 33.1877 46.926 32.9796 47.5058 32.816C47.4405 32.6757 47.3657 32.54 47.2821 32.4097C47.1629 32.2124 46.9071 31.9443 46.4786 31.617C46.0979 31.3258 45.685 31.0635 45.2665 30.797L45.1513 30.7239C43.662 29.7863 41.986 29.6251 40.4243 30.0643C40.5254 30.2148 40.6216 30.3702 40.7162 30.5314L40.722 30.5421C41.7532 32.353 42.3092 34.654 41.81 36.6541C41.5526 37.6894 40.9991 38.6771 40.0525 39.3951C39.1093 40.1105 37.9144 40.4535 36.5574 40.4535C35.4809 40.4535 34.5319 40.1204 33.7835 39.4946C33.0549 38.886 32.6149 38.0842 32.3764 37.2906C31.9126 35.7511 32.1133 33.9517 32.7876 32.603L32.7901 32.5972ZM35.5262 36.3432C35.3156 35.6442 35.4127 34.7091 35.7285 34.0767C36.1814 33.1757 36.796 32.3656 37.5418 31.6869C37.6569 31.8398 37.7655 32.0027 37.8667 32.1754C38.6158 33.4945 38.8535 34.918 38.6183 35.8596C38.5098 36.2955 38.314 36.5841 38.064 36.7741C37.8116 36.9666 37.3609 37.1639 36.5574 37.1639C36.1873 37.1639 36.0015 37.0611 35.8921 36.9698C35.7646 36.8629 35.624 36.6697 35.5262 36.3432ZM39.6792 57.3041C39.6756 57.292 39.6731 57.2796 39.6718 57.2671C39.675 57.2792 39.6772 57.2916 39.6784 57.3041H39.6792ZM54.0684 36.6541L54.0734 36.6573L54.0692 36.6532L54.0684 36.6541ZM47.2262 36.4147C47.4974 36.287 47.7765 36.1766 48.0617 36.0841C48.0033 37.1812 47.713 38.0727 47.3117 38.5883C47.2213 38.7034 47.0354 38.8597 46.7541 38.9855C46.5002 39.1027 46.2246 39.1657 45.9449 39.1705C45.7015 39.1697 45.6045 39.108 45.5921 39.0982C45.5888 39.0957 45.5839 39.0924 45.5757 39.0768C45.5455 39.0135 45.5271 38.9452 45.5214 38.8753C45.5201 38.8657 45.5187 38.8561 45.5173 38.8465C45.4309 38.2569 45.5642 37.8424 45.8076 37.4978C46.079 37.1129 46.5485 36.7363 47.227 36.4147H47.2262Z" fill="#292524"/>
</svg>
