<svg width="72" height="72" viewBox="0 0 72 72" fill="none" xmlns="http://www.w3.org/2000/svg">
<g clip-path="url(#clip0_529_11143)">
<circle cx="36" cy="36" r="36" fill="#48C25D"/>
<path d="M32.9033 41.9991L49.9355 24.9668M32.9033 41.9991L38.3226 52.8378C38.3906 52.986 38.4996 53.1116 38.6369 53.1997C38.7741 53.2878 38.9338 53.3346 39.0968 53.3346C39.2599 53.3346 39.4196 53.2878 39.5568 53.1997C39.694 53.1116 39.8031 52.986 39.871 52.8378L49.9355 24.9668M32.9033 41.9991L22.0646 36.5797C21.9163 36.5118 21.7907 36.4027 21.7026 36.2655C21.6146 36.1282 21.5677 35.9686 21.5677 35.8055C21.5677 35.6424 21.6146 35.4828 21.7026 35.3456C21.7907 35.2083 21.9163 35.0992 22.0646 35.0313L49.9355 24.9668" stroke="white" stroke-width="2.32258" stroke-linecap="round" stroke-linejoin="round"/>
</g>
<defs>
<clipPath id="clip0_529_11143">
<rect width="72" height="72" fill="white"/>
</clipPath>
</defs>
</svg>
