<svg width="237" height="139" viewBox="0 0 237 139" fill="none" xmlns="http://www.w3.org/2000/svg">
<path d="M30.7717 29.3263H42.5308V42.932C42.5308 53.039 36.6998 62.077 23.1914 62.077C9.68294 62.077 3.65759 53.1362 3.65759 42.8348V0.0742188H16.097V12.9996H42.5308V21.9404H16.097V41.5714C16.097 47.5968 18.2351 51.0953 23.3858 51.0953C28.5365 51.0953 30.7717 47.6939 30.7717 41.7658V29.3263Z" fill="black"/>
<path d="M76.1554 60.8138C75.7666 59.6476 75.4751 57.9955 75.3779 56.5377C72.3652 59.842 67.3117 62.0772 60.8976 62.0772C50.0131 62.0772 44.9596 56.7321 44.9596 48.9575C44.9596 35.1575 54.192 33.6025 66.923 31.8532C73.2399 30.9786 74.9892 29.7152 74.9892 26.411C74.9892 23.3011 71.8793 21.4546 66.923 21.4546C61.1892 21.4546 58.8568 24.2729 58.2737 28.549H46.5145C46.7089 18.6363 52.1511 11.7363 67.5061 11.7363C82.861 11.7363 87.9145 18.5391 87.9145 30.5898V60.8138H76.1554ZM75.2807 37.3927C74.0173 38.656 71.7821 39.3363 67.1173 40.211C59.9258 41.5715 57.5934 43.6124 57.5934 47.6941C57.5934 51.2898 59.7314 53.0391 63.7159 53.0391C70.2272 53.0391 75.0864 48.2772 75.1835 42.6406L75.2807 37.3927Z" fill="black"/>
<path d="M117.556 11.7363C111.725 11.7363 107.255 13.9715 104.242 18.8307L104.145 12.9997H91.9973V75.0803H104.437V54.5941C108.033 59.6476 112.697 62.0772 118.625 62.0772C130.968 62.0772 138.256 51.8729 138.256 37.3927C138.256 21.2603 129.607 11.7363 117.556 11.7363ZM114.544 51.2898C107.547 51.2898 103.951 46.1391 103.951 35.7406C103.951 27.6744 108.616 22.0377 114.641 22.0377C120.666 22.0377 125.428 27.9659 125.428 36.518C125.428 46.3335 121.93 51.2898 114.544 51.2898Z" fill="black"/>
<path d="M172.95 29.3263H184.709V42.932C184.709 53.039 178.878 62.077 165.369 62.077C151.861 62.077 145.835 53.1362 145.835 42.8348V0.0742188H158.275V12.9996H184.709V21.9404H158.275V41.5714C158.275 47.5968 160.413 51.0953 165.564 51.0953C170.714 51.0953 172.95 47.6939 172.95 41.7658V29.3263Z" fill="white"/>
<path d="M187.333 36.9068C187.333 21.7462 196.76 11.7363 211.92 11.7363C227.081 11.7363 236.216 21.649 236.216 36.9068C236.216 52.1645 226.789 62.0772 211.92 62.0772C197.051 62.0772 187.333 51.7758 187.333 36.9068ZM223.485 36.9068C223.485 27.1884 219.598 22.4265 211.92 22.4265C204.243 22.4265 200.356 27.1884 200.356 36.9068C200.356 46.6251 204.243 51.4842 211.92 51.4842C219.598 51.4842 223.485 46.6251 223.485 36.9068Z" fill="white"/>
<path d="M30.6535 104.023C29.9926 99.4551 27.5048 97.8419 21.907 97.8419C17.2422 97.8419 14.5794 98.9886 14.5794 101.749C14.5794 104.509 17.145 105.655 22.1986 107.074C27.5242 108.59 32.5583 109.64 36.1735 111.078C41.1298 113.08 43.8704 116.307 43.8704 122.39C43.8704 132.089 36.7372 137.901 23.4231 137.901C9.05941 137.901 1.07095 131.156 0.876587 121.632H13.627C13.627 126.006 17.3394 128.571 23.3259 128.571C27.6991 128.571 31.6059 127.23 31.6059 123.712C31.6059 120.388 28.0879 119.339 24.0839 118.386C16.1926 116.482 11.8194 115.16 8.47631 113.061C4.10307 110.301 2.58701 106.686 2.58701 102.507C2.58701 94.6154 8.00983 88.6289 22.2763 88.6289C35.7848 88.6289 41.8684 93.9545 42.5293 104.042H30.6341L30.6535 104.023Z" fill="black"/>
<path d="M57.283 116.481C57.6717 123.518 61.6562 128.085 67.7399 128.085C71.7438 128.085 75.2618 126.083 76.117 122.857H88.8675C86.0103 132.458 78.3134 137.881 68.323 137.881C52.7154 137.881 44.9213 129.329 44.9213 112.38C44.9213 97.9195 53.2013 88.6094 67.5649 88.6094C81.9286 88.6094 89.5283 97.939 89.5283 116.481H57.283ZM76.7779 108.687C76.5835 101.749 72.0159 98.4054 67.1762 98.4054C62.3365 98.4054 58.1382 102.215 57.6717 108.687H76.7973H76.7779Z" fill="black"/>
<path d="M122.336 136.657V108.318C122.336 101.088 120.237 99.0857 114.347 99.0857C107.875 99.0857 104.746 102.701 104.746 109.834V136.657H92.3839V89.8533H104.182V96.695C107.039 91.4666 111.782 88.6094 119.304 88.6094C128.244 88.6094 134.814 94.0322 134.814 104.217V136.657H122.355H122.336Z" fill="black"/>
<path d="M170.927 79.7852V95.937C167.409 91.0001 162.841 88.6094 157.049 88.6094C144.979 88.6094 137.846 98.5998 137.846 112.769C137.846 128.552 146.32 137.881 158.099 137.881C163.813 137.881 168.186 135.685 171.121 130.942L171.218 136.657H183.114V79.8046H170.946L170.927 79.7852ZM160.937 127.813C154.756 127.813 150.382 122.021 150.382 113.644C150.382 104.042 153.803 99.1829 161.034 99.1829C167.875 99.1829 171.393 104.217 171.393 114.402C171.393 122.293 166.826 127.813 160.937 127.813Z" fill="black"/>
</svg>
