<svg width="83" height="83" viewBox="0 0 83 83" fill="none" xmlns="http://www.w3.org/2000/svg">
<path d="M30.5317 56.4914H32.1765C32.1767 56.1859 32.0918 55.8863 31.9313 55.6263C31.7708 55.3663 31.541 55.1561 31.2678 55.0194L30.5317 56.4914ZM30.5811 54.4092L32.2226 54.4922L30.5803 54.4092H30.5811ZM30.7908 58.3887L29.1526 58.5383C29.1733 58.7648 29.2407 58.9845 29.3506 59.1836C29.4605 59.3827 29.6105 59.5568 29.7911 59.695C29.9717 59.8332 30.179 59.9324 30.3999 59.9864C30.6208 60.0404 30.8505 60.048 31.0745 60.0088L30.79 58.3887H30.7908ZM47.6093 57.7579L47.4794 59.3977C47.7057 59.4157 47.9332 59.3866 48.1476 59.3123C48.3621 59.238 48.5589 59.1202 48.7256 58.9661C48.8923 58.8121 49.0253 58.6252 49.1162 58.4173C49.2072 58.2094 49.2541 57.9849 49.2541 57.7579H47.6093ZM68.3087 27.9893L69.9518 28.074V28.0641L68.3095 27.9901L68.3087 27.9893ZM67.2791 20.6561L65.6861 21.0665L67.2783 20.6561H67.2791ZM63.7108 13.9964L62.3555 14.9282L62.358 14.9315L63.7108 13.9964ZM56.2592 7.85324L57.0034 6.38611L56.9977 6.38364L56.2592 7.85324ZM27.4807 9.2406L28.1978 10.7209L28.2134 10.7127L27.4807 9.2406ZM20.1467 14.5532L21.428 15.5836L21.4296 15.5828L20.1467 14.5524V14.5532ZM14.8349 24.2244L16.3859 24.7721L16.3876 24.7697L14.8357 24.2244H14.8349ZM14.4788 37.385L16.0356 36.8554L16.0331 36.8472L14.4788 37.385ZM17.2141 42.8555L15.9139 43.8629L17.2132 42.8555H17.2141ZM28.6699 50.5456L27.7266 51.8935L27.7447 51.9058L28.6699 50.5456ZM31.2686 55.021C31.4791 55.1266 31.6644 55.2765 31.8117 55.4603C31.9591 55.6441 32.065 55.8575 32.1222 56.086C32.1469 56.1896 32.1543 56.2669 32.1551 56.2751C32.1576 56.3064 32.1559 56.3072 32.1551 56.2538C32.1551 56.1584 32.1576 56.0054 32.1642 55.8031C32.1773 55.4059 32.2028 54.9067 32.2234 54.493L28.9388 54.3269C28.9182 54.7332 28.8911 55.262 28.8763 55.6929C28.8697 55.9059 28.8648 56.1172 28.8664 56.2867C28.8664 56.3656 28.8697 56.4742 28.8796 56.5819C28.8967 56.7949 28.9524 57.0031 29.044 57.1962C29.0876 57.2867 29.2908 57.7094 29.7973 57.9627L31.2686 55.021ZM32.2481 57.1617C32.2269 57.084 32.2105 57.0052 32.1987 56.9256C32.1821 56.7818 32.175 56.637 32.1773 56.4922H28.8878C28.8878 57.2349 28.9659 57.591 29.0539 57.9479L32.2481 57.1617ZM32.429 58.2398C32.3989 57.876 32.3384 57.5154 32.2481 57.1617L29.0539 57.9479C29.0786 58.0466 29.0934 58.1082 29.1082 58.188C29.1222 58.2661 29.1386 58.3747 29.1534 58.5392L32.4298 58.2398H32.429ZM31.0753 60.0096C35.4726 59.2407 43.078 59.0499 47.4802 59.3986L47.7401 56.1197C43.1257 55.7537 35.2349 55.9429 30.5079 56.7694L31.0753 60.0096ZM48.1052 50.1591C46.3297 52.2627 45.9646 55.2644 45.9654 57.7595L49.2549 57.7587C49.2549 55.3985 49.6431 53.4371 50.6193 52.28L48.1052 50.1591ZM55.7888 43.2412C53.144 45.3202 50.3323 47.5225 48.1052 50.1583L50.6184 52.2808C52.5905 49.9469 55.1226 47.9485 57.8209 45.8268L55.7879 43.2412H55.7888ZM66.6672 27.9062C66.3103 34.866 61.4443 38.7946 55.7888 43.2412L57.8209 45.8268C63.2708 41.543 69.5069 36.7452 69.9527 28.0748L66.6672 27.9062ZM65.687 21.0681C66.3169 23.5106 66.7742 25.5641 66.6672 27.9161L69.9535 28.0649C70.0842 25.1841 69.5102 22.7195 68.872 20.2457L65.687 21.0681ZM62.7009 15.4266C64.0907 17.4266 65.1475 18.9743 65.6861 21.0673L68.872 20.2465C68.1656 17.5031 66.7585 15.5014 65.4024 13.5499L62.7009 15.4257V15.4266ZM62.3588 14.9331L62.7009 15.4266L65.4024 13.5499L65.0652 13.0622L62.3588 14.9323V14.9331ZM55.5157 9.32037C58.0988 10.6304 60.8185 12.6921 62.3563 14.929L65.0669 13.0655C63.117 10.2283 59.89 7.85077 57.0034 6.38611L55.5149 9.32037H55.5157ZM28.2134 10.7135C36.6108 6.53331 47.1398 5.11306 55.5215 9.32366L56.9977 6.38364C47.3815 1.55379 35.7119 3.30546 26.7471 7.76771L28.2126 10.7118L28.2134 10.7135ZM21.4288 15.582C22.9806 13.6519 25.7266 11.9175 28.197 10.7209L26.7636 7.76031C24.1607 9.02102 20.8811 11.0137 18.8654 13.5219L21.4288 15.5828V15.582ZM16.3876 24.7697C17.6392 21.2022 19.099 18.4768 21.4288 15.5836L18.8662 13.5211C16.2798 16.7325 14.6474 19.7951 13.2831 23.68L16.3876 24.7697ZM16.0331 36.8472C14.7535 33.1522 15.0537 28.5477 16.3868 24.7721L13.2839 23.6775C11.7625 27.9876 11.3497 33.3734 12.9245 37.9237L16.0331 36.8472ZM18.5134 41.8481C17.4493 40.4747 16.6474 38.6531 16.0356 36.8554L12.9212 37.9154C13.5775 39.8431 14.5199 42.0652 15.9139 43.8629L18.5134 41.8481ZM25.3211 46.6812C22.5135 45.1763 20.0439 43.8218 18.5134 41.8481L15.9139 43.8629C17.9534 46.4945 21.1122 48.1574 23.7676 49.5809L25.3219 46.6812H25.3211ZM29.6131 49.1977C28.2784 48.2643 26.757 47.451 25.3211 46.6812L23.7668 49.5809C25.2413 50.3704 26.5818 51.0917 27.7266 51.8935L29.6131 49.1985V49.1977ZM32.2571 53.7167C32.2571 52.7044 31.8624 51.771 31.3936 51.0456C30.9213 50.314 30.3099 49.6823 29.5942 49.1862L27.7447 51.9058C28.0506 52.1139 28.3837 52.4478 28.6312 52.831C28.8861 53.2257 28.9676 53.5407 28.9676 53.7175H32.2571V53.7167ZM32.2242 54.493C32.239 54.1888 32.2571 53.8532 32.2571 53.7167H28.9676L28.9659 53.7512L28.9602 53.8894L28.9388 54.3269L32.2234 54.493H32.2242Z" fill="white"/>
<path d="M32.5934 74.5278C27.8367 72.4275 27.6936 64.3549 27.1385 60.0341C26.7972 57.3787 48.8461 56.9675 50.986 58.3943C51.9778 59.0687 51.7393 60.8524 51.819 61.8039C52.0164 63.9043 52.0567 66.0449 51.898 68.1461C51.7796 69.3353 51.9375 70.9209 51.1447 71.9126C50.273 72.9817 48.0525 73.4176 46.7844 73.6956C42.6618 74.6471 36.7554 76.3519 32.5934 74.5286V74.5278Z" fill="white"/>
<path d="M32.5934 74.5278C27.8367 72.4275 27.6936 64.3549 27.1385 60.0341C26.7972 57.3787 48.8461 56.9675 50.986 58.3943C51.9778 59.0687 51.7393 60.8524 51.819 61.8039C52.0164 63.9043 52.0567 66.0449 51.898 68.1461C51.7796 69.3353 51.9375 70.9209 51.1447 71.9126C50.273 72.9817 48.0525 73.4176 46.7844 73.6956C42.6618 74.6471 36.7554 76.3519 32.5934 74.5286V74.5278Z" stroke="white" stroke-width="0.328953" stroke-miterlimit="2.725" stroke-linecap="round" stroke-linejoin="round"/>
<path fill-rule="evenodd" clip-rule="evenodd" d="M32.7901 32.0465C33.2782 31.0851 33.9004 30.198 34.638 29.4115C34.3365 29.3568 34.0314 29.3239 33.7251 29.3129C31.9299 29.2438 30.0022 29.8745 28.6116 30.9124C27.9956 31.4165 27.4989 32.0555 27.0688 32.8466C26.4569 34.0202 26.3747 35.0136 26.5638 35.8919C26.7628 36.8113 27.29 37.7398 28.1132 38.6814C29.7777 40.5836 32.3065 42.1667 34.4686 43.5203L34.5368 43.5631L34.5557 43.5746C34.9258 43.8131 35.2827 43.9883 35.7252 44.2054C35.9044 44.2934 36.0977 44.388 36.3115 44.4965C36.9883 44.8403 37.7844 45.2885 38.5032 46.0039C39.0739 46.5599 39.3387 47.2975 39.4802 47.8559C39.634 48.4604 39.7055 49.1142 39.74 49.7112C39.791 50.5731 39.7705 51.518 39.7565 52.1414C39.7524 52.3519 39.7483 52.5254 39.7483 52.6471C39.7483 52.7672 39.7335 53.0995 39.7154 53.5106C39.6956 53.9605 39.6718 54.5074 39.6578 54.977C39.6425 55.4214 39.639 55.8662 39.6471 56.3109C39.652 56.4753 39.6586 56.5929 39.6668 56.6686C39.7713 56.9852 39.7738 57.3183 39.6866 57.6267C38.6413 57.6571 37.5895 57.704 36.5656 57.7673C36.4807 57.5461 36.4257 57.3147 36.402 57.079L36.4012 57.0683C36.3778 56.8464 36.3638 56.6236 36.3592 56.4005C36.3492 55.8939 36.3528 55.3871 36.3699 54.8807C36.3855 54.3577 36.4086 53.8347 36.4275 53.421L36.4324 53.2927C36.4411 53.1017 36.4493 52.9106 36.4571 52.7195L36.4579 52.6866V52.6661V52.6471C36.4579 52.4169 36.4645 52.1677 36.4702 51.9012C36.4834 51.3034 36.499 50.6224 36.4563 49.9045C36.4275 49.4061 36.3724 48.9834 36.2918 48.6643C36.2657 48.5482 36.2265 48.4354 36.175 48.328C35.8288 47.9851 35.4036 47.7252 34.8214 47.4291C34.6875 47.3618 34.5532 47.2955 34.4184 47.2301C33.9299 46.9916 33.3263 46.6956 32.7819 46.3452L32.5656 46.2104C30.5104 44.925 27.628 43.1215 25.6378 40.8476C24.5876 39.6477 23.7028 38.2275 23.3483 36.5852C22.9865 34.9042 23.2101 33.1262 24.1592 31.3112L24.1707 31.2907C24.7645 30.1936 25.5276 29.1772 26.5638 28.3383L26.6091 28.3021C28.5869 26.8136 31.2654 25.9255 33.851 26.025C35.1873 26.0768 36.5327 26.3975 37.7392 27.0562C40.4884 25.6442 43.8166 25.4419 46.9088 27.3926L46.9145 27.3959L47.0379 27.4748C47.4408 27.7298 47.9754 28.0694 48.4779 28.4535C49.0182 28.8671 49.6489 29.4263 50.084 30.1344C50.4035 30.6507 50.6592 31.2038 50.8455 31.7816C51.218 31.7775 51.5725 31.7923 51.8981 31.8244L51.913 31.8261L51.9286 31.8277C53.311 31.9872 54.8234 32.7274 55.7477 33.2743C56.0547 33.464 56.3507 33.6711 56.6343 33.8944C56.7667 33.9996 57.0833 34.2537 57.3004 34.5703C57.3637 34.6633 57.4731 34.8384 57.5455 35.0761C57.6178 35.313 57.7001 35.771 57.4731 36.276C57.38 36.4826 57.2465 36.6685 57.0806 36.8229C56.9146 36.9772 56.7196 37.0969 56.5068 37.1748C56.3002 37.25 56.0819 37.2878 55.862 37.2867C55.5407 37.2868 55.2264 37.1927 54.9579 37.0162C54.6894 36.8396 54.4786 36.5883 54.3513 36.2932C54.2701 36.2356 54.1878 36.1794 54.1046 36.1247L54.0882 36.1148L54.0742 36.1066C53.26 35.6255 52.2436 35.1797 51.5651 35.0967C51.4977 35.0905 51.4303 35.0856 51.3628 35.0819C51.3685 36.7743 50.9861 38.6757 49.9047 40.0622L49.903 40.0655C48.9746 41.2497 47.3652 41.9159 45.9293 41.9093C45.1768 41.9052 44.3289 41.7169 43.6069 41.17C42.8552 40.6009 42.3939 39.7588 42.2615 38.7604C42.0559 37.3344 42.3972 36.0745 43.1217 35.049C43.8207 34.0596 44.8141 33.368 45.8166 32.8919C46.3545 32.6369 46.926 32.4289 47.5058 32.2652C47.4405 32.1249 47.3657 31.9892 47.2821 31.859C47.1629 31.6616 46.9071 31.3935 46.4786 31.0662C46.0979 30.7751 45.685 30.5127 45.2665 30.2463L45.1513 30.1731C43.662 29.2356 41.986 29.0744 40.4243 29.5135C40.5254 29.664 40.6216 29.8194 40.7162 29.9806L40.722 29.9913C41.7532 31.8022 42.3092 34.1032 41.81 36.1033C41.5526 37.1386 40.9991 38.1263 40.0525 38.8443C39.1093 39.5597 37.9144 39.9027 36.5574 39.9027C35.4809 39.9027 34.5319 39.5696 33.7835 38.9438C33.0549 38.3352 32.6149 37.5334 32.3764 36.7398C31.9126 35.2003 32.1133 33.4009 32.7876 32.0522L32.7901 32.0465ZM35.5262 35.7924C35.3156 35.0934 35.4127 34.1583 35.7285 33.5259C36.1814 32.6249 36.796 31.8148 37.5418 31.1361C37.6569 31.289 37.7655 31.4519 37.8667 31.6246C38.6158 32.9437 38.8535 34.3672 38.6183 35.3088C38.5098 35.7447 38.314 36.0334 38.064 36.2233C37.8116 36.4158 37.3609 36.6131 36.5574 36.6131C36.1873 36.6131 36.0015 36.5103 35.8921 36.4191C35.7646 36.3122 35.624 36.1189 35.5262 35.7924ZM39.6792 56.7533C39.6756 56.7412 39.6731 56.7288 39.6718 56.7163C39.675 56.7284 39.6772 56.7408 39.6784 56.7533H39.6792ZM54.0684 36.1033L54.0734 36.1066L54.0692 36.1024L54.0684 36.1033ZM47.2262 35.864C47.4974 35.7362 47.7765 35.6258 48.0617 35.5334C48.0033 36.6304 47.713 37.5219 47.3117 38.0375C47.2213 38.1526 47.0354 38.3089 46.7541 38.4347C46.5002 38.5519 46.2246 38.6149 45.9449 38.6198C45.7015 38.6189 45.6045 38.5573 45.5921 38.5474C45.5888 38.5449 45.5839 38.5416 45.5757 38.526C45.5455 38.4627 45.5271 38.3944 45.5214 38.3245C45.5201 38.3149 45.5187 38.3053 45.5173 38.2957C45.4309 37.7061 45.5642 37.2916 45.8076 36.947C46.079 36.5622 46.5485 36.1855 47.227 35.864H47.2262Z" fill="white"/>
</svg>
