<svg width="60" height="60" viewBox="0 0 60 60" fill="none" xmlns="http://www.w3.org/2000/svg">
<g id="Adobe Apps">
<path id="bg" d="M4.6582 22.8226C4.6582 16.2861 4.6582 13.0178 5.93031 10.5211C7.04928 8.32501 8.83477 6.53952 11.0309 5.42054C13.5275 4.14844 16.7958 4.14844 23.3324 4.14844H37.5838C44.1203 4.14844 47.3886 4.14844 49.8853 5.42054C52.0814 6.53952 53.8669 8.32501 54.9859 10.5211C56.258 13.0178 56.258 16.2861 56.258 22.8226V37.074C56.258 43.6106 56.258 46.8789 54.9859 49.3755C53.8669 51.5716 52.0814 53.3571 49.8853 54.4761C47.3886 55.7482 44.1203 55.7482 37.5838 55.7482H23.3324C16.7958 55.7482 13.5275 55.7482 11.0309 54.4761C8.83477 53.3571 7.04928 51.5716 5.93031 49.3755C4.6582 46.8789 4.6582 43.6106 4.6582 37.074V22.8226Z" fill="#470137"/>
<g id="Vector">
<path d="M31.6492 19.3206L25.2107 30.2198L32.0991 41.7937C32.2423 42.0561 32.0991 42.114 31.8914 42.114H26.9762C26.63 42.114 26.3877 42.1015 26.2492 41.8646C25.7873 40.9416 25.3258 40.0245 24.8646 39.1132C24.4027 38.2023 23.9123 37.2733 23.3935 36.3262C22.8743 35.3799 22.3608 34.4213 21.8532 33.4505C21.3912 34.3975 20.8778 35.3442 20.382 36.2908C19.8855 37.2377 19.3952 38.1785 18.9109 39.1132C18.4263 40.0485 17.9302 40.9774 17.4225 41.9001C17.33 42.1132 17.1682 42.1351 16.9378 42.1351H12.1956C12.0093 42.1351 11.9868 41.9951 12.0918 41.8291L18.7724 30.5748L12.2648 19.2851C12.1466 19.124 12.2483 18.9523 12.4379 18.9655H17.3186C17.5299 18.9536 17.7167 19.0334 17.8378 19.2141C18.2532 20.161 18.7147 21.1077 19.2224 22.0543C19.7297 23.0012 20.2432 23.9361 20.7627 24.859C21.282 25.782 21.7955 26.7169 22.2339 27.6637C22.6952 26.6934 23.1625 25.7467 23.6358 24.8235C24.1085 23.9004 24.5931 22.9714 25.0896 22.0365C25.5856 21.1018 26.0645 20.1728 26.5261 19.2496C26.5875 19.0471 26.7341 18.9444 26.9415 18.9655H31.476C31.6492 18.9655 31.7208 19.2019 31.6492 19.3206Z" fill="#FF61F6"/>
<path d="M41.5833 42.575C38.5306 42.6226 35.3331 41.3657 33.7258 38.5809C32.9409 37.244 32.5486 35.5695 32.5488 33.5573C32.5358 31.9279 32.9418 30.3238 33.7258 28.9065C35.7486 25.2905 39.8238 23.9357 43.6948 24.2912V17.2973C43.6948 17.1319 43.7641 17.0487 43.9025 17.0487H48.2639C48.3831 17.0313 48.4887 17.1394 48.4717 17.2617V38.2436C48.4717 39.1093 48.5575 39.972 48.6102 40.8353C48.6186 40.9828 48.5333 41.1286 48.4024 41.1903C46.2474 42.1122 43.9158 42.5643 41.5833 42.575ZM43.6948 38.1726V28.4805C40.5333 27.6021 37.4637 30.0102 37.4641 33.3443C37.389 36.7913 40.3604 39.1728 43.6948 38.1726Z" fill="#FF61F6"/>
</g>
</g>
</svg>
