<svg width="53" height="53" viewBox="0 0 53 53" fill="none" xmlns="http://www.w3.org/2000/svg">
<g id="dribbble-icon" clip-path="url(#clip0_1307_27725)">
<g id="Group">
<path id="Vector" d="M26.5498 2.6875C39.794 2.6875 50.5098 13.4033 50.5098 26.6274C50.5098 39.8515 39.794 50.5874 26.5498 50.5874C13.3056 50.5874 2.58984 39.8716 2.58984 26.6475C2.58984 13.4233 13.3056 2.6875 26.5498 2.6875Z" fill="#E74D89"/>
<path id="Vector_2" d="M26.549 52.2878C12.3817 52.2878 0.863281 40.7894 0.863281 26.6422C0.863281 12.4749 12.3817 0.976562 26.549 0.976562C40.7163 0.976562 52.2347 12.4749 52.2347 26.6222C52.2347 40.7694 40.7163 52.2878 26.549 52.2878ZM48.2013 30.1339C47.4588 29.8931 41.4186 28.1071 34.5357 29.1907C37.4053 37.057 38.5691 43.4784 38.7899 44.8028C43.7263 41.4918 47.2381 36.2342 48.2013 30.1339ZM35.1176 46.8296C34.7965 44.9032 33.5123 38.2008 30.442 30.2141C30.4019 30.2342 30.3417 30.2543 30.3015 30.2543C17.9202 34.5687 13.4854 43.1373 13.0841 43.94C16.7965 46.8296 21.4721 48.5554 26.549 48.5554C29.5791 48.5754 32.4888 47.9534 35.1176 46.8296ZM10.2546 41.3112C10.7563 40.4684 16.7764 30.5152 28.0942 26.8429C28.3751 26.7426 28.6761 26.6623 28.9571 26.582C28.4152 25.3379 27.8132 24.0937 27.1711 22.8696C16.2145 26.1406 5.57902 26.0001 4.61581 25.98C4.61581 26.2008 4.59574 26.4215 4.59574 26.6422C4.61581 32.281 6.74291 37.4182 10.2546 41.3112ZM5.07735 22.1673C6.06063 22.1874 15.0908 22.2275 25.3651 19.4984C21.7329 13.0368 17.7998 7.61873 17.2379 6.83612C11.0774 9.72577 6.5021 15.3847 5.07735 22.1673ZM21.4119 5.35116C22.0139 6.15384 26.0072 11.5719 29.5992 18.174C37.4053 15.2442 40.6962 10.8294 41.0976 10.2676C37.2246 6.83612 32.1276 4.74915 26.549 4.74915C24.7831 4.74915 23.0574 4.96989 21.4119 5.35116ZM43.5257 12.796C43.0641 13.4181 39.3919 18.1338 31.2848 21.4449C31.7865 22.4884 32.2882 23.5519 32.7497 24.6155C32.9102 24.9967 33.0708 25.378 33.2313 25.7392C40.5357 24.8161 47.7799 26.3011 48.5023 26.4416C48.4421 21.2843 46.5959 16.5285 43.5257 12.796Z" fill="#B2215A"/>
</g>
</g>
<defs>
<clipPath id="clip0_1307_27725">
<rect width="51.3715" height="51.3715" fill="white" transform="translate(0.861328 0.96875)"/>
</clipPath>
</defs>
</svg>
