<svg width="31" height="46" viewBox="0 0 31 46" fill="none" xmlns="http://www.w3.org/2000/svg">
<g id="figma">
<path id="vector" fill-rule="evenodd" clip-rule="evenodd" d="M15.6602 22.9417C15.6602 18.8706 18.9604 15.5703 23.0316 15.5703C27.1027 15.5703 30.4029 18.8706 30.4029 22.9417C30.4029 27.0128 27.1027 30.3131 23.0316 30.3131C18.9604 30.3131 15.6602 27.0128 15.6602 22.9417Z" fill="#1ABCFE"/>
<path id="vector_2" fill-rule="evenodd" clip-rule="evenodd" d="M0.917969 37.6839C0.917969 33.6128 4.21825 30.3125 8.28936 30.3125H15.6608V37.6839C15.6608 41.755 12.3605 45.0553 8.28936 45.0553C4.21825 45.0553 0.917969 41.755 0.917969 37.6839Z" fill="#0ACF83"/>
<path id="vector_3" fill-rule="evenodd" clip-rule="evenodd" d="M15.6602 0.828125V15.5709H23.0316C27.1027 15.5709 30.4029 12.2706 30.4029 8.19952C30.4029 4.12841 27.1027 0.828125 23.0316 0.828125H15.6602Z" fill="#FF7262"/>
<path id="vector_4" fill-rule="evenodd" clip-rule="evenodd" d="M0.917969 8.19952C0.917969 12.2706 4.21825 15.5709 8.28936 15.5709H15.6608V0.828125H8.28936C4.21825 0.828125 0.917969 4.12841 0.917969 8.19952Z" fill="#F24E1E"/>
<path id="vector_5" fill-rule="evenodd" clip-rule="evenodd" d="M0.917969 22.9417C0.917969 27.0128 4.21825 30.3131 8.28936 30.3131H15.6608V15.5703H8.28936C4.21825 15.5703 0.917969 18.8706 0.917969 22.9417Z" fill="#A259FF"/>
</g>
</svg>
