<svg width="48" height="47" viewBox="0 0 48 47" fill="none" xmlns="http://www.w3.org/2000/svg">
<g id="github-icon" clip-path="url(#clip0_1307_27729)">
<g id="Group">
<path id="Vector" d="M23.7094 0.640625C10.688 0.640625 0.128906 11.1977 0.128906 24.2212C0.128906 34.6397 6.88545 43.4787 16.2547 46.5967C17.4332 46.815 17.8659 46.0851 17.8659 45.4623C17.8659 44.9 17.844 43.0425 17.8338 41.0721C11.2737 42.4985 9.88944 38.2899 9.88944 38.2899C8.81678 35.5643 7.27125 34.8396 7.27125 34.8396C5.13179 33.3761 7.43252 33.4061 7.43252 33.4061C9.80041 33.5725 11.0472 35.8361 11.0472 35.8361C13.1504 39.4411 16.5636 38.3989 17.9092 37.7963C18.1208 36.2723 18.732 35.232 19.4063 34.6432C14.1688 34.0469 8.66293 32.025 8.66293 22.9896C8.66293 20.4151 9.58408 18.3116 11.0925 16.6602C10.8477 16.0663 10.0406 13.6679 11.321 10.4199C11.321 10.4199 13.3011 9.78615 17.8073 12.837C19.6882 12.3145 21.7055 12.0525 23.7094 12.0435C25.7134 12.0525 27.7322 12.3145 29.6167 12.837C34.1174 9.78615 36.0948 10.4199 36.0948 10.4199C37.3783 13.6679 36.5708 16.0663 36.326 16.6602C37.8379 18.3116 38.7528 20.4151 38.7528 22.9896C38.7528 32.0465 33.2365 34.0407 27.9856 34.6244C28.8314 35.3562 29.5851 36.7912 29.5851 38.9912C29.5851 42.1463 29.5577 44.6856 29.5577 45.4623C29.5577 46.0898 29.9822 46.8251 31.1775 46.5936C40.5416 43.472 47.2896 34.6362 47.2896 24.2212C47.2896 11.1977 36.7321 0.640625 23.7094 0.640625ZM8.96059 34.2316C8.90865 34.3488 8.72434 34.3839 8.55644 34.3035C8.3854 34.2265 8.28934 34.0668 8.34479 33.9493C8.39556 33.8286 8.58025 33.795 8.7509 33.8759C8.92232 33.9528 9.01994 34.1141 8.96059 34.2316ZM10.1205 35.2666C10.008 35.3708 9.78819 35.3224 9.63902 35.1576C9.48478 34.9932 9.45588 34.7734 9.5699 34.6676C9.68588 34.5633 9.89908 34.6121 10.0537 34.7765C10.208 34.9429 10.238 35.1611 10.1205 35.2666ZM10.9162 36.5908C10.7717 36.6911 10.5355 36.597 10.3895 36.3873C10.245 36.1776 10.245 35.9262 10.3926 35.8254C10.539 35.7247 10.7717 35.8153 10.9197 36.0234C11.0638 36.2366 11.0638 36.4881 10.9162 36.5908ZM12.262 38.1244C12.1327 38.2669 11.8574 38.2286 11.656 38.0342C11.4498 37.844 11.3924 37.5742 11.522 37.4317C11.6528 37.2887 11.9297 37.329 12.1327 37.5219C12.3373 37.7116 12.3998 37.9834 12.262 38.1244ZM14.0012 38.6421C13.9442 38.8268 13.6791 38.9108 13.412 38.8323C13.1453 38.7514 12.9708 38.5351 13.0246 38.3485C13.0801 38.1626 13.3464 38.0751 13.6154 38.1591C13.8818 38.2395 14.0567 38.4543 14.0012 38.6421ZM15.9806 38.8617C15.9872 39.0562 15.7608 39.2175 15.4804 39.221C15.1985 39.2272 14.9704 39.0698 14.9673 38.8785C14.9673 38.6821 15.1887 38.5224 15.4706 38.5177C15.751 38.5122 15.9806 38.6684 15.9806 38.8617ZM17.9251 38.7872C17.9587 38.977 17.7638 39.1718 17.4854 39.2237C17.2117 39.2737 16.9583 39.1566 16.9235 38.9684C16.8895 38.7739 17.0879 38.5791 17.3612 38.5287C17.64 38.4803 17.8896 38.5943 17.9251 38.7872Z" fill="#161614"/>
</g>
</g>
<defs>
<clipPath id="clip0_1307_27729">
<rect width="47.1607" height="46.0554" fill="white" transform="translate(0.130859 0.625)"/>
</clipPath>
</defs>
</svg>
