<svg width="59" height="60" viewBox="0 0 59 60" fill="none" xmlns="http://www.w3.org/2000/svg">
<g id="Adobe Apps">
<path id="bg" d="M3.71289 22.8226C3.71289 16.2861 3.71289 13.0178 4.98499 10.5211C6.10397 8.32501 7.88946 6.53952 10.0856 5.42054C12.5822 4.14844 15.8505 4.14844 22.3871 4.14844H36.6384C43.175 4.14844 46.4433 4.14844 48.94 5.42054C51.1361 6.53952 52.9216 8.32501 54.0405 10.5211C55.3126 13.0178 55.3126 16.2861 55.3126 22.8226V37.074C55.3126 43.6106 55.3126 46.8789 54.0405 49.3755C52.9216 51.5716 51.1361 53.3571 48.94 54.4761C46.4433 55.7482 43.175 55.7482 36.6384 55.7482H22.3871C15.8505 55.7482 12.5822 55.7482 10.0856 54.4761C7.88946 53.3571 6.10397 51.5716 4.98499 49.3755C3.71289 46.8789 3.71289 43.6106 3.71289 37.074V22.8226Z" fill="#330000"/>
<g id="Vector">
<path d="M28.7159 36.5742H20.7199L19.093 41.7575C19.0478 41.9501 18.8705 42.0865 18.6776 42.0771H14.6277C14.3967 42.0771 14.316 41.9469 14.3854 41.6865L21.3083 21.2371C21.3776 21.0242 21.4469 20.7816 21.5161 20.5093C21.6066 20.0357 21.653 19.5542 21.6545 19.0715C21.6347 18.9289 21.76 18.803 21.8968 18.823H27.4005C27.5618 18.823 27.6541 18.8822 27.6775 19.0005L35.5351 41.722C35.6043 41.9589 35.535 42.0772 35.3273 42.0771H30.8274C30.6695 42.095 30.5188 41.9868 30.4813 41.8286L28.7159 36.5742ZM21.966 32.1009H27.4352C26.5366 29.0304 25.5225 26.0002 24.7006 22.9058C23.8139 26.0054 22.8464 29.0926 21.966 32.1009Z" fill="#FF9A00"/>
<path d="M40.2076 22.5862C39.8546 22.6007 39.5025 22.5386 39.1745 22.404C38.8464 22.2695 38.5497 22.0654 38.3038 21.8051C38.0586 21.5336 37.8682 21.215 37.7434 20.8677C37.6186 20.5204 37.562 20.1513 37.5768 19.7815C37.5643 19.4153 37.6271 19.0506 37.7613 18.7111C37.8955 18.3715 38.0981 18.0649 38.3557 17.8111C38.6108 17.5599 38.912 17.3631 39.2417 17.2321C39.5715 17.1011 39.9233 17.0384 40.2768 17.0478C41.1076 17.0478 41.7596 17.3022 42.2326 17.8111C42.4714 18.0755 42.657 18.3857 42.7787 18.7238C42.9005 19.0619 42.956 19.4213 42.9422 19.7815C42.9566 20.1527 42.8982 20.5231 42.7704 20.8708C42.6425 21.2184 42.4479 21.5361 42.198 21.8051C41.9368 22.0692 41.6251 22.2749 41.2825 22.4093C40.94 22.5438 40.574 22.604 40.2076 22.5862ZM37.8191 41.7219V24.7518C37.8191 24.5388 37.9111 24.4322 38.0961 24.4322H42.3537C42.5382 24.4322 42.6305 24.5387 42.6307 24.7518V41.7219C42.6307 41.9588 42.5384 42.0771 42.3537 42.077H38.1307C37.9231 42.077 37.8192 41.9586 37.8191 41.7219Z" fill="#FF9A00"/>
</g>
</g>
</svg>
