<svg width="53" height="52" viewBox="0 0 53 52" fill="none" xmlns="http://www.w3.org/2000/svg">
<g id="indesign" clip-path="url(#clip0_1307_28063)">
<g id="Surfaces">
<g id="Publishing Surface">
<g id="Outline no shadow">
<path id="Vector" d="M43.0072 0.375H9.68238C4.6359 0.375 0.544922 4.57088 0.544922 9.74675V42.603C0.544922 47.7789 4.6359 51.9748 9.68238 51.9748H43.0072C48.0537 51.9748 52.1447 47.7789 52.1447 42.603V9.74675C52.1447 4.57088 48.0537 0.375 43.0072 0.375Z" fill="#49021F"/>
</g>
</g>
</g>
<g id="Outlined Mnemonics &#38; Logos">
<g id="Id">
<path id="Vector_2" d="M19.2846 13.8803V36.4953C19.2846 36.7322 19.1808 36.8505 18.9731 36.8503H14.7846C14.5998 36.8503 14.5075 36.732 14.5078 36.4953V13.8803C14.5078 13.6911 14.6116 13.5964 14.8193 13.5962H19.0077C19.0453 13.5908 19.0836 13.5943 19.1197 13.6067C19.1557 13.619 19.1885 13.6398 19.2153 13.6673C19.2422 13.6949 19.2624 13.7285 19.2745 13.7654C19.2865 13.8024 19.29 13.8417 19.2846 13.8803V13.8803Z" fill="#FF3366"/>
<path id="Vector_3" d="M31.6774 37.2C30.0841 37.2249 28.5055 36.8853 27.0562 36.2059C25.7062 35.5651 24.5776 34.519 23.8198 33.206C23.035 31.8691 22.6427 30.1945 22.6429 28.1824C22.6299 26.553 23.0358 24.9488 23.8198 23.5316C24.6274 22.088 25.815 20.9068 27.2467 20.1233C28.7464 19.2713 30.5579 18.8452 32.6812 18.8453C32.7963 18.8453 32.9463 18.8512 33.1311 18.863C33.3156 18.8752 33.5348 18.8929 33.7888 18.9163V11.9223C33.7888 11.757 33.8581 11.6738 33.9966 11.6738H38.358C38.3862 11.6696 38.415 11.6723 38.442 11.6815C38.469 11.6908 38.4936 11.7063 38.5138 11.727C38.5339 11.7477 38.5491 11.7729 38.5581 11.8006C38.5671 11.8283 38.5698 11.8578 38.5657 11.8867V32.8687C38.5657 33.2714 38.583 33.7093 38.6176 34.1823C38.6522 34.656 38.6811 35.082 38.7042 35.4603C38.7084 35.5341 38.6909 35.6074 38.6538 35.6708C38.6167 35.7341 38.5619 35.7845 38.4964 35.8154C37.3713 36.2967 36.1993 36.6537 35.0004 36.8804C33.9042 37.088 32.7921 37.1949 31.6774 37.2ZM33.7888 32.7977V23.1056C33.6017 23.0536 33.4107 23.0179 33.2177 22.999C32.9819 22.9747 32.7451 22.9629 32.5081 22.9635C31.6681 22.955 30.838 23.1496 30.085 23.5316C29.3517 23.9054 28.7255 24.4682 28.2678 25.1647C27.7946 25.8747 27.558 26.8096 27.5582 27.9694C27.5413 28.7433 27.6645 29.5137 27.9216 30.2415C28.1308 30.828 28.4615 31.3609 28.8909 31.8036C29.3019 32.2109 29.7996 32.5148 30.3446 32.6912C30.9204 32.8824 31.5221 32.9783 32.1273 32.9752C32.4502 32.9752 32.7502 32.9634 33.0273 32.9397C33.2853 32.9198 33.5405 32.8722 33.7888 32.7977V32.7977Z" fill="#FF3366"/>
</g>
</g>
</g>
<defs>
<clipPath id="clip0_1307_28063">
<rect width="51.5998" height="51.5998" fill="white" transform="translate(0.544922 0.375)"/>
</clipPath>
</defs>
</svg>
