<svg width="46" height="47" viewBox="0 0 46 47" fill="none" xmlns="http://www.w3.org/2000/svg">
<g id="linkedin-icon" clip-path="url(#clip0_1307_27732)">
<g id="Group">
<path id="Vector" d="M38.9375 39.6628H32.1993V29.1103C32.1993 26.594 32.1544 23.3547 28.6948 23.3547C25.1853 23.3547 24.6483 26.0963 24.6483 28.9271V39.6621H17.9102V17.9619H24.3788V20.9275H24.4694C25.7883 18.6722 28.2409 17.3252 30.8517 17.4221C37.6811 17.4221 38.9403 21.9144 38.9403 27.7584L38.9375 39.6628ZM10.3072 14.9956C8.14768 14.996 6.39669 13.2456 6.3963 11.086C6.39591 8.92639 8.14627 7.17536 10.3058 7.17497C12.4654 7.17458 14.2164 8.92499 14.2168 11.0846C14.217 12.1217 13.8052 13.1164 13.072 13.8498C12.3388 14.5833 11.3443 14.9955 10.3072 14.9956ZM13.6763 39.6628H6.93114V17.9619H13.6763V39.6628ZM42.2967 0.917453H3.54521C1.71373 0.896785 0.211805 2.36387 0.189453 4.19537V43.1085C0.21104 44.9409 1.71284 46.4094 3.54521 46.3902H42.2967C44.1327 46.4129 45.6404 44.9445 45.6658 43.1085V4.19256C45.6397 2.35744 44.1319 0.890443 42.2967 0.914351" fill="#48A0F9"/>
</g>
</g>
<defs>
<clipPath id="clip0_1307_27732">
<rect width="45.4764" height="45.4764" fill="white" transform="translate(0.189453 0.914062)"/>
</clipPath>
</defs>
</svg>
