<svg width="60" height="60" viewBox="0 0 60 60" fill="none" xmlns="http://www.w3.org/2000/svg">
<g id="Adobe Apps">
<path id="bg" d="M4.34375 22.8226C4.34375 16.2861 4.34375 13.0178 5.61585 10.5211C6.73483 8.32501 8.52032 6.53952 10.7164 5.42054C13.2131 4.14844 16.4814 4.14844 23.0179 4.14844H37.2693C43.8059 4.14844 47.0742 4.14844 49.5708 5.42054C51.7669 6.53952 53.5524 8.32501 54.6714 10.5211C55.9435 13.0178 55.9435 16.2861 55.9435 22.8226V37.074C55.9435 43.6106 55.9435 46.8789 54.6714 49.3755C53.5524 51.5716 51.7669 53.3571 49.5708 54.4761C47.0742 55.7482 43.8059 55.7482 37.2693 55.7482H23.0179C16.4814 55.7482 13.2131 55.7482 10.7164 54.4761C8.52032 53.3571 6.73483 51.5716 5.61585 49.3755C4.34375 46.8789 4.34375 43.6106 4.34375 37.074V22.8226Z" fill="#001E36"/>
<g id="Vector">
<path d="M15.4004 41.9562V19.2655C15.4004 19.1111 15.4649 19.0229 15.6154 19.0229C17.8372 19.0229 20.058 18.8906 22.2804 18.8906C25.8865 18.8906 29.7912 20.1237 31.1598 23.8962C31.4823 24.8224 31.6543 25.7706 31.6543 26.7629C31.6543 28.6593 31.2243 30.2249 30.3643 31.4598C27.962 34.9093 23.7982 34.8557 20.0659 34.8557V41.9341C20.0951 42.1437 19.9165 42.2428 19.7434 42.2428H15.6584C15.4864 42.2428 15.4004 42.1546 15.4004 41.9562ZM20.0874 23.2788V30.688C21.5673 30.7964 23.1159 30.8082 24.5378 30.3352C26.1076 29.8824 26.9673 28.5235 26.9673 26.8952C27.011 25.5077 26.2549 24.1764 24.9678 23.6757C23.563 23.0916 21.6038 23.0566 20.0874 23.2788Z" fill="#31A8FF"/>
<path d="M45.0641 29.2242C44.4136 28.8813 43.7207 28.6305 43.0045 28.4786C42.0841 28.262 38.454 27.5036 38.4527 29.4017C38.4849 30.4614 40.167 30.9805 40.9102 31.2833C43.5194 32.1791 46.4721 33.7803 46.414 36.9992C46.4938 41.0063 42.6114 42.6082 39.2834 42.6086C37.5508 42.6265 35.746 42.3582 34.1604 41.6145C34.009 41.5343 33.9116 41.363 33.9181 41.1884V37.3542C33.901 37.2005 34.066 37.0661 34.195 37.1767C35.7486 38.1162 37.59 38.5724 39.3872 38.5968C40.1806 38.5968 41.753 38.5199 41.7411 37.3542C41.7411 36.2355 39.8601 35.7212 39.1103 35.437C38.0234 35.049 36.9929 34.5116 36.0469 33.8395C34.7248 32.8965 33.8955 31.3845 33.9181 29.7212C33.9103 25.9482 37.4841 24.2546 40.7026 24.2538C42.2072 24.2414 43.8229 24.3528 45.2235 24.9639C45.425 25.0232 45.4667 25.2353 45.4658 25.4254V29.0111C45.4786 29.2337 45.2314 29.3095 45.0641 29.2242Z" fill="#31A8FF"/>
</g>
</g>
</svg>
